<svg width="1280" height="720" xmlns="http://www.w3.org/2000/svg" xmlns:xlink="http://www.w3.org/1999/xlink" overflow="hidden"><defs><clipPath id="clip0"><rect x="0" y="0" width="1280" height="720"/></clipPath></defs><g clip-path="url(#clip0)"><rect x="0" y="0" width="1280" height="720" fill="#FFFFFF"/><text font-family="Cambria Math,Cambria Math_MSFontService,sans-serif" font-weight="400" font-size="37" transform="translate(423.775 389)">𝑐𝑠𝑜𝑐𝑖𝑎𝑙<tspan font-size="37" x="125.313" y="0">∗</tspan><tspan font-size="37" x="151.607" y="0">𝑟𝑑</tspan>2<tspan font-size="37" x="220.067" y="0">∗</tspan></text><path d="M841.816 361.402C845.333 362.329 848.034 364.332 849.919 367.409 851.803 370.486 852.746 374.199 852.746 378.547 852.746 382.907 851.806 386.619 849.928 389.685 848.049 392.75 845.345 394.746 841.816 395.674L841.382 394.283C844.164 393.355 846.233 391.525 847.588 388.79 848.943 386.056 849.62 382.582 849.62 378.366 849.62 374.295 848.946 370.914 847.597 368.222 846.248 365.53 844.158 363.72 841.328 362.793ZM684.317 361.402 684.805 362.793C681.986 363.72 679.9 365.53 678.545 368.222 677.19 370.914 676.512 374.295 676.512 378.366 676.512 382.582 677.19 386.056 678.545 388.79 679.9 391.525 681.968 393.355 684.75 394.283L684.317 395.674C680.788 394.746 678.084 392.75 676.205 389.685 674.326 386.619 673.387 382.907 673.387 378.547 673.387 374.199 674.329 370.486 676.214 367.409 678.099 364.332 680.8 362.329 684.317 361.402Z" fill-rule="evenodd"/><text font-family="Cambria Math,Cambria Math_MSFontService,sans-serif" font-weight="400" font-size="37" transform="translate(685.628 389)">𝑔<tspan font-size="27" x="21.56" y="8">𝑖</tspan><tspan font-size="37" x="41.8267" y="0">−</tspan><tspan font-size="37" x="73.8066" y="0"> </tspan><tspan font-size="37" x="86.12" y="0">𝑝𝑜𝑠</tspan><tspan font-size="27" x="143.04" y="8">𝑖</tspan></text></g></svg>