<svg width="1280" height="720" xmlns="http://www.w3.org/2000/svg" xmlns:xlink="http://www.w3.org/1999/xlink" overflow="hidden"><defs><clipPath id="clip0"><rect x="0" y="0" width="1280" height="720"/></clipPath></defs><g clip-path="url(#clip0)"><rect x="0" y="0" width="1280" height="720" fill="#FFFFFF"/><text font-family="Cambria Math,Cambria Math_MSFontService,sans-serif" font-weight="400" font-size="37" transform="translate(482.084 389)">𝑐𝑖𝑛𝑒𝑟𝑐𝑖𝑎<tspan font-size="37" x="145.873" y="0">∗</tspan><tspan font-size="37" x="172.167" y="0">𝑣</tspan><tspan font-size="27" x="192.133" y="8">𝑖</tspan></text><path d="M783.525 361.402C787.042 362.329 789.743 364.332 791.628 367.409 793.513 370.486 794.455 374.199 794.455 378.547 794.455 382.907 793.516 386.619 791.637 389.685 789.758 392.75 787.054 394.746 783.525 395.674L783.091 394.283C785.874 393.355 787.942 391.525 789.297 388.79 790.652 386.056 791.33 382.582 791.33 378.366 791.33 374.295 790.655 370.914 789.306 368.222 787.957 365.53 785.867 363.72 783.037 362.793ZM700.373 361.402 700.86 362.793C698.042 363.72 695.955 365.53 694.6 368.222 693.245 370.914 692.568 374.295 692.568 378.366 692.568 382.582 693.245 386.056 694.6 388.79 695.955 391.525 698.024 393.355 700.806 394.283L700.373 395.674C696.844 394.746 694.14 392.75 692.261 389.685 690.382 386.619 689.443 382.907 689.443 378.547 689.443 374.199 690.385 370.486 692.27 367.409 694.155 364.332 696.856 362.329 700.373 361.402Z" fill-rule="evenodd"/><text font-family="Cambria Math,Cambria Math_MSFontService,sans-serif" font-weight="400" font-size="37" transform="translate(701.684 389)">𝑡<tspan font-size="37" x="23.8734" y="0">−</tspan><tspan font-size="37" x="60" y="0">1</tspan></text></g></svg>