<svg width="1280" height="720" xmlns="http://www.w3.org/2000/svg" xmlns:xlink="http://www.w3.org/1999/xlink" overflow="hidden"><defs><clipPath id="clip0"><rect x="0" y="0" width="1280" height="720"/></clipPath></defs><g clip-path="url(#clip0)"><rect x="0" y="0" width="1280" height="720" fill="#FFFFFF"/><text font-family="Cambria Math,Cambria Math_MSFontService,sans-serif" font-weight="400" font-size="27" transform="translate(72.7543 362)">𝑣<tspan font-size="20" x="14.24" y="6">𝑖</tspan></text><path d="M118.678 341.917C121.244 342.594 123.215 344.055 124.591 346.301 125.966 348.547 126.654 351.256 126.654 354.429 126.654 357.61 125.968 360.32 124.597 362.556 123.226 364.793 121.253 366.25 118.678 366.927L118.362 365.912C120.392 365.235 121.901 363.899 122.89 361.904 123.879 359.909 124.373 357.373 124.373 354.297 124.373 351.326 123.881 348.859 122.897 346.894 121.912 344.93 120.387 343.609 118.322 342.933ZM105.95 341.917 106.306 342.933C104.249 343.609 102.727 344.93 101.738 346.894 100.749 348.859 100.255 351.326 100.255 354.297 100.255 357.373 100.749 359.909 101.738 361.904 102.727 363.899 104.236 365.235 106.267 365.912L105.95 366.927C103.375 366.25 101.402 364.793 100.031 362.556 98.6596 360.32 97.974 357.61 97.974 354.429 97.974 351.256 98.6618 348.547 100.037 346.301 101.413 344.055 103.384 342.594 105.95 341.917Z" fill-rule="evenodd"/><text font-family="Cambria Math,Cambria Math_MSFontService,sans-serif" font-weight="400" font-size="27" transform="translate(106.668 362)">𝑡<tspan font-size="27" x="29.6267" y="0">=</tspan><tspan font-size="27" x="57.0333" y="0">𝑐𝑖𝑛𝑒𝑟𝑐𝑖𝑎</tspan><tspan font-size="27" x="161.28" y="0">∗</tspan><tspan font-size="27" x="180.04" y="0">𝑣</tspan><tspan font-size="20" x="194.28" y="6">𝑖</tspan></text><path d="M379.318 341.917C381.884 342.594 383.855 344.055 385.231 346.301 386.606 348.547 387.294 351.256 387.294 354.429 387.294 357.61 386.608 360.32 385.237 362.556 383.866 364.793 381.893 366.25 379.318 366.927L379.002 365.912C381.032 365.235 382.541 363.899 383.53 361.904 384.519 359.909 385.013 357.373 385.013 354.297 385.013 351.326 384.521 348.859 383.537 346.894 382.552 344.93 381.027 343.609 378.962 342.933ZM319.903 341.917 320.259 342.933C318.203 343.609 316.68 344.93 315.691 346.894 314.703 348.859 314.208 351.326 314.208 354.297 314.208 357.373 314.703 359.909 315.691 361.904 316.68 363.899 318.19 365.235 320.22 365.912L319.903 366.927C317.328 366.25 315.355 364.793 313.984 362.556 312.613 360.32 311.927 357.61 311.927 354.429 311.927 351.256 312.615 348.547 313.991 346.301 315.366 344.055 317.337 342.594 319.903 341.917Z" fill-rule="evenodd"/><text font-family="Cambria Math,Cambria Math_MSFontService,sans-serif" font-weight="400" font-size="27" transform="translate(320.621 362)">𝑡<tspan font-size="27" x="17.08" y="0">−</tspan><tspan font-size="27" x="43.0067" y="0">1</tspan><tspan font-size="27" x="74.8333" y="0">+</tspan><tspan font-size="27" x="100.76" y="0">𝑐𝑐𝑜𝑔𝑛𝑖𝑡𝑖𝑣𝑜</tspan><tspan font-size="27" x="233.94" y="0">∗</tspan><tspan font-size="27" x="252.7" y="0">𝑟𝑑1</tspan><tspan font-size="27" x="301.627" y="0">∗</tspan></text><path d="M803.525 341.917C806.091 342.594 808.062 344.055 809.437 346.301 810.813 348.547 811.501 351.256 811.501 354.429 811.501 357.61 810.815 360.32 809.444 362.556 808.073 364.793 806.1 366.25 803.525 366.927L803.208 365.912C805.238 365.235 806.748 363.899 807.737 361.904 808.726 359.909 809.22 357.373 809.22 354.297 809.22 351.326 808.728 348.859 807.743 346.894 806.759 344.93 805.234 343.609 803.169 342.933ZM651.357 341.917 651.713 342.933C649.656 343.609 648.133 344.93 647.145 346.894 646.156 348.859 645.661 351.326 645.661 354.297 645.661 357.373 646.156 359.909 647.145 361.904 648.133 363.899 649.643 365.235 651.673 365.912L651.357 366.927C648.782 366.25 646.808 364.793 645.437 362.556 644.066 360.32 643.381 357.61 643.381 354.429 643.381 351.256 644.068 348.547 645.444 346.301 646.819 344.055 648.79 342.594 651.357 341.917Z" fill-rule="evenodd"/><text font-family="Cambria Math,Cambria Math_MSFontService,sans-serif" font-weight="400" font-size="27" transform="translate(652.074 362)">𝑏𝑝𝑜𝑠<tspan font-size="20" x="55.0134" y="6">𝑖</tspan><tspan font-size="27" x="69.5467" y="0">−</tspan><tspan font-size="27" x="92.5067" y="0"> </tspan><tspan font-size="27" x="101.307" y="0">𝑝𝑜𝑠</tspan><tspan font-size="20" x="141.987" y="6">𝑖</tspan><tspan font-size="27" x="167.587" y="0">+</tspan><tspan font-size="27" x="193.513" y="0">𝑐𝑠𝑜𝑐𝑖𝑎𝑙</tspan><tspan font-size="27" x="283.287" y="0">∗</tspan><tspan font-size="27" x="302.047" y="0">𝑟𝑑</tspan><tspan font-size="27" x="330.213" y="0">2</tspan><tspan font-size="27" x="350.973" y="0">∗</tspan></text><path d="M1144.73 341.917C1147.3 342.594 1149.27 344.055 1150.64 346.301 1152.02 348.547 1152.71 351.256 1152.71 354.429 1152.71 357.61 1152.02 360.32 1150.65 362.556 1149.28 364.793 1147.31 366.25 1144.73 366.927L1144.41 365.912C1146.45 365.235 1147.95 363.899 1148.94 361.904 1149.93 359.909 1150.43 357.373 1150.43 354.297 1150.43 351.326 1149.93 348.859 1148.95 346.894 1147.97 344.93 1146.44 343.609 1144.38 342.933ZM1032.16 341.917 1032.51 342.933C1030.46 343.609 1028.93 344.93 1027.94 346.894 1026.96 348.859 1026.46 351.326 1026.46 354.297 1026.46 357.373 1026.96 359.909 1027.94 361.904 1028.93 363.899 1030.44 365.235 1032.47 365.912L1032.16 366.927C1029.58 366.25 1027.61 364.793 1026.24 362.556 1024.87 360.32 1024.18 357.61 1024.18 354.429 1024.18 351.256 1024.87 348.547 1026.24 346.301 1027.62 344.055 1029.59 342.594 1032.16 341.917Z" fill-rule="evenodd"/><text font-family="Cambria Math,Cambria Math_MSFontService,sans-serif" font-weight="400" font-size="27" transform="translate(1032.87 362)">𝑔<tspan font-size="20" x="15.4199" y="6">𝑖</tspan><tspan font-size="27" x="29.9532" y="0">−</tspan><tspan font-size="27" x="52.9133" y="0"> </tspan><tspan font-size="27" x="61.7133" y="0">𝑝𝑜𝑠</tspan><tspan font-size="20" x="102.393" y="6">𝑖</tspan></text></g></svg>