<svg width="1280" height="720" xmlns="http://www.w3.org/2000/svg" xmlns:xlink="http://www.w3.org/1999/xlink" overflow="hidden"><defs><clipPath id="clip0"><rect x="0" y="0" width="1280" height="720"/></clipPath></defs><g clip-path="url(#clip0)"><rect x="0" y="0" width="1280" height="720" fill="#FFFFFF"/><text font-family="Cambria Math,Cambria Math_MSFontService,sans-serif" font-weight="400" font-size="37" transform="translate(365.634 389)">𝑐𝑐𝑜𝑔𝑛𝑖𝑡𝑖𝑣𝑜<tspan font-size="37" x="186.113" y="0">∗</tspan><tspan font-size="37" x="212.407" y="0">𝑟𝑑1</tspan><tspan font-size="37" x="280.867" y="0">∗</tspan></text><path d="M900.002 361.402C903.519 362.329 906.22 364.332 908.104 367.409 909.99 370.486 910.932 374.199 910.932 378.547 910.932 382.907 909.992 386.619 908.114 389.685 906.235 392.75 903.531 394.746 900.002 395.674L899.568 394.283C902.35 393.355 904.419 391.525 905.774 388.79 907.129 386.056 907.806 382.582 907.806 378.366 907.806 374.295 907.132 370.914 905.783 368.222 904.434 365.53 902.344 363.72 899.514 362.793ZM686.976 361.402 687.464 362.793C684.646 363.72 682.559 365.53 681.204 368.222 679.849 370.914 679.172 374.295 679.172 378.366 679.172 382.582 679.849 386.056 681.204 388.79 682.559 391.525 684.628 393.355 687.41 394.283L686.976 395.674C683.447 394.746 680.743 392.75 678.864 389.685 676.985 386.619 676.046 382.907 676.046 378.547 676.046 374.199 676.989 370.486 678.873 367.409 680.758 364.332 683.459 362.329 686.976 361.402Z" fill-rule="evenodd"/><text font-family="Cambria Math,Cambria Math_MSFontService,sans-serif" font-weight="400" font-size="37" transform="translate(688.287 389)">𝑏𝑝𝑜𝑠<tspan font-size="27" x="77.0867" y="8">𝑖</tspan><tspan font-size="37" x="97.3533" y="0">−</tspan><tspan font-size="37" x="129.333" y="0"> </tspan><tspan font-size="37" x="141.647" y="0">𝑝𝑜𝑠</tspan><tspan font-size="27" x="198.567" y="8">𝑖</tspan></text></g></svg>