<svg width="1280" height="720" xmlns="http://www.w3.org/2000/svg" xmlns:xlink="http://www.w3.org/1999/xlink" overflow="hidden"><defs><clipPath id="clip0"><rect x="0" y="0" width="1280" height="720"/></clipPath></defs><g clip-path="url(#clip0)"><rect x="0" y="0" width="1280" height="720" fill="#FFFFFF"/><path d="M409.824 364.021C410.504 364.021 410.995 364.198 411.297 364.552 411.599 364.906 411.75 365.38 411.75 365.975 411.75 366.428 411.67 366.947 411.509 367.532 411.349 368.118 411.122 368.736 410.829 369.387 410.537 370.039 410.188 370.707 409.782 371.391 409.376 372.075 408.927 372.741 408.436 373.388 407.945 374.034 407.422 374.643 406.865 375.214 406.308 375.785 405.729 376.283 405.13 376.708 404.531 377.133 403.922 377.47 403.303 377.721 402.685 377.971 402.069 378.096 401.455 378.096 401.182 378.096 400.953 378.027 400.769 377.891 400.585 377.754 400.436 377.56 400.323 377.31 400.209 377.06 400.129 376.765 400.082 376.425 400.035 376.085 400.011 375.712 400.011 375.306 400.011 374.768 400.044 374.192 400.11 373.579 400.176 372.965 400.261 372.347 400.365 371.724L400.96 367.801C400.998 367.575 401.028 367.36 401.052 367.157 401.075 366.954 401.087 366.805 401.087 366.711 401.087 366.418 401.04 366.178 400.946 365.989 400.851 365.8 400.691 365.706 400.464 365.706 400.285 365.706 400.091 365.76 399.884 365.869 399.676 365.977 399.466 366.116 399.254 366.286 399.041 366.456 398.836 366.638 398.638 366.831 398.439 367.025 398.255 367.207 398.085 367.377L397.406 366.584C397.698 366.282 398.01 365.982 398.34 365.684 398.671 365.387 399.02 365.118 399.388 364.877 399.756 364.637 400.143 364.443 400.549 364.297 400.955 364.15 401.37 364.077 401.795 364.077 402.154 364.077 402.447 364.136 402.673 364.254 402.9 364.372 403.077 364.528 403.204 364.722 403.332 364.915 403.419 365.128 403.466 365.359 403.513 365.59 403.537 365.819 403.537 366.046 403.537 366.178 403.532 366.305 403.523 366.428 403.513 366.551 403.499 366.664 403.48 366.768L402.687 371.894C402.602 372.432 402.532 372.958 402.475 373.473 402.418 373.987 402.39 374.443 402.39 374.839 402.39 375.236 402.414 375.556 402.461 375.802 402.508 376.047 402.598 376.17 402.73 376.17 403.041 376.17 403.433 376.045 403.905 375.795 404.377 375.545 404.873 375.2 405.392 374.761 405.911 374.322 406.43 373.803 406.95 373.204 407.469 372.604 407.936 371.955 408.351 371.257 408.767 370.558 409.104 369.822 409.364 369.048 409.623 368.273 409.753 367.495 409.753 366.711 409.753 366.371 409.68 366.109 409.534 365.925 409.387 365.741 409.159 365.649 408.847 365.649 408.451 365.649 408.085 365.802 407.75 366.109 407.414 366.416 407.068 366.82 406.709 367.32L405.902 366.598C406.128 366.258 406.395 365.932 406.702 365.621 407.009 365.309 407.334 365.035 407.679 364.799 408.023 364.563 408.38 364.375 408.748 364.233 409.116 364.091 409.475 364.021 409.824 364.021Z" fill-rule="evenodd"/><text fill="#000000" fill-opacity="0" font-family="Arial,Arial_MSFontService,sans-serif" font-size="14.0752" x="397.406" y="376.336">ğ‘£</text><path d="M417.05 373.475 417.552 373.475 416.034 380.304C415.939 380.708 415.872 381.029 415.835 381.268 415.797 381.507 415.778 381.723 415.778 381.914 415.778 382.174 415.831 382.362 415.937 382.478 416.043 382.594 416.202 382.652 416.414 382.652 416.537 382.652 416.66 382.628 416.783 382.581 416.906 382.533 417.038 382.458 417.178 382.355 417.318 382.252 417.472 382.121 417.639 381.96 417.807 381.8 417.993 381.606 418.198 381.381L418.895 382.058C418.54 382.42 418.217 382.726 417.926 382.975 417.636 383.225 417.361 383.428 417.101 383.585 416.841 383.743 416.586 383.855 416.337 383.924 416.087 383.992 415.823 384.026 415.542 384.026 415.283 384.026 415.048 383.979 414.84 383.883 414.631 383.787 414.452 383.656 414.302 383.488 414.151 383.321 414.035 383.121 413.953 382.888 413.871 382.656 413.83 382.399 413.83 382.119 413.83 381.894 413.857 381.613 413.912 381.278 413.967 380.943 414.037 380.579 414.122 380.186 414.208 379.793 414.302 379.381 414.404 378.951 414.507 378.52 414.607 378.093 414.707 377.669 414.806 377.245 414.895 376.837 414.973 376.444 415.052 376.051 415.108 375.693 415.142 375.372 415.156 375.317 415.163 375.264 415.163 375.213 415.163 375.162 415.163 375.116 415.163 375.075 415.149 374.808 415.055 374.613 414.881 374.49 414.707 374.367 414.397 374.299 413.953 374.285L414.076 373.588ZM416.455 369.343 418.506 369.343 418.003 371.547 415.973 371.547Z" fill-rule="evenodd"/><text fill="#000000" fill-opacity="0" font-family="Arial,Arial_MSFontService,sans-serif" font-size="14.6836" x="413.83" y="382.191">ğ‘–</text><path d="M446.888 356.12C449.645 356.847 451.762 358.417 453.239 360.829 454.716 363.241 455.455 366.15 455.455 369.558 455.455 372.976 454.719 375.886 453.246 378.288 451.773 380.691 449.654 382.255 446.888 382.982L446.548 381.892C448.729 381.165 450.35 379.73 451.412 377.587 452.474 375.444 453.005 372.721 453.005 369.417 453.005 366.226 452.477 363.576 451.419 361.466 450.362 359.356 448.724 357.938 446.506 357.211ZM432.697 356.12 433.079 357.211C430.87 357.938 429.235 359.356 428.173 361.466 427.111 363.576 426.58 366.226 426.58 369.417 426.58 372.721 427.111 375.444 428.173 377.587 429.235 379.73 430.856 381.165 433.037 381.892L432.697 382.982C429.931 382.255 427.812 380.691 426.339 378.288 424.866 375.886 424.13 372.976 424.13 369.558 424.13 366.15 424.869 363.241 426.346 360.829 427.823 358.417 429.94 356.847 432.697 356.12Z" fill-rule="evenodd"/><path d="M439.291 360.82 441.245 360.82 440.466 364.318 444.771 364.318 444.459 365.748 440.155 365.748 438.895 371.242C438.649 372.309 438.493 373.076 438.427 373.543 438.361 374.011 438.328 374.386 438.328 374.669 438.328 375.84 438.814 376.425 439.787 376.425 440.202 376.425 440.643 376.267 441.111 375.951 441.578 375.634 442.132 375.094 442.774 374.329L443.596 375.179C442.774 376.17 441.984 376.902 441.224 377.374 440.464 377.846 439.669 378.082 438.838 378.082 436.865 378.082 435.878 377.086 435.878 375.094 435.878 374.461 435.959 373.796 436.119 373.097L437.79 365.748 435.411 365.748 435.624 364.771C436.181 364.762 436.603 364.719 436.891 364.644 437.179 364.568 437.42 364.464 437.613 364.332 437.807 364.2 437.984 364.011 438.144 363.766 438.305 363.52 438.46 363.206 438.611 362.824 438.762 362.442 438.989 361.774 439.291 360.82Z" fill-rule="evenodd"/><text fill="#000000" fill-opacity="0" font-family="Arial,Arial_MSFontService,sans-serif" font-size="17.2612" x="435.411" y="375.924">ğ‘¡</text><path d="M468.398 371.568 485.843 371.568 485.843 373.451 468.398 373.451ZM468.398 365.692 485.843 365.692 485.843 367.575 468.398 367.575Z" fill-rule="evenodd"/><text fill="#000000" fill-opacity="0" font-family="Arial,Arial_MSFontService,sans-serif" font-size="7.75977" x="468.398" y="372.481">=</text><path d="M513.996 307.267 513.996 308.754C511.325 309.528 509.184 311.859 507.575 315.749 505.965 319.638 505.16 324.773 505.16 331.155 505.16 334.393 505.486 338.556 506.137 343.644 506.789 348.732 507.114 352.154 507.114 353.91 507.114 357.715 506.56 361.023 505.451 363.837 504.341 366.65 502.833 368.495 500.926 369.373L500.926 369.77C502.833 370.648 504.341 372.493 505.451 375.306 506.56 378.119 507.114 381.428 507.114 385.233 507.114 386.988 506.789 390.41 506.137 395.499 505.486 400.587 505.16 404.75 505.16 407.988 505.16 414.369 505.965 419.505 507.575 423.394 509.184 427.284 511.325 429.615 513.996 430.389L513.996 431.876C510.815 431.347 508.018 428.884 505.606 424.485 503.194 420.085 501.988 414.086 501.988 406.487 501.988 403.721 502.345 399.683 503.058 394.373 503.77 389.063 504.127 385.247 504.127 382.924 504.127 378.761 503.572 375.648 502.463 373.586 501.354 371.523 499.808 370.454 497.825 370.379L497.825 368.764C499.808 368.689 501.354 367.62 502.463 365.557 503.572 363.494 504.127 360.382 504.127 356.218 504.127 353.896 503.77 350.08 503.058 344.77 502.345 339.46 501.988 335.422 501.988 332.656 501.988 325.057 503.194 319.057 505.606 314.658 508.018 310.259 510.815 307.795 513.996 307.267Z" fill-rule="evenodd"/><text fill="#000000" fill-opacity="0" font-family="Arial,Arial_MSFontService,sans-serif" font-size="124.609" x="497.825" y="416.3">àµ</text><path d="M597.18 320.093C598.247 320.093 599.181 320.258 599.984 320.589 600.786 320.919 601.4 321.394 601.824 322.012 602.249 322.63 602.462 323.369 602.462 324.228 602.462 325.03 602.301 325.736 601.98 326.345 601.659 326.954 601.208 327.485 600.628 327.938 600.047 328.391 599.294 328.835 598.369 329.269L598.369 329.396C598.945 329.5 599.5 329.677 600.033 329.927 600.566 330.178 601.041 330.501 601.456 330.897 601.872 331.294 602.204 331.768 602.454 332.321 602.705 332.873 602.83 333.503 602.83 334.211 602.83 335.306 602.591 336.278 602.115 337.128 601.638 337.978 600.909 338.648 599.927 339.139 598.945 339.63 597.751 339.875 596.344 339.875 595.533 339.875 594.657 339.783 593.718 339.599 592.778 339.415 591.917 339.172 591.133 338.87L591.133 335.868 592.833 335.868C593.163 336.849 593.6 337.562 594.142 338.006 594.685 338.45 595.424 338.671 596.359 338.671 597.586 338.671 598.513 338.336 599.141 337.666 599.769 336.996 600.083 336.005 600.083 334.692 600.083 333.314 599.667 332.262 598.837 331.535 598.006 330.808 596.788 330.444 595.183 330.444L593.909 330.444 593.909 329.198C595.183 329.123 596.257 328.877 597.13 328.462 598.003 328.047 598.652 327.513 599.077 326.862 599.502 326.21 599.714 325.479 599.714 324.667 599.714 323.619 599.436 322.812 598.879 322.246 598.322 321.679 597.51 321.396 596.443 321.396 595.556 321.396 594.834 321.637 594.277 322.118 593.72 322.6 593.309 323.336 593.045 324.327L591.346 324.327 591.346 321.637C592.441 321.118 593.465 320.73 594.419 320.476 595.372 320.221 596.292 320.093 597.18 320.093Z" fill-rule="evenodd"/><text fill="#000000" fill-opacity="0" font-family="Arial,Arial_MSFontService,sans-serif" font-size="19.7817" x="591.133" y="337.402">3</text><path d="M606.805 336.363 609.665 336.363 609.665 339.648 606.805 339.648Z" fill-rule="evenodd"/><text fill="#000000" fill-opacity="0" font-family="Arial,Arial_MSFontService,sans-serif" font-size="3.28516" x="606.805" y="339.238">.</text><path d="M619.29 321.297C618.638 321.297 618.093 321.49 617.654 321.877 617.215 322.264 616.861 322.821 616.592 323.548 616.323 324.275 616.132 325.16 616.019 326.203 615.906 327.246 615.849 328.424 615.849 329.736 615.849 332.814 616.135 335.072 616.706 336.512 617.277 337.952 618.162 338.671 619.361 338.671 620.503 338.671 621.35 337.994 621.902 336.639 622.455 335.285 622.731 333.187 622.731 330.345 622.731 328.174 622.589 326.416 622.306 325.071 622.023 323.725 621.629 322.76 621.124 322.175 620.619 321.59 620.007 321.297 619.29 321.297ZM619.361 320.093C621.428 320.093 622.967 320.891 623.977 322.486 624.987 324.082 625.492 326.494 625.492 329.722 625.492 333.064 624.952 335.592 623.871 337.305 622.79 339.018 621.211 339.875 619.134 339.875 617.095 339.875 615.578 339.073 614.582 337.468 613.586 335.863 613.088 333.427 613.088 330.161 613.088 328.424 613.241 326.923 613.548 325.658 613.855 324.393 614.284 323.348 614.836 322.522 615.389 321.696 616.052 321.084 616.826 320.688 617.6 320.292 618.445 320.093 619.361 320.093Z" fill-rule="evenodd"/><text fill="#000000" fill-opacity="0" font-family="Arial,Arial_MSFontService,sans-serif" font-size="19.7817" x="613.088" y="337.402">0</text><path d="M629.325 336.363 631.803 336.363C631.935 337.024 632.001 337.675 632.001 338.317 632.001 338.978 631.888 339.582 631.662 340.13 631.435 340.677 631.074 341.223 630.578 341.765 630.083 342.308 629.401 342.905 628.532 343.557L627.768 342.693C628.249 342.24 628.598 341.831 628.815 341.468 629.033 341.105 629.188 340.692 629.283 340.229 629.377 339.766 629.424 339.186 629.424 338.487 629.424 337.77 629.391 337.062 629.325 336.363Z" fill-rule="evenodd"/><text fill="#000000" fill-opacity="0" font-family="Arial,Arial_MSFontService,sans-serif" font-size="7.19336" x="627.768" y="342.657">,</text><path d="M644.191 325.984 645.026 325.984 642.987 335.075C642.78 336 642.676 336.698 642.676 337.17 642.676 337.548 642.737 337.822 642.86 337.992 642.983 338.162 643.176 338.247 643.44 338.247 643.724 338.247 644.026 338.131 644.347 337.9 644.668 337.668 645.121 337.227 645.706 336.576L646.513 337.369C645.588 338.341 644.838 339.002 644.262 339.351 643.686 339.7 643.039 339.875 642.322 339.875 641.708 339.875 641.217 339.651 640.849 339.202 640.481 338.754 640.297 338.181 640.297 337.482 640.297 336.764 640.429 335.849 640.693 334.735L641.755 330.104C641.972 329.16 642.081 328.452 642.081 327.98 642.081 327.556 641.979 327.268 641.777 327.117 641.574 326.966 641.175 326.881 640.58 326.862L640.736 326.111ZM643.809 320.561 646.315 320.561 645.664 323.308 643.157 323.308ZM660.653 319.314C661.578 319.314 662.376 319.39 663.046 319.541L662.494 321.948 661.248 321.948C661.116 321.41 660.944 321.023 660.731 320.787 660.519 320.551 660.205 320.433 659.789 320.433 659.251 320.433 658.796 320.582 658.423 320.879 658.05 321.177 657.732 321.618 657.467 322.203 657.203 322.788 656.957 323.577 656.731 324.568L656.377 326.111 660.016 326.111 659.705 327.542 656.051 327.542 653.417 339.889C652.983 341.938 652.318 343.465 651.421 344.47 650.524 345.475 649.396 345.978 648.037 345.978 647.64 345.978 647.329 345.954 647.102 345.907L647.343 344.661C647.437 344.689 647.659 344.704 648.008 344.704 648.433 344.704 648.797 344.595 649.099 344.378 649.401 344.161 649.682 343.783 649.941 343.245 650.201 342.707 650.439 341.961 650.656 341.008L653.701 327.542 651.308 327.542 651.52 326.564C652.152 326.527 652.608 326.475 652.886 326.409 653.165 326.343 653.382 326.243 653.538 326.111 653.694 325.979 653.826 325.807 653.934 325.594 654.043 325.382 654.182 324.993 654.352 324.426 654.852 322.727 655.624 321.45 656.667 320.596 657.71 319.742 659.039 319.314 660.653 319.314Z" fill-rule="evenodd"/><text fill="#000000" fill-opacity="0" font-family="Arial,Arial_MSFontService,sans-serif" font-size="26.6636" x="640.297" y="342.645">ğ‘–ğ‘“</text><path d="M684.584 325.814C685.264 325.814 685.755 325.991 686.057 326.345 686.359 326.699 686.51 327.173 686.51 327.768 686.51 328.221 686.43 328.74 686.269 329.326 686.109 329.911 685.882 330.529 685.589 331.181 685.297 331.832 684.948 332.5 684.542 333.184 684.136 333.869 683.687 334.534 683.196 335.181 682.705 335.828 682.182 336.436 681.625 337.008 681.068 337.579 680.489 338.077 679.89 338.501 679.291 338.926 678.682 339.264 678.063 339.514 677.445 339.764 676.829 339.889 676.215 339.889 675.942 339.889 675.713 339.821 675.529 339.684 675.345 339.547 675.196 339.353 675.083 339.103 674.969 338.853 674.889 338.558 674.842 338.218 674.795 337.878 674.771 337.506 674.771 337.1 674.771 336.562 674.804 335.986 674.87 335.372 674.936 334.758 675.021 334.14 675.125 333.517L675.72 329.595C675.758 329.368 675.788 329.153 675.812 328.95 675.835 328.747 675.847 328.599 675.847 328.504 675.847 328.212 675.8 327.971 675.706 327.782 675.611 327.593 675.451 327.499 675.224 327.499 675.045 327.499 674.851 327.553 674.644 327.662 674.436 327.77 674.226 327.91 674.013 328.08 673.801 328.25 673.596 328.431 673.398 328.625 673.199 328.818 673.015 329 672.845 329.17L672.166 328.377C672.458 328.075 672.77 327.775 673.1 327.478 673.431 327.18 673.78 326.911 674.148 326.671 674.516 326.43 674.903 326.236 675.309 326.09 675.715 325.944 676.13 325.871 676.555 325.871 676.914 325.871 677.207 325.93 677.433 326.048 677.66 326.166 677.837 326.321 677.964 326.515 678.092 326.708 678.179 326.921 678.226 327.152 678.273 327.383 678.297 327.612 678.297 327.839 678.297 327.971 678.292 328.098 678.283 328.221 678.273 328.344 678.259 328.457 678.24 328.561L677.447 333.687C677.362 334.225 677.292 334.751 677.235 335.266 677.178 335.78 677.15 336.236 677.15 336.632 677.15 337.029 677.174 337.35 677.221 337.595 677.268 337.841 677.358 337.963 677.49 337.963 677.801 337.963 678.193 337.838 678.665 337.588 679.137 337.338 679.633 336.993 680.152 336.554 680.671 336.115 681.19 335.596 681.71 334.997 682.229 334.397 682.696 333.748 683.111 333.05 683.527 332.351 683.864 331.615 684.124 330.841 684.383 330.067 684.513 329.288 684.513 328.504 684.513 328.165 684.44 327.903 684.294 327.719 684.147 327.534 683.919 327.442 683.607 327.442 683.211 327.442 682.845 327.596 682.51 327.903 682.174 328.209 681.828 328.613 681.469 329.113L680.662 328.391C680.888 328.051 681.155 327.726 681.462 327.414 681.769 327.103 682.094 326.829 682.439 326.593 682.783 326.357 683.14 326.168 683.508 326.026 683.876 325.885 684.235 325.814 684.584 325.814Z" fill-rule="evenodd"/><text fill="#000000" fill-opacity="0" font-family="Arial,Arial_MSFontService,sans-serif" font-size="14.0752" x="672.166" y="338.13">ğ‘£</text><path d="M691.81 335.268 692.312 335.268 690.794 342.098C690.699 342.501 690.632 342.822 690.594 343.061 690.557 343.301 690.538 343.516 690.538 343.707 690.538 343.967 690.591 344.155 690.697 344.271 690.803 344.388 690.962 344.446 691.174 344.446 691.297 344.446 691.42 344.422 691.543 344.374 691.666 344.326 691.798 344.251 691.938 344.148 692.078 344.046 692.232 343.914 692.399 343.754 692.567 343.593 692.753 343.4 692.958 343.174L693.655 343.851C693.3 344.213 692.977 344.519 692.686 344.769 692.396 345.018 692.121 345.222 691.861 345.379 691.601 345.536 691.346 345.649 691.097 345.717 690.847 345.786 690.583 345.82 690.302 345.82 690.042 345.82 689.808 345.772 689.6 345.676 689.391 345.58 689.212 345.449 689.062 345.281 688.911 345.114 688.795 344.914 688.713 344.682 688.631 344.449 688.59 344.193 688.59 343.912 688.59 343.687 688.617 343.407 688.672 343.072 688.727 342.737 688.797 342.373 688.882 341.98 688.968 341.587 689.062 341.175 689.164 340.744 689.267 340.313 689.367 339.886 689.467 339.462 689.566 339.038 689.655 338.63 689.733 338.237 689.812 337.844 689.868 337.487 689.902 337.165 689.916 337.111 689.923 337.058 689.923 337.006 689.923 336.955 689.923 336.909 689.923 336.868 689.909 336.601 689.815 336.407 689.641 336.284 689.467 336.161 689.157 336.092 688.713 336.078L688.836 335.381ZM691.215 331.136 693.266 331.136 692.763 333.341 690.733 333.341Z" fill-rule="evenodd"/><text fill="#000000" fill-opacity="0" font-family="Arial,Arial_MSFontService,sans-serif" font-size="14.6836" x="688.59" y="343.984">ğ‘–</text><path d="M721.648 317.914C724.405 318.641 726.522 320.21 727.999 322.622 729.476 325.034 730.215 327.944 730.215 331.352 730.215 334.769 729.479 337.679 728.006 340.081 726.533 342.484 724.414 344.049 721.648 344.776L721.308 343.685C723.489 342.958 725.11 341.523 726.172 339.38 727.234 337.238 727.765 334.514 727.765 331.21 727.765 328.019 727.237 325.369 726.179 323.259 725.122 321.149 723.484 319.731 721.266 319.004ZM707.457 317.914 707.839 319.004C705.63 319.731 703.995 321.149 702.933 323.259 701.871 325.369 701.34 328.019 701.34 331.21 701.34 334.514 701.871 337.238 702.933 339.38 703.995 341.523 705.616 342.958 707.797 343.685L707.457 344.776C704.691 344.049 702.572 342.484 701.099 340.081 699.626 337.679 698.89 334.769 698.89 331.352 698.89 327.944 699.629 325.034 701.106 322.622 702.583 320.21 704.7 318.641 707.457 317.914Z" fill-rule="evenodd"/><path d="M714.051 322.614 716.005 322.614 715.226 326.111 719.531 326.111 719.219 327.542 714.915 327.542 713.655 333.036C713.409 334.102 713.253 334.869 713.187 335.337 713.121 335.804 713.088 336.179 713.088 336.462 713.088 337.633 713.574 338.218 714.547 338.218 714.962 338.218 715.403 338.06 715.871 337.744 716.338 337.428 716.893 336.887 717.534 336.123L718.356 336.972C717.534 337.963 716.744 338.695 715.984 339.167 715.224 339.639 714.429 339.875 713.598 339.875 711.625 339.875 710.638 338.879 710.638 336.887 710.638 336.255 710.719 335.589 710.879 334.891L712.55 327.542 710.171 327.542 710.384 326.564C710.94 326.555 711.363 326.513 711.651 326.437 711.939 326.361 712.18 326.258 712.373 326.125 712.567 325.993 712.744 325.805 712.904 325.559 713.065 325.314 713.22 325 713.371 324.617 713.522 324.235 713.749 323.567 714.051 322.614Z" fill-rule="evenodd"/><text fill="#000000" fill-opacity="0" font-family="Arial,Arial_MSFontService,sans-serif" font-size="17.2612" x="710.171" y="337.717">ğ‘¡</text><path d="M743.158 322.571 760.66 330.374 760.66 332.356 743.158 340.158 743.158 338.034 758.536 331.365 743.158 324.695Z" fill-rule="evenodd"/><text fill="#000000" fill-opacity="0" font-family="Arial,Arial_MSFontService,sans-serif" font-size="17.5869" x="743.158" y="337.96">&gt;</text><path d="M779.28 320.093C780.347 320.093 781.281 320.258 782.084 320.589 782.886 320.919 783.5 321.394 783.924 322.012 784.349 322.63 784.562 323.369 784.562 324.228 784.562 325.03 784.401 325.736 784.08 326.345 783.759 326.954 783.308 327.485 782.728 327.938 782.147 328.391 781.394 328.835 780.469 329.269L780.469 329.396C781.045 329.5 781.6 329.677 782.133 329.927 782.667 330.178 783.141 330.501 783.556 330.897 783.972 331.294 784.304 331.768 784.555 332.321 784.805 332.873 784.93 333.503 784.93 334.211 784.93 335.306 784.691 336.278 784.215 337.128 783.738 337.978 783.009 338.648 782.027 339.139 781.045 339.63 779.851 339.875 778.444 339.875 777.633 339.875 776.757 339.783 775.818 339.599 774.878 339.415 774.017 339.172 773.233 338.87L773.233 335.868 774.933 335.868C775.263 336.849 775.7 337.562 776.242 338.006 776.785 338.45 777.524 338.671 778.459 338.671 779.686 338.671 780.613 338.336 781.241 337.666 781.869 336.996 782.183 336.005 782.183 334.692 782.183 333.314 781.767 332.262 780.937 331.535 780.106 330.808 778.888 330.444 777.283 330.444L776.009 330.444 776.009 329.198C777.283 329.123 778.357 328.877 779.23 328.462 780.104 328.047 780.753 327.513 781.177 326.862 781.602 326.21 781.815 325.479 781.815 324.667 781.815 323.619 781.536 322.812 780.979 322.246 780.422 321.679 779.61 321.396 778.544 321.396 777.656 321.396 776.934 321.637 776.377 322.118 775.82 322.6 775.409 323.336 775.145 324.327L773.446 324.327 773.446 321.637C774.541 321.118 775.565 320.73 776.519 320.476 777.472 320.221 778.392 320.093 779.28 320.093Z" fill-rule="evenodd"/><text fill="#000000" fill-opacity="0" font-family="Arial,Arial_MSFontService,sans-serif" font-size="19.7817" x="773.233" y="337.402">3</text><path d="M788.905 336.363 791.765 336.363 791.765 339.648 788.905 339.648Z" fill-rule="evenodd"/><text fill="#000000" fill-opacity="0" font-family="Arial,Arial_MSFontService,sans-serif" font-size="3.28516" x="788.905" y="339.238">.</text><path d="M801.39 321.297C800.739 321.297 800.193 321.49 799.754 321.877 799.315 322.264 798.961 322.821 798.692 323.548 798.423 324.275 798.232 325.16 798.119 326.203 798.006 327.246 797.949 328.424 797.949 329.736 797.949 332.814 798.235 335.072 798.806 336.512 799.377 337.952 800.262 338.671 801.461 338.671 802.603 338.671 803.45 337.994 804.002 336.639 804.555 335.285 804.831 333.187 804.831 330.345 804.831 328.174 804.689 326.416 804.406 325.071 804.123 323.725 803.729 322.76 803.224 322.175 802.719 321.59 802.107 321.297 801.39 321.297ZM801.461 320.093C803.528 320.093 805.067 320.891 806.077 322.486 807.087 324.082 807.592 326.494 807.592 329.722 807.592 333.064 807.052 335.592 805.971 337.305 804.89 339.018 803.311 339.875 801.234 339.875 799.195 339.875 797.678 339.073 796.682 337.468 795.686 335.863 795.188 333.427 795.188 330.161 795.188 328.424 795.341 326.923 795.648 325.658 795.955 324.393 796.384 323.348 796.937 322.522 797.489 321.696 798.152 321.084 798.926 320.688 799.7 320.292 800.545 320.093 801.461 320.093Z" fill-rule="evenodd"/><text fill="#000000" fill-opacity="0" font-family="Arial,Arial_MSFontService,sans-serif" font-size="19.7817" x="795.188" y="337.402">0</text><path d="M569.371 368.143 586.816 368.143 586.816 370.026 569.371 370.026Z" fill-rule="evenodd"/><text fill="#000000" fill-opacity="0" font-family="Arial,Arial_MSFontService,sans-serif" font-size="1.8833" x="569.371" y="369.791">âˆ’</text><path d="M597.18 357.82C598.247 357.82 599.181 357.985 599.984 358.316 600.786 358.646 601.4 359.12 601.824 359.739 602.249 360.357 602.462 361.096 602.462 361.955 602.462 362.757 602.301 363.463 601.98 364.072 601.659 364.681 601.208 365.212 600.628 365.665 600.047 366.118 599.294 366.561 598.369 366.996L598.369 367.123C598.945 367.227 599.5 367.404 600.033 367.654 600.566 367.904 601.041 368.228 601.456 368.624 601.872 369.021 602.204 369.495 602.454 370.047 602.705 370.599 602.83 371.23 602.83 371.938 602.83 373.033 602.591 374.005 602.115 374.855 601.638 375.704 600.909 376.374 599.927 376.865 598.945 377.356 597.751 377.602 596.344 377.602 595.533 377.602 594.657 377.51 593.718 377.326 592.778 377.141 591.917 376.898 591.133 376.596L591.133 373.594 592.833 373.594C593.163 374.576 593.6 375.289 594.142 375.733 594.685 376.176 595.424 376.398 596.359 376.398 597.586 376.398 598.513 376.063 599.141 375.393 599.769 374.722 600.083 373.731 600.083 372.419 600.083 371.041 599.667 369.988 598.837 369.261 598.006 368.534 596.788 368.171 595.183 368.171L593.909 368.171 593.909 366.925C595.183 366.849 596.257 366.604 597.13 366.189 598.003 365.773 598.652 365.24 599.077 364.589 599.502 363.937 599.714 363.206 599.714 362.394 599.714 361.346 599.436 360.539 598.879 359.972 598.322 359.406 597.51 359.123 596.443 359.123 595.556 359.123 594.834 359.363 594.277 359.845 593.72 360.326 593.309 361.063 593.045 362.054L591.346 362.054 591.346 359.363C592.441 358.844 593.465 358.457 594.419 358.202 595.372 357.947 596.292 357.82 597.18 357.82Z" fill-rule="evenodd"/><text fill="#000000" fill-opacity="0" font-family="Arial,Arial_MSFontService,sans-serif" font-size="19.7817" x="591.133" y="375.129">3</text><path d="M606.805 374.09 609.665 374.09 609.665 377.375 606.805 377.375Z" fill-rule="evenodd"/><text fill="#000000" fill-opacity="0" font-family="Arial,Arial_MSFontService,sans-serif" font-size="3.28516" x="606.805" y="376.964">.</text><path d="M619.29 359.024C618.638 359.024 618.093 359.217 617.654 359.604 617.215 359.991 616.861 360.548 616.592 361.275 616.323 362.002 616.132 362.887 616.019 363.93 615.906 364.973 615.849 366.151 615.849 367.463 615.849 370.54 616.135 372.799 616.706 374.239 617.277 375.678 618.162 376.398 619.361 376.398 620.503 376.398 621.35 375.721 621.902 374.366 622.455 373.011 622.731 370.913 622.731 368.072 622.731 365.901 622.589 364.142 622.306 362.797 622.023 361.452 621.629 360.487 621.124 359.901 620.619 359.316 620.007 359.024 619.29 359.024ZM619.361 357.82C621.428 357.82 622.967 358.618 623.977 360.213 624.987 361.808 625.492 364.22 625.492 367.449 625.492 370.791 624.952 373.318 623.871 375.032 622.79 376.745 621.211 377.602 619.134 377.602 617.095 377.602 615.578 376.799 614.582 375.194 613.586 373.59 613.088 371.154 613.088 367.888 613.088 366.151 613.241 364.65 613.548 363.385 613.855 362.12 614.284 361.074 614.836 360.248 615.389 359.422 616.052 358.811 616.826 358.415 617.6 358.018 618.445 357.82 619.361 357.82Z" fill-rule="evenodd"/><text fill="#000000" fill-opacity="0" font-family="Arial,Arial_MSFontService,sans-serif" font-size="19.7817" x="613.088" y="375.129">0</text><path d="M629.325 374.09 631.803 374.09C631.935 374.751 632.001 375.402 632.001 376.044 632.001 376.705 631.888 377.309 631.662 377.857 631.435 378.404 631.074 378.949 630.578 379.492 630.083 380.035 629.401 380.632 628.532 381.283L627.768 380.42C628.249 379.966 628.598 379.558 628.815 379.195 629.033 378.831 629.188 378.418 629.283 377.956 629.377 377.493 629.424 376.913 629.424 376.214 629.424 375.497 629.391 374.789 629.325 374.09Z" fill-rule="evenodd"/><text fill="#000000" fill-opacity="0" font-family="Arial,Arial_MSFontService,sans-serif" font-size="7.19336" x="627.768" y="380.384">,</text><path d="M644.191 363.711 645.026 363.711 642.987 372.801C642.78 373.727 642.676 374.425 642.676 374.897 642.676 375.275 642.737 375.548 642.86 375.718 642.983 375.888 643.176 375.973 643.44 375.973 643.724 375.973 644.026 375.858 644.347 375.626 644.668 375.395 645.121 374.954 645.706 374.302L646.513 375.095C645.588 376.068 644.838 376.728 644.262 377.078 643.686 377.427 643.039 377.602 642.322 377.602 641.708 377.602 641.217 377.377 640.849 376.929 640.481 376.481 640.297 375.907 640.297 375.209 640.297 374.491 640.429 373.575 640.693 372.462L641.755 367.831C641.972 366.887 642.081 366.179 642.081 365.707 642.081 365.282 641.979 364.994 641.777 364.843 641.574 364.692 641.175 364.607 640.58 364.589L640.736 363.838ZM643.809 358.287 646.315 358.287 645.664 361.034 643.157 361.034ZM660.653 357.041C661.578 357.041 662.376 357.117 663.046 357.268L662.494 359.675 661.248 359.675C661.116 359.137 660.944 358.75 660.731 358.514 660.519 358.278 660.205 358.16 659.789 358.16 659.251 358.16 658.796 358.308 658.423 358.606 658.05 358.903 657.732 359.345 657.467 359.93 657.203 360.515 656.957 361.303 656.731 362.295L656.377 363.838 660.016 363.838 659.705 365.268 656.051 365.268 653.417 377.616C652.983 379.664 652.318 381.191 651.421 382.197 650.524 383.202 649.396 383.705 648.037 383.705 647.64 383.705 647.329 383.681 647.102 383.634L647.343 382.388C647.437 382.416 647.659 382.43 648.008 382.43 648.433 382.43 648.797 382.322 649.099 382.105 649.401 381.887 649.682 381.51 649.941 380.972 650.201 380.434 650.439 379.688 650.656 378.734L653.701 365.268 651.308 365.268 651.52 364.291C652.152 364.253 652.608 364.201 652.886 364.135 653.165 364.069 653.382 363.97 653.538 363.838 653.694 363.706 653.826 363.534 653.934 363.321 654.043 363.109 654.182 362.719 654.352 362.153 654.852 360.454 655.624 359.177 656.667 358.323 657.71 357.468 659.039 357.041 660.653 357.041Z" fill-rule="evenodd"/><text fill="#000000" fill-opacity="0" font-family="Arial,Arial_MSFontService,sans-serif" font-size="26.6636" x="640.297" y="380.372">ğ‘–ğ‘“</text><path d="M684.584 363.541C685.264 363.541 685.755 363.718 686.057 364.072 686.359 364.426 686.51 364.9 686.51 365.495 686.51 365.948 686.43 366.467 686.269 367.052 686.109 367.638 685.882 368.256 685.589 368.907 685.297 369.559 684.948 370.227 684.542 370.911 684.136 371.595 683.687 372.261 683.196 372.908 682.705 373.554 682.182 374.163 681.625 374.734 681.068 375.305 680.489 375.803 679.89 376.228 679.291 376.653 678.682 376.99 678.063 377.241 677.445 377.491 676.829 377.616 676.215 377.616 675.942 377.616 675.713 377.547 675.529 377.411 675.345 377.274 675.196 377.08 675.083 376.83 674.969 376.58 674.889 376.285 674.842 375.945 674.795 375.605 674.771 375.232 674.771 374.826 674.771 374.288 674.804 373.712 674.87 373.099 674.936 372.485 675.021 371.867 675.125 371.244L675.72 367.321C675.758 367.095 675.788 366.88 675.812 366.677 675.835 366.474 675.847 366.325 675.847 366.231 675.847 365.938 675.8 365.698 675.706 365.509 675.611 365.32 675.451 365.226 675.224 365.226 675.045 365.226 674.851 365.28 674.644 365.389 674.436 365.497 674.226 365.636 674.013 365.806 673.801 365.976 673.596 366.158 673.398 366.351 673.199 366.545 673.015 366.727 672.845 366.897L672.166 366.104C672.458 365.802 672.77 365.502 673.1 365.204 673.431 364.907 673.78 364.638 674.148 364.397 674.516 364.157 674.903 363.963 675.309 363.817 675.715 363.67 676.13 363.597 676.555 363.597 676.914 363.597 677.207 363.656 677.433 363.774 677.66 363.892 677.837 364.048 677.964 364.242 678.092 364.435 678.179 364.647 678.226 364.879 678.273 365.11 678.297 365.339 678.297 365.566 678.297 365.698 678.292 365.825 678.283 365.948 678.273 366.071 678.259 366.184 678.24 366.288L677.447 371.414C677.362 371.952 677.292 372.478 677.235 372.993 677.178 373.507 677.15 373.963 677.15 374.359 677.15 374.755 677.174 375.076 677.221 375.322 677.268 375.567 677.358 375.69 677.49 375.69 677.801 375.69 678.193 375.565 678.665 375.315 679.137 375.065 679.633 374.72 680.152 374.281 680.671 373.842 681.19 373.323 681.71 372.724 682.229 372.124 682.696 371.475 683.111 370.776 683.527 370.078 683.864 369.342 684.124 368.568 684.383 367.793 684.513 367.015 684.513 366.231 684.513 365.891 684.44 365.629 684.294 365.445 684.147 365.261 683.919 365.169 683.607 365.169 683.211 365.169 682.845 365.322 682.51 365.629 682.174 365.936 681.828 366.34 681.469 366.84L680.662 366.118C680.888 365.778 681.155 365.452 681.462 365.141 681.769 364.829 682.094 364.555 682.439 364.319 682.783 364.083 683.14 363.895 683.508 363.753 683.876 363.611 684.235 363.541 684.584 363.541Z" fill-rule="evenodd"/><text fill="#000000" fill-opacity="0" font-family="Arial,Arial_MSFontService,sans-serif" font-size="14.0752" x="672.166" y="375.856">ğ‘£</text><path d="M691.81 372.995 692.312 372.995 690.794 379.824C690.699 380.228 690.632 380.549 690.594 380.788 690.557 381.027 690.538 381.243 690.538 381.434 690.538 381.694 690.591 381.882 690.697 381.998 690.803 382.114 690.962 382.172 691.174 382.172 691.297 382.172 691.42 382.148 691.543 382.101 691.666 382.053 691.798 381.978 691.938 381.875 692.078 381.772 692.232 381.641 692.399 381.48 692.567 381.32 692.753 381.126 692.958 380.901L693.655 381.578C693.3 381.94 692.977 382.246 692.686 382.495 692.396 382.745 692.121 382.948 691.861 383.105 691.601 383.263 691.346 383.375 691.097 383.444 690.847 383.512 690.583 383.546 690.302 383.546 690.042 383.546 689.808 383.499 689.6 383.403 689.391 383.307 689.212 383.176 689.062 383.008 688.911 382.841 688.795 382.641 688.713 382.408 688.631 382.176 688.59 381.919 688.59 381.639 688.59 381.414 688.617 381.133 688.672 380.798 688.727 380.463 688.797 380.099 688.882 379.706 688.968 379.313 689.062 378.901 689.164 378.471 689.267 378.04 689.367 377.613 689.467 377.189 689.566 376.765 689.655 376.357 689.733 375.964 689.812 375.571 689.868 375.213 689.902 374.892 689.916 374.837 689.923 374.784 689.923 374.733 689.923 374.682 689.923 374.636 689.923 374.595 689.909 374.328 689.815 374.133 689.641 374.01 689.467 373.887 689.157 373.819 688.713 373.805L688.836 373.108ZM691.215 368.863 693.266 368.863 692.763 371.067 690.733 371.067Z" fill-rule="evenodd"/><text fill="#000000" fill-opacity="0" font-family="Arial,Arial_MSFontService,sans-serif" font-size="14.6836" x="688.59" y="381.711">ğ‘–</text><path d="M721.648 355.64C724.405 356.367 726.522 357.937 727.999 360.349 729.476 362.761 730.215 365.67 730.215 369.078 730.215 372.496 729.479 375.406 728.006 377.808 726.533 380.211 724.414 381.775 721.648 382.502L721.308 381.412C723.489 380.685 725.11 379.25 726.172 377.107 727.234 374.964 727.765 372.241 727.765 368.937 727.765 365.746 727.237 363.096 726.179 360.986 725.122 358.876 723.484 357.458 721.266 356.731ZM707.457 355.64 707.839 356.731C705.63 357.458 703.995 358.876 702.933 360.986 701.871 363.096 701.34 365.746 701.34 368.937 701.34 372.241 701.871 374.964 702.933 377.107 703.995 379.25 705.616 380.685 707.797 381.412L707.457 382.502C704.691 381.775 702.572 380.211 701.099 377.808 699.626 375.406 698.89 372.496 698.89 369.078 698.89 365.67 699.629 362.761 701.106 360.349 702.583 357.937 704.7 356.367 707.457 355.64Z" fill-rule="evenodd"/><path d="M714.051 360.34 716.005 360.34 715.226 363.838 719.531 363.838 719.219 365.268 714.915 365.268 713.655 370.762C713.409 371.829 713.253 372.596 713.187 373.063 713.121 373.531 713.088 373.906 713.088 374.189 713.088 375.36 713.574 375.945 714.547 375.945 714.962 375.945 715.403 375.787 715.871 375.471 716.338 375.154 716.893 374.614 717.534 373.849L718.356 374.699C717.534 375.69 716.744 376.422 715.984 376.894 715.224 377.366 714.429 377.602 713.598 377.602 711.625 377.602 710.638 376.606 710.638 374.614 710.638 373.981 710.719 373.316 710.879 372.617L712.55 365.268 710.171 365.268 710.384 364.291C710.94 364.282 711.363 364.239 711.651 364.164 711.939 364.088 712.18 363.984 712.373 363.852 712.567 363.72 712.744 363.531 712.904 363.286 713.065 363.04 713.22 362.726 713.371 362.344 713.522 361.962 713.749 361.294 714.051 360.34Z" fill-rule="evenodd"/><text fill="#000000" fill-opacity="0" font-family="Arial,Arial_MSFontService,sans-serif" font-size="17.2612" x="710.171" y="375.444">ğ‘¡</text><path d="M760.66 360.298 760.66 362.422 745.282 369.091 760.66 375.761 760.66 377.885 743.158 370.083 743.158 368.1Z" fill-rule="evenodd"/><text fill="#000000" fill-opacity="0" font-family="Arial,Arial_MSFontService,sans-serif" font-size="17.5869" x="743.158" y="375.687">&lt;</text><path d="M773.304 368.143 790.75 368.143 790.75 370.026 773.304 370.026Z" fill-rule="evenodd"/><text fill="#000000" fill-opacity="0" font-family="Arial,Arial_MSFontService,sans-serif" font-size="1.8833" x="773.304" y="369.791">âˆ’</text><path d="M801.113 357.82C802.18 357.82 803.114 357.985 803.917 358.316 804.719 358.646 805.333 359.12 805.758 359.739 806.182 360.357 806.395 361.096 806.395 361.955 806.395 362.757 806.234 363.463 805.913 364.072 805.592 364.681 805.142 365.212 804.561 365.665 803.981 366.118 803.228 366.561 802.303 366.996L802.303 367.123C802.878 367.227 803.433 367.404 803.966 367.654 804.5 367.904 804.974 368.228 805.39 368.624 805.805 369.021 806.138 369.495 806.388 370.047 806.638 370.599 806.763 371.23 806.763 371.938 806.763 373.033 806.525 374.005 806.048 374.855 805.571 375.704 804.842 376.374 803.86 376.865 802.878 377.356 801.684 377.602 800.278 377.602 799.466 377.602 798.59 377.51 797.651 377.326 796.712 377.141 795.85 376.898 795.067 376.596L795.067 373.594 796.766 373.594C797.096 374.576 797.533 375.289 798.076 375.733 798.619 376.176 799.357 376.398 800.292 376.398 801.519 376.398 802.447 376.063 803.074 375.393 803.702 374.722 804.016 373.731 804.016 372.419 804.016 371.041 803.601 369.988 802.77 369.261 801.939 368.534 800.721 368.171 799.117 368.171L797.842 368.171 797.842 366.925C799.117 366.849 800.19 366.604 801.064 366.189 801.937 365.773 802.586 365.24 803.011 364.589 803.435 363.937 803.648 363.206 803.648 362.394 803.648 361.346 803.369 360.539 802.812 359.972 802.255 359.406 801.444 359.123 800.377 359.123 799.489 359.123 798.767 359.363 798.21 359.845 797.653 360.326 797.243 361.063 796.978 362.054L795.279 362.054 795.279 359.363C796.374 358.844 797.398 358.457 798.352 358.202 799.305 357.947 800.226 357.82 801.113 357.82Z" fill-rule="evenodd"/><text fill="#000000" fill-opacity="0" font-family="Arial,Arial_MSFontService,sans-serif" font-size="19.7817" x="795.067" y="375.129">3</text><path d="M810.738 374.09 813.598 374.09 813.598 377.375 810.738 377.375Z" fill-rule="evenodd"/><text fill="#000000" fill-opacity="0" font-family="Arial,Arial_MSFontService,sans-serif" font-size="3.28516" x="810.738" y="376.964">.</text><path d="M823.223 359.024C822.572 359.024 822.027 359.217 821.588 359.604 821.149 359.991 820.795 360.548 820.526 361.275 820.257 362.002 820.065 362.887 819.952 363.93 819.839 364.973 819.782 366.151 819.782 367.463 819.782 370.54 820.068 372.799 820.639 374.239 821.21 375.678 822.095 376.398 823.294 376.398 824.436 376.398 825.284 375.721 825.836 374.366 826.388 373.011 826.664 370.913 826.664 368.072 826.664 365.901 826.523 364.142 826.239 362.797 825.956 361.452 825.562 360.487 825.057 359.901 824.552 359.316 823.941 359.024 823.223 359.024ZM823.294 357.82C825.361 357.82 826.9 358.618 827.91 360.213 828.92 361.808 829.425 364.22 829.425 367.449 829.425 370.791 828.885 373.318 827.804 375.032 826.723 376.745 825.144 377.602 823.067 377.602 821.028 377.602 819.511 376.799 818.515 375.194 817.519 373.59 817.021 371.154 817.021 367.888 817.021 366.151 817.174 364.65 817.481 363.385 817.788 362.12 818.218 361.074 818.77 360.248 819.322 359.422 819.985 358.811 820.759 358.415 821.533 358.018 822.378 357.82 823.294 357.82Z" fill-rule="evenodd"/><text fill="#000000" fill-opacity="0" font-family="Arial,Arial_MSFontService,sans-serif" font-size="19.7817" x="817.021" y="375.129">0</text><path d="M528.611 401.267C529.29 401.267 529.781 401.444 530.083 401.798 530.385 402.152 530.536 402.627 530.536 403.221 530.536 403.675 530.456 404.194 530.296 404.779 530.135 405.364 529.909 405.983 529.616 406.634 529.323 407.285 528.974 407.953 528.568 408.638 528.162 409.322 527.714 409.988 527.223 410.634 526.732 411.281 526.208 411.89 525.651 412.461 525.094 413.032 524.516 413.53 523.917 413.955 523.317 414.38 522.708 414.717 522.09 414.967 521.472 415.217 520.856 415.342 520.242 415.342 519.968 415.342 519.739 415.274 519.555 415.137 519.371 415 519.223 414.807 519.109 414.557 518.996 414.306 518.916 414.011 518.869 413.672 518.821 413.332 518.798 412.959 518.798 412.553 518.798 412.015 518.831 411.439 518.897 410.825 518.963 410.212 519.048 409.593 519.152 408.97L519.746 405.048C519.784 404.822 519.815 404.607 519.839 404.404 519.862 404.201 519.874 404.052 519.874 403.958 519.874 403.665 519.827 403.424 519.732 403.236 519.638 403.047 519.477 402.952 519.251 402.952 519.071 402.952 518.878 403.007 518.67 403.115 518.463 403.224 518.253 403.363 518.04 403.533 517.828 403.703 517.622 403.885 517.424 404.078 517.226 404.272 517.042 404.453 516.872 404.623L516.192 403.83C516.485 403.528 516.796 403.228 517.127 402.931 517.457 402.634 517.807 402.365 518.175 402.124 518.543 401.883 518.93 401.69 519.336 401.543 519.742 401.397 520.157 401.324 520.582 401.324 520.941 401.324 521.233 401.383 521.46 401.501 521.686 401.619 521.863 401.775 521.991 401.968 522.118 402.162 522.206 402.374 522.253 402.605 522.3 402.837 522.324 403.066 522.324 403.292 522.324 403.424 522.319 403.552 522.309 403.675 522.3 403.797 522.286 403.911 522.267 404.014L521.474 409.14C521.389 409.678 521.318 410.205 521.262 410.719 521.205 411.234 521.177 411.689 521.177 412.086 521.177 412.482 521.2 412.803 521.247 413.049 521.295 413.294 521.384 413.417 521.516 413.417 521.828 413.417 522.22 413.292 522.692 413.041 523.164 412.791 523.659 412.447 524.179 412.008 524.698 411.569 525.217 411.05 525.736 410.45 526.255 409.851 526.723 409.202 527.138 408.503 527.553 407.805 527.891 407.068 528.151 406.294 528.41 405.52 528.54 404.741 528.54 403.958 528.54 403.618 528.467 403.356 528.32 403.172 528.174 402.988 527.945 402.896 527.634 402.896 527.237 402.896 526.871 403.049 526.536 403.356 526.201 403.663 525.854 404.066 525.495 404.567L524.688 403.844C524.915 403.505 525.182 403.179 525.488 402.867 525.795 402.556 526.121 402.282 526.465 402.046 526.81 401.81 527.166 401.621 527.535 401.48 527.903 401.338 528.261 401.267 528.611 401.267Z" fill-rule="evenodd"/><text fill="#000000" fill-opacity="0" font-family="Arial,Arial_MSFontService,sans-serif" font-size="14.0752" x="516.192" y="413.583">ğ‘£</text><path d="M535.836 410.722 536.339 410.722 534.821 417.551C534.725 417.954 534.659 418.275 534.621 418.515 534.584 418.754 534.565 418.969 534.565 419.161 534.565 419.42 534.618 419.608 534.724 419.725 534.83 419.841 534.989 419.899 535.201 419.899 535.324 419.899 535.447 419.875 535.57 419.827 535.693 419.779 535.824 419.704 535.964 419.602 536.105 419.499 536.258 419.367 536.426 419.207 536.593 419.046 536.78 418.853 536.985 418.628L537.682 419.304C537.326 419.667 537.003 419.972 536.713 420.222 536.422 420.471 536.147 420.675 535.888 420.832 535.628 420.989 535.373 421.102 535.124 421.17 534.874 421.239 534.609 421.273 534.329 421.273 534.069 421.273 533.835 421.225 533.627 421.129 533.418 421.034 533.239 420.902 533.088 420.735 532.938 420.567 532.822 420.367 532.74 420.135 532.658 419.902 532.617 419.646 532.617 419.366 532.617 419.14 532.644 418.86 532.699 418.525 532.753 418.19 532.823 417.826 532.909 417.433 532.994 417.04 533.088 416.628 533.191 416.197 533.293 415.767 533.394 415.339 533.493 414.916 533.592 414.492 533.681 414.083 533.76 413.69 533.838 413.297 533.895 412.94 533.929 412.619 533.943 412.564 533.95 412.511 533.95 412.46 533.95 412.409 533.95 412.362 533.95 412.321 533.936 412.055 533.842 411.86 533.668 411.737 533.493 411.614 533.184 411.545 532.74 411.532L532.863 410.835ZM535.242 406.589 537.292 406.589 536.79 408.794 534.76 408.794Z" fill-rule="evenodd"/><text fill="#000000" fill-opacity="0" font-family="Arial,Arial_MSFontService,sans-serif" font-size="14.6836" x="532.617" y="419.438">ğ‘–</text><path d="M565.675 393.367C568.431 394.094 570.548 395.663 572.026 398.075 573.503 400.487 574.242 403.397 574.242 406.805 574.242 410.222 573.505 413.132 572.033 415.535 570.56 417.937 568.441 419.502 565.675 420.229L565.335 419.139C567.516 418.412 569.137 416.977 570.199 414.834 571.261 412.691 571.792 409.967 571.792 406.663 571.792 403.473 571.263 400.822 570.206 398.712 569.149 396.603 567.511 395.184 565.292 394.457ZM551.483 393.367 551.866 394.457C549.657 395.184 548.021 396.603 546.959 398.712 545.897 400.822 545.366 403.473 545.366 406.663 545.366 409.967 545.897 412.691 546.959 414.834 548.021 416.977 549.643 418.412 551.823 419.139L551.483 420.229C548.718 419.502 546.598 417.937 545.126 415.535 543.653 413.132 542.917 410.222 542.917 406.805 542.917 403.397 543.655 400.487 545.133 398.075 546.61 395.663 548.727 394.094 551.483 393.367Z" fill-rule="evenodd"/><path d="M558.078 398.067 560.032 398.067 559.253 401.565 563.558 401.565 563.246 402.995 558.941 402.995 557.681 408.489C557.436 409.556 557.28 410.323 557.214 410.79 557.148 411.257 557.115 411.633 557.115 411.916 557.115 413.086 557.601 413.672 558.573 413.672 558.989 413.672 559.43 413.513 559.897 413.197 560.365 412.881 560.919 412.341 561.561 411.576L562.382 412.426C561.561 413.417 560.771 414.148 560.011 414.62 559.251 415.092 558.455 415.328 557.625 415.328 555.652 415.328 554.665 414.332 554.665 412.341 554.665 411.708 554.745 411.043 554.906 410.344L556.577 402.995 554.198 402.995 554.41 402.018C554.967 402.008 555.39 401.966 555.678 401.89 555.965 401.815 556.206 401.711 556.4 401.579 556.593 401.447 556.77 401.258 556.931 401.012 557.091 400.767 557.247 400.453 557.398 400.071 557.549 399.688 557.776 399.021 558.078 398.067Z" fill-rule="evenodd"/><text fill="#000000" fill-opacity="0" font-family="Arial,Arial_MSFontService,sans-serif" font-size="17.2612" x="554.198" y="413.171">ğ‘¡</text><path d="M578.825 411.817 581.303 411.817C581.435 412.477 581.501 413.129 581.501 413.771 581.501 414.432 581.388 415.036 581.162 415.583 580.935 416.131 580.574 416.676 580.078 417.219 579.583 417.762 578.901 418.359 578.032 419.01L577.268 418.146C577.749 417.693 578.098 417.285 578.315 416.921 578.533 416.558 578.688 416.145 578.783 415.682 578.877 415.22 578.924 414.639 578.924 413.941 578.924 413.223 578.891 412.515 578.825 411.817Z" fill-rule="evenodd"/><text fill="#000000" fill-opacity="0" font-family="Arial,Arial_MSFontService,sans-serif" font-size="7.19336" x="577.268" y="418.111">,</text><path d="M596.919 402.443C595.966 402.443 595.048 402.924 594.165 403.887 593.283 404.85 592.605 406.153 592.133 407.795 593.464 407.786 594.607 407.665 595.56 407.434 596.513 407.203 597.245 406.835 597.755 406.33 598.265 405.825 598.519 405.142 598.519 404.283 598.519 403.708 598.385 403.257 598.116 402.931 597.847 402.605 597.448 402.443 596.919 402.443ZM607.275 401.324C607.87 401.324 608.339 401.52 608.684 401.912 609.028 402.303 609.201 402.815 609.201 403.448 609.201 403.948 609.087 404.505 608.861 405.119L609.031 405.176C609.956 403.873 610.836 402.908 611.672 402.28 612.507 401.652 613.368 401.338 614.256 401.338 615.134 401.338 615.809 401.591 616.281 402.096 616.753 402.601 616.989 403.302 616.989 404.198 616.989 404.793 616.852 405.638 616.578 406.733L615.658 410.443C615.403 411.472 615.275 412.199 615.275 412.624 615.275 413.001 615.337 413.275 615.459 413.445 615.582 413.615 615.776 413.7 616.04 413.7 616.323 413.7 616.625 413.584 616.946 413.353 617.267 413.122 617.72 412.68 618.306 412.029L619.113 412.822C618.301 413.69 617.593 414.325 616.989 414.727 616.385 415.128 615.695 415.328 614.921 415.328 614.308 415.328 613.817 415.109 613.449 414.67 613.081 414.231 612.896 413.672 612.896 412.992 612.896 412.378 613.052 411.477 613.364 410.287L613.987 407.838C614.213 406.95 614.362 406.294 614.433 405.869 614.504 405.445 614.539 405.1 614.539 404.836 614.539 404.184 614.43 403.715 614.213 403.427 613.996 403.139 613.642 402.995 613.151 402.995 612.755 402.995 612.328 403.153 611.87 403.469 611.412 403.785 610.926 404.262 610.411 404.899 609.897 405.537 609.484 406.155 609.172 406.754 608.861 407.354 608.606 408.092 608.408 408.97L607.062 415.102 604.613 415.102 606.68 406.124C606.888 405.218 606.992 404.519 606.992 404.029 606.992 403.651 606.93 403.377 606.808 403.207 606.685 403.037 606.491 402.952 606.227 402.952 605.934 402.952 605.625 403.073 605.299 403.313 604.974 403.554 604.528 403.991 603.961 404.623L603.154 403.83C604.023 402.924 604.745 402.28 605.321 401.897 605.897 401.515 606.548 401.324 607.275 401.324ZM597.429 401.324C598.571 401.324 599.428 401.555 599.999 402.018 600.57 402.48 600.856 403.203 600.856 404.184 600.856 405.789 600.103 406.993 598.597 407.795 597.092 408.598 594.857 408.999 591.893 408.999 591.779 409.565 591.723 410.179 591.723 410.84 591.723 411.831 591.916 412.551 592.303 412.999 592.69 413.447 593.323 413.672 594.201 413.672 595.069 413.672 595.855 413.483 596.558 413.105 597.262 412.728 598.005 412.147 598.789 411.363L599.666 412.284C598.751 413.294 597.823 414.054 596.884 414.564 595.945 415.073 594.852 415.328 593.606 415.328 592.237 415.328 591.177 414.911 590.427 414.075 589.676 413.24 589.301 412.076 589.301 410.585 589.301 409.575 589.483 408.491 589.846 407.335 590.21 406.179 590.76 405.14 591.496 404.22 592.232 403.299 593.115 402.587 594.144 402.082 595.173 401.576 596.268 401.324 597.429 401.324Z" fill-rule="evenodd"/><text fill="#000000" fill-opacity="0" font-family="Arial,Arial_MSFontService,sans-serif" font-size="14.0044" x="589.301" y="413.578">ğ‘’ğ‘›</text><path d="M733.253 402.443C732.299 402.443 731.381 402.924 730.499 403.887 729.616 404.85 728.939 406.153 728.467 407.795 729.798 407.786 730.94 407.665 731.893 407.434 732.847 407.203 733.578 406.835 734.088 406.33 734.598 405.825 734.853 405.142 734.853 404.283 734.853 403.708 734.718 403.257 734.449 402.931 734.18 402.605 733.781 402.443 733.253 402.443ZM691.196 402.443C690.233 402.443 689.369 402.832 688.605 403.611 687.84 404.39 687.238 405.44 686.799 406.761 686.36 408.083 686.141 409.4 686.141 410.712 686.141 411.694 686.275 412.428 686.544 412.914 686.813 413.4 687.264 413.643 687.897 413.643 688.189 413.643 688.487 413.58 688.789 413.452 689.091 413.325 689.405 413.119 689.73 412.836 690.056 412.553 690.377 412.208 690.693 411.802 691.01 411.397 691.3 410.988 691.564 410.578 691.829 410.167 692.074 409.681 692.301 409.119 692.527 408.557 692.721 407.88 692.881 407.087L693.009 406.478C693.15 405.799 693.221 405.157 693.221 404.552 693.221 403.816 693.065 403.28 692.754 402.945 692.442 402.61 691.923 402.443 691.196 402.443ZM665.224 402.443C664.252 402.443 663.379 402.834 662.605 403.618 661.831 404.401 661.227 405.452 660.792 406.769 660.358 408.085 660.141 409.4 660.141 410.712 660.141 411.694 660.275 412.428 660.544 412.914 660.813 413.4 661.264 413.643 661.897 413.643 662.52 413.643 663.131 413.374 663.73 412.836 664.33 412.298 664.948 411.531 665.585 410.535 666.223 409.539 666.673 408.39 666.938 407.087L667.065 406.478C667.15 406.091 667.207 405.756 667.235 405.473 667.263 405.19 667.278 404.883 667.278 404.552 667.278 403.826 667.122 403.292 666.81 402.952 666.499 402.613 665.97 402.443 665.224 402.443ZM721.024 401.437 721.86 401.437 719.821 410.528C719.613 411.453 719.509 412.152 719.509 412.624 719.509 413.001 719.57 413.275 719.693 413.445 719.816 413.615 720.009 413.7 720.274 413.7 720.557 413.7 720.859 413.584 721.18 413.353 721.501 413.122 721.954 412.68 722.539 412.029L723.346 412.822C722.421 413.794 721.671 414.455 721.095 414.804 720.519 415.154 719.872 415.328 719.155 415.328 718.541 415.328 718.051 415.104 717.682 414.656 717.314 414.207 717.13 413.634 717.13 412.935 717.13 412.218 717.262 411.302 717.527 410.188L718.589 405.558C718.806 404.614 718.914 403.906 718.914 403.434 718.914 403.009 718.813 402.721 718.61 402.57 718.407 402.419 718.008 402.334 717.413 402.315L717.569 401.565ZM635.522 401.338C636.777 401.338 637.934 401.48 638.991 401.763L638.297 404.963 636.81 404.963C636.791 404.246 636.732 403.726 636.633 403.405 636.534 403.085 636.374 402.844 636.152 402.683 635.93 402.523 635.616 402.443 635.21 402.443 634.257 402.443 633.4 402.823 632.64 403.582 631.88 404.342 631.26 405.419 630.778 406.811 630.297 408.203 630.056 409.542 630.056 410.825 630.056 411.788 630.245 412.503 630.622 412.971 631 413.438 631.566 413.672 632.322 413.672 633.181 413.672 633.924 413.509 634.552 413.183 635.18 412.857 635.843 412.345 636.541 411.647L637.405 412.51C636.518 413.492 635.623 414.21 634.722 414.663 633.82 415.116 632.85 415.342 631.812 415.342 630.443 415.342 629.405 414.937 628.697 414.125 627.989 413.313 627.635 412.133 627.635 410.585 627.635 409.575 627.823 408.465 628.201 407.257 628.579 406.049 629.131 404.987 629.858 404.071 630.585 403.155 631.434 402.471 632.406 402.018 633.379 401.565 634.417 401.338 635.522 401.338ZM743.594 401.324C744.189 401.324 744.658 401.52 745.003 401.912 745.347 402.303 745.52 402.815 745.52 403.448 745.52 403.92 745.43 404.406 745.251 404.906L745.435 404.977C746.36 403.722 747.25 402.801 748.104 402.216 748.958 401.631 749.824 401.338 750.702 401.338 751.392 401.338 751.967 401.39 752.43 401.494L751.75 404.666 750.292 404.666C750.235 404.269 750.155 403.962 750.051 403.745 749.947 403.528 749.824 403.377 749.683 403.292 749.541 403.207 749.362 403.165 749.145 403.165 748.805 403.165 748.434 403.311 748.033 403.604 747.632 403.896 747.181 404.354 746.681 404.977 746.181 405.6 745.782 406.2 745.484 406.776 745.187 407.351 744.939 408.083 744.741 408.97L743.396 415.102 740.946 415.102 742.999 406.124C743.131 405.558 743.216 405.119 743.254 404.807 743.292 404.496 743.311 404.236 743.311 404.029 743.311 403.651 743.249 403.377 743.127 403.207 743.004 403.037 742.81 402.952 742.546 402.952 742.253 402.952 741.944 403.073 741.619 403.313 741.293 403.554 740.847 403.991 740.281 404.623L739.473 403.83C740.342 402.924 741.069 402.28 741.654 401.897 742.239 401.515 742.886 401.324 743.594 401.324ZM733.762 401.324C734.905 401.324 735.761 401.555 736.333 402.018 736.904 402.48 737.189 403.203 737.189 404.184 737.189 405.789 736.436 406.993 734.931 407.795 733.425 408.598 731.19 408.999 728.226 408.999 728.113 409.565 728.056 410.179 728.056 410.84 728.056 411.831 728.249 412.551 728.636 412.999 729.023 413.447 729.656 413.672 730.534 413.672 731.402 413.672 732.188 413.483 732.892 413.105 733.595 412.728 734.338 412.147 735.122 411.363L736 412.284C735.084 413.294 734.157 414.054 733.217 414.564 732.278 415.073 731.185 415.328 729.939 415.328 728.57 415.328 727.511 414.911 726.76 414.075 726.01 413.24 725.635 412.076 725.635 410.585 725.635 409.575 725.816 408.491 726.18 407.335 726.543 406.179 727.093 405.14 727.829 404.22 728.566 403.299 729.448 402.587 730.477 402.082 731.506 401.576 732.601 401.324 733.762 401.324ZM702.721 401.324C703.326 401.324 703.802 401.527 704.152 401.933 704.501 402.339 704.676 402.886 704.676 403.575 704.676 404.321 704.529 405.251 704.237 406.365L703.614 408.815C703.453 409.438 703.337 409.924 703.267 410.273 703.196 410.622 703.144 410.925 703.111 411.179 703.078 411.434 703.061 411.647 703.061 411.817 703.061 412.468 703.17 412.938 703.387 413.226 703.604 413.513 703.958 413.657 704.449 413.657 704.845 413.657 705.273 413.499 705.73 413.183 706.188 412.867 706.674 412.39 707.189 411.753 707.703 411.116 708.116 410.497 708.428 409.898 708.74 409.298 708.994 408.56 709.193 407.682L710.538 401.551 712.988 401.551 710.92 410.528C710.712 411.434 710.609 412.133 710.609 412.624 710.609 413.001 710.67 413.275 710.793 413.445 710.915 413.615 711.109 413.7 711.373 413.7 711.656 413.7 711.959 413.584 712.28 413.353 712.601 413.122 713.054 412.68 713.639 412.029L714.446 412.822C713.587 413.738 712.855 414.384 712.251 414.762 711.647 415.14 711.005 415.328 710.325 415.328 709.74 415.328 709.273 415.135 708.924 414.748 708.574 414.361 708.4 413.846 708.4 413.204 708.4 412.695 708.513 412.138 708.74 411.533L708.57 411.477C707.635 412.789 706.75 413.757 705.915 414.38 705.079 415.003 704.222 415.314 703.344 415.314 702.467 415.314 701.792 415.062 701.32 414.557 700.848 414.052 700.612 413.351 700.612 412.454 700.612 411.859 700.748 411.014 701.022 409.919L701.943 406.209C702.198 405.18 702.325 404.453 702.325 404.029 702.325 403.651 702.264 403.377 702.141 403.207 702.018 403.037 701.825 402.952 701.56 402.952 701.268 402.952 700.958 403.073 700.633 403.313 700.307 403.554 699.861 403.991 699.295 404.623L698.488 403.83C699.29 403.018 699.894 402.461 700.3 402.159 700.706 401.857 701.095 401.643 701.468 401.515 701.841 401.388 702.259 401.324 702.721 401.324ZM690.941 401.324C691.526 401.324 692.083 401.392 692.612 401.529 693.141 401.666 693.688 401.909 694.255 402.259L695.557 401.324 696.464 401.551 692.839 417.651C692.678 418.368 692.598 418.906 692.598 419.265 692.598 419.68 692.704 419.975 692.917 420.15 693.129 420.325 693.547 420.44 694.17 420.497L694.042 421.191 689.624 421.191 692.06 411.902 691.862 411.817C691.05 412.959 690.221 413.827 689.376 414.422 688.532 415.017 687.708 415.314 686.906 415.314 685.867 415.314 685.062 414.922 684.491 414.139 683.92 413.355 683.635 412.256 683.635 410.84 683.635 409.216 683.953 407.656 684.59 406.16 685.228 404.663 686.103 403.483 687.217 402.62 688.331 401.756 689.572 401.324 690.941 401.324ZM664.941 401.324C665.555 401.324 666.128 401.392 666.662 401.529 667.195 401.666 667.745 401.909 668.311 402.259L669.614 401.324 670.52 401.551 668.439 410.528C668.231 411.425 668.127 412.123 668.127 412.624 668.127 413.001 668.189 413.275 668.311 413.445 668.434 413.615 668.628 413.7 668.892 413.7 669.175 413.7 669.477 413.584 669.798 413.353 670.119 413.122 670.572 412.68 671.157 412.029L671.965 412.822C671.115 413.728 670.39 414.373 669.791 414.755 669.192 415.137 668.543 415.328 667.844 415.328 667.259 415.328 666.791 415.135 666.442 414.748 666.093 414.361 665.918 413.846 665.918 413.204 665.918 412.685 666.027 412.133 666.244 411.548L666.06 411.491C665.154 412.813 664.294 413.78 663.483 414.394 662.671 415.007 661.812 415.314 660.906 415.314 659.867 415.314 659.062 414.922 658.491 414.139 657.92 413.355 657.635 412.256 657.635 410.84 657.635 409.216 657.953 407.656 658.59 406.16 659.228 404.663 660.103 403.483 661.217 402.62 662.331 401.756 663.572 401.324 664.941 401.324ZM644.721 401.324C645.326 401.324 645.802 401.527 646.152 401.933 646.501 402.339 646.676 402.886 646.676 403.575 646.676 404.321 646.529 405.251 646.237 406.365L645.614 408.815C645.453 409.438 645.337 409.924 645.267 410.273 645.196 410.622 645.144 410.925 645.111 411.179 645.078 411.434 645.061 411.647 645.061 411.817 645.061 412.468 645.17 412.938 645.387 413.226 645.604 413.513 645.958 413.657 646.449 413.657 646.845 413.657 647.273 413.499 647.73 413.183 648.188 412.867 648.674 412.39 649.189 411.753 649.703 411.116 650.116 410.497 650.428 409.898 650.74 409.298 650.994 408.56 651.193 407.682L652.538 401.551 654.988 401.551 652.92 410.528C652.712 411.434 652.609 412.133 652.609 412.624 652.609 413.001 652.67 413.275 652.793 413.445 652.915 413.615 653.109 413.7 653.373 413.7 653.656 413.7 653.959 413.584 654.28 413.353 654.601 413.122 655.054 412.68 655.639 412.029L656.446 412.822C655.587 413.738 654.855 414.384 654.251 414.762 653.647 415.14 653.005 415.328 652.325 415.328 651.74 415.328 651.273 415.135 650.924 414.748 650.574 414.361 650.4 413.846 650.4 413.204 650.4 412.695 650.513 412.138 650.74 411.533L650.57 411.477C649.635 412.789 648.75 413.757 647.915 414.38 647.079 415.003 646.222 415.314 645.344 415.314 644.467 415.314 643.792 415.062 643.32 414.557 642.848 414.052 642.612 413.351 642.612 412.454 642.612 411.859 642.748 411.014 643.022 409.919L643.943 406.209C644.198 405.18 644.325 404.453 644.325 404.029 644.325 403.651 644.264 403.377 644.141 403.207 644.018 403.037 643.825 402.952 643.56 402.952 643.268 402.952 642.958 403.073 642.633 403.313 642.307 403.554 641.861 403.991 641.295 404.623L640.488 403.83C641.29 403.018 641.894 402.461 642.3 402.159 642.706 401.857 643.095 401.643 643.468 401.515 643.841 401.388 644.259 401.324 644.721 401.324ZM720.642 396.014 723.148 396.014 722.497 398.761 719.99 398.761ZM680.44 394.853 681.276 394.853 677.792 410.528C677.585 411.463 677.481 412.161 677.481 412.624 677.481 413.001 677.542 413.275 677.665 413.445 677.788 413.615 677.981 413.7 678.245 413.7 678.529 413.7 678.831 413.584 679.152 413.353 679.473 413.122 679.926 412.68 680.511 412.029L681.318 412.822C680.402 413.785 679.654 414.443 679.074 414.797 678.493 415.151 677.844 415.328 677.127 415.328 676.513 415.328 676.022 415.104 675.654 414.656 675.286 414.207 675.102 413.634 675.102 412.935 675.102 412.303 675.234 411.387 675.498 410.188L678.033 398.846C678.146 398.346 678.227 397.947 678.274 397.649 678.321 397.352 678.344 397.076 678.344 396.821 678.344 396.538 678.293 396.323 678.189 396.177 678.085 396.03 677.936 395.924 677.743 395.858 677.549 395.792 677.202 395.745 676.702 395.717L676.872 394.98Z" fill-rule="evenodd"/><text fill="#000000" fill-opacity="0" font-family="Arial,Arial_MSFontService,sans-serif" font-size="26.3379" x="627.635" y="417.898">ğ‘ğ‘¢ğ‘ğ‘™ğ‘ğ‘¢ğ‘–ğ‘’ğ‘Ÿ</text><path d="M809.758 402.471C808.776 402.471 807.919 402.882 807.188 403.703 806.456 404.524 805.88 405.699 805.46 407.229 805.04 408.758 804.83 410.075 804.83 411.179 804.83 412.218 805.045 412.985 805.474 413.48 805.904 413.976 806.553 414.224 807.421 414.224 808.346 414.224 809.168 413.808 809.885 412.978 810.603 412.147 811.169 410.984 811.584 409.487 812 407.991 812.207 406.676 812.207 405.544 812.207 404.524 812.009 403.757 811.613 403.243 811.216 402.728 810.598 402.471 809.758 402.471ZM768.758 402.471C767.776 402.471 766.919 402.882 766.188 403.703 765.456 404.524 764.88 405.699 764.46 407.229 764.04 408.758 763.83 410.075 763.83 411.179 763.83 412.218 764.045 412.985 764.474 413.48 764.904 413.976 765.553 414.224 766.421 414.224 767.346 414.224 768.168 413.808 768.885 412.978 769.603 412.147 770.169 410.984 770.584 409.487 771 407.991 771.207 406.676 771.207 405.544 771.207 404.524 771.009 403.757 770.613 403.243 770.216 402.728 769.598 402.471 768.758 402.471ZM810.041 401.338C811.551 401.338 812.703 401.751 813.496 402.577 814.289 403.403 814.685 404.586 814.685 406.124 814.685 407.219 814.494 408.39 814.112 409.636 813.73 410.882 813.206 411.93 812.54 412.78 811.875 413.629 811.079 414.269 810.154 414.698 809.229 415.128 808.167 415.342 806.968 415.342 805.505 415.342 804.37 414.932 803.563 414.111 802.756 413.289 802.352 412.109 802.352 410.571 802.352 409.815 802.465 408.942 802.692 407.951 802.984 406.61 803.475 405.44 804.164 404.439 804.854 403.439 805.703 402.672 806.713 402.138 807.723 401.605 808.833 401.338 810.041 401.338ZM769.041 401.338C770.551 401.338 771.703 401.751 772.496 402.577 773.289 403.403 773.685 404.586 773.685 406.124 773.685 407.219 773.494 408.39 773.112 409.636 772.73 410.882 772.206 411.93 771.54 412.78 770.875 413.629 770.079 414.269 769.154 414.698 768.229 415.128 767.167 415.342 765.968 415.342 764.505 415.342 763.37 414.932 762.563 414.111 761.756 413.289 761.352 412.109 761.352 410.571 761.352 409.815 761.465 408.942 761.692 407.951 761.984 406.61 762.475 405.44 763.164 404.439 763.854 403.439 764.703 402.672 765.713 402.138 766.723 401.605 767.833 401.338 769.041 401.338ZM791.241 401.324C791.835 401.324 792.305 401.52 792.65 401.912 792.994 402.303 793.166 402.815 793.166 403.448 793.166 403.92 793.077 404.406 792.897 404.906L793.081 404.977C794.007 403.722 794.896 402.801 795.751 402.216 796.605 401.631 797.471 401.338 798.349 401.338 799.038 401.338 799.614 401.39 800.077 401.494L799.397 404.666 797.938 404.666C797.882 404.269 797.802 403.962 797.698 403.745 797.594 403.528 797.471 403.377 797.33 403.292 797.188 403.207 797.009 403.165 796.791 403.165 796.452 403.165 796.081 403.311 795.68 403.604 795.279 403.896 794.828 404.354 794.328 404.977 793.827 405.6 793.428 406.2 793.131 406.776 792.834 407.351 792.586 408.083 792.388 408.97L791.042 415.102 788.593 415.102 790.646 406.124C790.778 405.558 790.863 405.119 790.901 404.807 790.939 404.496 790.957 404.236 790.957 404.029 790.957 403.651 790.896 403.377 790.773 403.207 790.651 403.037 790.457 402.952 790.193 402.952 789.9 402.952 789.591 403.073 789.265 403.313 788.94 403.554 788.494 403.991 787.927 404.623L787.12 403.83C787.989 402.924 788.715 402.28 789.301 401.897 789.886 401.515 790.533 401.324 791.241 401.324ZM781.331 398.067 783.285 398.067 782.506 401.565 786.811 401.565 786.499 402.995 782.195 402.995 780.935 408.489C780.689 409.556 780.533 410.323 780.467 410.79 780.401 411.257 780.368 411.633 780.368 411.916 780.368 413.086 780.854 413.672 781.827 413.672 782.242 413.672 782.683 413.513 783.151 413.197 783.618 412.881 784.172 412.341 784.814 411.576L785.636 412.426C784.814 413.417 784.024 414.148 783.264 414.62 782.504 415.092 781.709 415.328 780.878 415.328 778.905 415.328 777.918 414.332 777.918 412.341 777.918 411.708 777.999 411.043 778.159 410.344L779.83 402.995 777.451 402.995 777.664 402.018C778.22 402.008 778.643 401.966 778.931 401.89 779.219 401.815 779.459 401.711 779.653 401.579 779.847 401.447 780.024 401.258 780.184 401.012 780.344 400.767 780.5 400.453 780.651 400.071 780.802 399.688 781.029 399.021 781.331 398.067Z" fill-rule="evenodd"/><text fill="#000000" fill-opacity="0" font-family="Arial,Arial_MSFontService,sans-serif" font-size="17.2754" x="761.352" y="413.183">ğ‘œğ‘¡ğ‘Ÿğ‘œ</text><path d="M875.738 402.471C874.756 402.471 873.899 402.882 873.168 403.703 872.436 404.524 871.86 405.699 871.44 407.229 871.02 408.758 870.81 410.075 870.81 411.179 870.81 412.218 871.025 412.985 871.454 413.48 871.884 413.976 872.533 414.224 873.401 414.224 874.326 414.224 875.148 413.808 875.865 412.978 876.583 412.147 877.149 410.984 877.564 409.487 877.98 407.991 878.188 406.676 878.188 405.544 878.188 404.524 877.989 403.757 877.593 403.243 877.196 402.728 876.578 402.471 875.738 402.471ZM846.851 402.443C845.879 402.443 845.006 402.834 844.231 403.618 843.457 404.401 842.853 405.452 842.419 406.769 841.985 408.085 841.768 409.4 841.768 410.712 841.768 411.694 841.902 412.428 842.171 412.914 842.44 413.4 842.891 413.643 843.523 413.643 844.146 413.643 844.758 413.374 845.357 412.836 845.957 412.298 846.575 411.531 847.212 410.535 847.849 409.539 848.3 408.39 848.564 407.087L848.692 406.478C848.777 406.091 848.833 405.756 848.862 405.473 848.89 405.19 848.904 404.883 848.904 404.552 848.904 403.826 848.749 403.292 848.437 402.952 848.125 402.613 847.597 402.443 846.851 402.443ZM876.021 401.338C877.531 401.338 878.683 401.751 879.476 402.577 880.269 403.403 880.666 404.586 880.666 406.124 880.666 407.219 880.474 408.39 880.092 409.636 879.71 410.882 879.186 411.93 878.52 412.78 877.855 413.629 877.059 414.269 876.134 414.698 875.209 415.128 874.147 415.342 872.948 415.342 871.485 415.342 870.35 414.932 869.543 414.111 868.736 413.289 868.332 412.109 868.332 410.571 868.332 409.815 868.445 408.942 868.672 407.951 868.965 406.61 869.455 405.44 870.145 404.439 870.834 403.439 871.683 402.672 872.693 402.138 873.703 401.605 874.813 401.338 876.021 401.338ZM861.676 401.338C862.554 401.338 863.354 401.39 864.076 401.494 864.798 401.598 865.518 401.777 866.235 402.032L865.598 405.006 864.451 405.006C864.347 404.165 864.071 403.528 863.623 403.094 863.174 402.66 862.469 402.443 861.506 402.443 860.76 402.443 860.156 402.634 859.693 403.016 859.231 403.398 859 403.901 859 404.524 859 404.864 859.059 405.164 859.177 405.423 859.294 405.683 859.533 405.968 859.892 406.28 860.25 406.592 860.807 406.974 861.562 407.427 862.157 407.786 862.634 408.114 862.993 408.411 863.351 408.708 863.635 409.003 863.842 409.296 864.05 409.589 864.201 409.898 864.295 410.224 864.39 410.549 864.437 410.943 864.437 411.406 864.437 412.246 864.213 412.966 863.764 413.565 863.316 414.165 862.707 414.611 861.938 414.904 861.168 415.196 860.293 415.342 859.311 415.342 858.528 415.342 857.758 415.284 857.003 415.165 856.248 415.047 855.408 414.847 854.482 414.564L855.162 411.477 856.267 411.477C856.304 412.383 856.559 413.067 857.031 413.53 857.503 413.993 858.254 414.224 859.283 414.224 860.18 414.224 860.88 414.023 861.385 413.622 861.891 413.221 862.143 412.652 862.143 411.916 862.143 411.491 862.072 411.125 861.931 410.818 861.789 410.512 861.558 410.217 861.237 409.933 860.916 409.65 860.406 409.296 859.708 408.871 858.971 408.428 858.398 408.026 857.987 407.668 857.576 407.309 857.267 406.92 857.06 406.499 856.852 406.079 856.748 405.596 856.748 405.048 856.748 404.302 856.949 403.649 857.35 403.087 857.751 402.525 858.325 402.093 859.07 401.791 859.816 401.489 860.685 401.338 861.676 401.338ZM833.148 401.338C834.404 401.338 835.56 401.48 836.618 401.763L835.924 404.963 834.437 404.963C834.418 404.246 834.359 403.726 834.26 403.405 834.161 403.085 834 402.844 833.779 402.683 833.557 402.523 833.243 402.443 832.837 402.443 831.883 402.443 831.027 402.823 830.267 403.582 829.507 404.342 828.886 405.419 828.405 406.811 827.923 408.203 827.683 409.542 827.683 410.825 827.683 411.788 827.871 412.503 828.249 412.971 828.627 413.438 829.193 413.672 829.948 413.672 830.807 413.672 831.551 413.509 832.178 413.183 832.806 412.857 833.469 412.345 834.168 411.647L835.032 412.51C834.144 413.492 833.25 414.21 832.348 414.663 831.447 415.116 830.477 415.342 829.438 415.342 828.07 415.342 827.031 414.937 826.323 414.125 825.615 413.313 825.261 412.133 825.261 410.585 825.261 409.575 825.45 408.465 825.828 407.257 826.205 406.049 826.758 404.987 827.484 404.071 828.211 403.155 829.061 402.471 830.033 402.018 831.006 401.565 832.044 401.338 833.148 401.338ZM846.568 401.324C847.181 401.324 847.755 401.392 848.288 401.529 848.822 401.666 849.372 401.909 849.938 402.259L851.241 401.324 852.147 401.551 850.065 410.528C849.858 411.425 849.754 412.123 849.754 412.624 849.754 413.001 849.815 413.275 849.938 413.445 850.061 413.615 850.254 413.7 850.519 413.7 850.802 413.7 851.104 413.584 851.425 413.353 851.746 413.122 852.199 412.68 852.784 412.029L853.591 412.822C852.742 413.728 852.017 414.373 851.418 414.755 850.818 415.137 850.169 415.328 849.471 415.328 848.885 415.328 848.418 415.135 848.069 414.748 847.72 414.361 847.545 413.846 847.545 413.204 847.545 412.685 847.654 412.133 847.871 411.548L847.687 411.491C846.78 412.813 845.921 413.78 845.109 414.394 844.298 415.007 843.438 415.314 842.532 415.314 841.494 415.314 840.689 414.922 840.118 414.139 839.547 413.355 839.261 412.256 839.261 410.84 839.261 409.216 839.58 407.656 840.217 406.16 840.854 404.663 841.73 403.483 842.844 402.62 843.958 401.756 845.199 401.324 846.568 401.324Z" fill-rule="evenodd"/><text fill="#000000" fill-opacity="0" font-family="Arial,Arial_MSFontService,sans-serif" font-size="14.0186" x="825.261" y="413.59">ğ‘ğ‘ğ‘ ğ‘œ</text></g></svg>