<svg width="1280" height="720" xmlns="http://www.w3.org/2000/svg" xmlns:xlink="http://www.w3.org/1999/xlink" overflow="hidden"><defs><clipPath id="clip0"><rect x="0" y="0" width="1280" height="720"/></clipPath></defs><g clip-path="url(#clip0)"><rect x="0" y="0" width="1280" height="720" fill="#FFFFFF"/><text font-family="Cambria Math,Cambria Math_MSFontService,sans-serif" font-weight="400" font-size="27" transform="translate(498.281 377)">𝑠𝑖𝑔<tspan font-size="27" x="45.0267" y="0">=</tspan><tspan font-size="27" x="68.7267" y="0"> </tspan><tspan font-size="27" x="137.113" y="-20">1</tspan><tspan font-size="27" x="151.947" y="-20">.</tspan>0<tspan font-size="27" x="78.2667" y="19">(</tspan>1<tspan font-size="27" x="104.1" y="19">.</tspan>0<tspan font-size="27" x="130.36" y="19">+</tspan><tspan font-size="27" x="156.287" y="19">𝑒</tspan></text><path d="M709.856 373.376C711.757 373.878 713.217 374.96 714.236 376.623 715.255 378.287 715.764 380.294 715.764 382.644 715.764 385.001 715.256 387.008 714.241 388.664 713.225 390.321 711.763 391.4 709.856 391.902L709.621 391.15C711.125 390.649 712.243 389.659 712.976 388.181 713.708 386.703 714.075 384.825 714.075 382.546 714.075 380.346 713.71 378.518 712.981 377.063 712.252 375.608 711.122 374.63 709.592 374.128ZM676.834 373.376 677.097 374.128C675.574 374.63 674.446 375.608 673.714 377.063 672.981 378.518 672.615 380.346 672.615 382.546 672.615 384.825 672.981 386.703 673.714 388.181 674.446 389.659 675.564 390.649 677.068 391.15L676.834 391.902C674.926 391.4 673.465 390.321 672.449 388.664 671.433 387.008 670.925 385.001 670.925 382.644 670.925 380.294 671.435 378.287 672.454 376.623 673.473 374.96 674.933 373.878 676.834 373.376Z" fill-rule="evenodd"/><text font-family="Cambria Math,Cambria Math_MSFontService,sans-serif" font-weight="400" font-size="20" transform="translate(677.248 388)">−<tspan font-size="20" x="14.1667" y="0">𝑣</tspan><tspan font-size="16" x="25.1667" y="4">𝑖</tspan><tspan font-size="27" x="41.16" y="8">)</tspan></text><path d="M576.848 369.121 729.848 369.121 729.848 371.121 576.848 371.121Z" fill-rule="evenodd"/></g></svg>