<svg width="1280" height="720" xmlns="http://www.w3.org/2000/svg" xmlns:xlink="http://www.w3.org/1999/xlink" overflow="hidden"><defs><clipPath id="clip0"><rect x="0" y="0" width="1280" height="720"/></clipPath></defs><g clip-path="url(#clip0)"><rect x="0" y="0" width="1280" height="720" fill="#FFFFFF"/><text font-family="Cambria Math,Cambria Math_MSFontService,sans-serif" font-weight="400" font-size="27" transform="translate(243.253 380)">𝑐𝑖𝑛𝑒𝑟𝑐𝑖𝑎</text><path d="M364.65 359.917C367.217 360.594 369.188 362.055 370.563 364.301 371.938 366.547 372.626 369.256 372.626 372.429 372.626 375.61 371.941 378.32 370.57 380.556 369.198 382.793 367.225 384.25 364.65 384.927L364.334 383.912C366.364 383.235 367.874 381.899 368.862 379.904 369.851 377.909 370.345 375.373 370.345 372.297 370.345 369.326 369.853 366.859 368.869 364.894 367.885 362.93 366.36 361.609 364.294 360.933ZM351.922 359.917 352.278 360.933C350.222 361.609 348.699 362.93 347.71 364.894 346.721 366.859 346.227 369.326 346.227 372.297 346.227 375.373 346.721 377.909 347.71 379.904 348.699 381.899 350.208 383.235 352.239 383.912L351.922 384.927C349.347 384.25 347.374 382.793 346.003 380.556 344.632 378.32 343.946 375.61 343.946 372.429 343.946 369.256 344.634 366.547 346.01 364.301 347.385 362.055 349.356 360.594 351.922 359.917Z" fill-rule="evenodd"/><text font-family="Cambria Math,Cambria Math_MSFontService,sans-serif" font-weight="400" font-size="27" transform="translate(352.64 380)">𝑡<tspan font-size="27" x="29.6267" y="0">=</tspan><tspan font-size="27" x="57.0333" y="0">𝑚𝑎𝑥</tspan><tspan font-size="27" x="108.367" y="0">𝑖𝑛𝑒𝑟𝑐𝑖</tspan><tspan font-size="27" x="178.867" y="0">𝑎</tspan><tspan font-size="27" x="194.353" y="0"> </tspan><tspan font-size="27" x="206.113" y="0">−</tspan></text><path d="M909.597 339.737C912.163 340.414 914.134 341.875 915.51 344.121 916.885 346.367 917.573 349.076 917.573 352.249 917.573 355.43 916.887 358.14 915.516 360.376 914.145 362.613 912.172 364.07 909.597 364.747L909.28 363.732C911.311 363.055 912.82 361.719 913.809 359.724 914.798 357.729 915.292 355.193 915.292 352.117 915.292 349.146 914.8 346.679 913.816 344.714 912.831 342.75 911.306 341.429 909.241 340.753ZM595.029 339.737 595.385 340.753C593.328 341.429 591.806 342.75 590.817 344.714 589.828 346.679 589.334 349.146 589.334 352.117 589.334 355.193 589.828 357.729 590.817 359.724 591.806 361.719 593.315 363.055 595.345 363.732L595.029 364.747C592.454 364.07 590.481 362.613 589.11 360.376 587.739 358.14 587.053 355.43 587.053 352.249 587.053 349.076 587.741 346.367 589.116 344.121 590.492 341.875 592.463 340.414 595.029 339.737Z" fill-rule="evenodd"/><text font-family="Cambria Math,Cambria Math_MSFontService,sans-serif" font-weight="400" font-size="27" transform="translate(595.747 360)">𝑚𝑎𝑥𝑖𝑛𝑒𝑟𝑐𝑖𝑎<tspan font-size="27" x="137.32" y="0"> </tspan><tspan font-size="27" x="149.08" y="0">−</tspan><tspan font-size="27" x="175.007" y="0">𝑚𝑖𝑛𝑖𝑛𝑐𝑒𝑟𝑖𝑎</tspan><tspan font-size="27" x="307.16" y="0"> </tspan><tspan font-size="27" x="55.14" y="38">𝑚𝑎𝑥𝑖𝑛𝑡𝑒𝑟𝑎𝑐𝑖𝑜𝑛𝑒𝑠</tspan></text><path d="M584.453 372.121 751.953 372.121 919.453 372.121 919.453 374.121 751.953 374.121 584.453 374.121Z" fill-rule="evenodd"/><text font-family="Cambria Math,Cambria Math_MSFontService,sans-serif" font-weight="400" font-size="27" transform="translate(922.767 380)"><tspan font-size="27" x="8.79999" y="0">∗</tspan><tspan font-size="27" x="27.56" y="0">𝑡</tspan></text></g></svg>