<svg width="1280" height="720" xmlns="http://www.w3.org/2000/svg" xmlns:xlink="http://www.w3.org/1999/xlink" overflow="hidden"><defs><clipPath id="clip0"><rect x="0" y="0" width="1280" height="720"/></clipPath></defs><g clip-path="url(#clip0)"><rect x="0" y="0" width="1280" height="720" fill="#FFFFFF"/><text font-family="Cambria Math,Cambria Math_MSFontService,sans-serif" font-weight="400" font-size="29" transform="translate(93.5677 367)">𝑣<tspan font-size="21" x="15.7133" y="6">𝑖</tspan></text><path d="M144.041 345.386C146.798 346.113 148.915 347.683 150.392 350.095 151.87 352.507 152.608 355.416 152.608 358.824 152.608 362.242 151.872 365.152 150.399 367.554 148.927 369.957 146.807 371.521 144.041 372.248L143.702 371.158C145.882 370.431 147.504 368.996 148.566 366.853 149.628 364.71 150.159 361.987 150.159 358.683 150.159 355.492 149.63 352.842 148.573 350.732 147.515 348.622 145.878 347.204 143.659 346.477ZM129.85 345.386 130.232 346.477C128.023 347.204 126.388 348.622 125.326 350.732 124.264 352.842 123.733 355.492 123.733 358.683 123.733 361.987 124.264 364.71 125.326 366.853 126.388 368.996 128.009 370.431 130.19 371.158L129.85 372.248C127.084 371.521 124.965 369.957 123.492 367.554 122.019 365.152 121.283 362.242 121.283 358.824 121.283 355.416 122.022 352.507 123.499 350.095 124.977 347.683 127.094 346.113 129.85 345.386Z" fill-rule="evenodd"/><text font-family="Cambria Math,Cambria Math_MSFontService,sans-serif" font-weight="400" font-size="29" transform="translate(130.908 367)">𝑡<tspan font-size="29" x="32.5333" y="0">=</tspan><tspan font-size="29" x="62.5133" y="0">𝑐𝑖𝑛𝑒𝑟𝑐𝑖𝑎</tspan><tspan font-size="29" x="177.08" y="0">∗</tspan><tspan font-size="29" x="197.767" y="0">𝑣</tspan><tspan font-size="21" x="213.48" y="6">𝑖</tspan></text><path d="M430.188 345.386C432.945 346.113 435.062 347.683 436.539 350.095 438.016 352.507 438.755 355.416 438.755 358.824 438.755 362.242 438.019 365.152 436.546 367.554 435.073 369.957 432.954 371.521 430.188 372.248L429.848 371.158C432.029 370.431 433.65 368.996 434.712 366.853 435.774 364.71 436.305 361.987 436.305 358.683 436.305 355.492 435.777 352.842 434.719 350.732 433.662 348.622 432.024 347.204 429.806 346.477ZM364.957 345.386 365.339 346.477C363.13 347.204 361.495 348.622 360.433 350.732 359.371 352.842 358.84 355.492 358.84 358.683 358.84 361.987 359.371 364.71 360.433 366.853 361.495 368.996 363.116 370.431 365.297 371.158L364.957 372.248C362.191 371.521 360.071 369.957 358.599 367.554 357.126 365.152 356.39 362.242 356.39 358.824 356.39 355.416 357.129 352.507 358.606 350.095 360.083 347.683 362.2 346.113 364.957 345.386Z" fill-rule="evenodd"/><text font-family="Cambria Math,Cambria Math_MSFontService,sans-serif" font-weight="400" font-size="29" transform="translate(366.014 367)">𝑡<tspan font-size="29" x="18.7333" y="0">−</tspan><tspan font-size="29" x="47.0867" y="0">1</tspan><tspan font-size="29" x="81.9467" y="0">+</tspan><tspan font-size="29" x="110.3" y="0">𝑐𝑐𝑜𝑔𝑛𝑖𝑡𝑖𝑣𝑜</tspan><tspan font-size="29" x="256.8" y="0">∗</tspan></text><path d="M822.281 345.386C825.038 346.113 827.155 347.683 828.632 350.095 830.11 352.507 830.848 355.416 830.848 358.824 830.848 362.242 830.112 365.152 828.639 367.554 827.167 369.957 825.047 371.521 822.281 372.248L821.942 371.158C824.122 370.431 825.744 368.996 826.806 366.853 827.868 364.71 828.399 361.987 828.399 358.683 828.399 355.492 827.87 352.842 826.813 350.732 825.755 348.622 824.117 347.204 821.899 346.477ZM654.617 345.386 654.999 346.477C652.79 347.204 651.155 348.622 650.093 350.732 649.031 352.842 648.5 355.492 648.5 358.683 648.5 361.987 649.031 364.71 650.093 366.853 651.155 368.996 652.776 370.431 654.957 371.158L654.617 372.248C651.851 371.521 649.731 369.957 648.259 367.554 646.786 365.152 646.05 362.242 646.05 358.824 646.05 355.416 646.789 352.507 648.266 350.095 649.743 347.683 651.86 346.113 654.617 345.386Z" fill-rule="evenodd"/><text font-family="Cambria Math,Cambria Math_MSFontService,sans-serif" font-weight="400" font-size="29" transform="translate(655.674 367)">𝑏𝑝𝑜𝑠<tspan font-size="21" x="60.6201" y="6">𝑖</tspan><tspan font-size="29" x="76.5934" y="0">−</tspan><tspan font-size="29" x="101.687" y="0"> </tspan><tspan font-size="29" x="111.447" y="0">𝑝𝑜𝑠</tspan><tspan font-size="21" x="156.233" y="6">𝑖</tspan><tspan font-size="29" x="184.38" y="0">+</tspan><tspan font-size="29" x="212.733" y="0">𝑐𝑠𝑜𝑐𝑖𝑎𝑙</tspan><tspan font-size="29" x="311.353" y="0">∗</tspan></text><path d="M1122.87 345.386C1125.63 346.113 1127.75 347.683 1129.23 350.095 1130.7 352.507 1131.44 355.416 1131.44 358.824 1131.44 362.242 1130.71 365.152 1129.23 367.554 1127.76 369.957 1125.64 371.521 1122.87 372.248L1122.53 371.158C1124.72 370.431 1126.34 368.996 1127.4 366.853 1128.46 364.71 1128.99 361.987 1128.99 358.683 1128.99 355.492 1128.46 352.842 1127.41 350.732 1126.35 348.622 1124.71 347.204 1122.49 346.477ZM998.83 345.386 999.212 346.477C997.003 347.204 995.368 348.622 994.306 350.732 993.244 352.842 992.713 355.492 992.713 358.683 992.713 361.987 993.244 364.71 994.306 366.853 995.368 368.996 996.989 370.431 999.17 371.158L998.83 372.248C996.064 371.521 993.945 369.957 992.472 367.554 991 365.152 990.263 362.242 990.263 358.824 990.263 355.416 991.002 352.507 992.479 350.095 993.957 347.683 996.074 346.113 998.83 345.386Z" fill-rule="evenodd"/><text font-family="Cambria Math,Cambria Math_MSFontService,sans-serif" font-weight="400" font-size="29" transform="translate(999.888 367)">𝑔<tspan font-size="21" x="17" y="6">𝑖</tspan><tspan font-size="29" x="32.9733" y="0">−</tspan><tspan font-size="29" x="58.0667" y="0"> </tspan><tspan font-size="29" x="67.8267" y="0">𝑝𝑜𝑠</tspan><tspan font-size="21" x="112.613" y="6">𝑖</tspan></text></g></svg>