<svg width="1280" height="720" xmlns="http://www.w3.org/2000/svg" xmlns:xlink="http://www.w3.org/1999/xlink" overflow="hidden"><defs><clipPath id="clip0"><rect x="0" y="0" width="1280" height="720"/></clipPath></defs><g clip-path="url(#clip0)"><rect x="0" y="0" width="1280" height="720" fill="#FFFFFF"/><path d="M431.77 365.204C432.637 365.204 433.263 365.43 433.649 365.882 434.034 366.333 434.227 366.939 434.227 367.697 434.227 368.276 434.125 368.938 433.92 369.685 433.715 370.431 433.426 371.22 433.053 372.051 432.679 372.882 432.234 373.735 431.716 374.608 431.198 375.481 430.626 376.33 429.999 377.155 429.373 377.98 428.705 378.757 427.994 379.486 427.283 380.214 426.546 380.85 425.781 381.392 425.016 381.934 424.239 382.364 423.45 382.684 422.661 383.003 421.876 383.162 421.093 383.162 420.743 383.162 420.451 383.075 420.216 382.9 419.982 382.726 419.792 382.479 419.647 382.16 419.503 381.84 419.4 381.464 419.34 381.03 419.28 380.597 419.25 380.121 419.25 379.603 419.25 378.917 419.292 378.182 419.376 377.399 419.461 376.616 419.569 375.827 419.702 375.032L420.46 370.028C420.509 369.739 420.548 369.465 420.578 369.206 420.608 368.947 420.623 368.757 420.623 368.637 420.623 368.263 420.563 367.956 420.442 367.715 420.322 367.475 420.117 367.354 419.828 367.354 419.599 367.354 419.352 367.423 419.087 367.562 418.822 367.7 418.554 367.878 418.283 368.095 418.012 368.312 417.75 368.544 417.497 368.79 417.245 369.037 417.01 369.269 416.793 369.486L415.926 368.474C416.299 368.089 416.697 367.706 417.118 367.327 417.54 366.948 417.985 366.604 418.455 366.297 418.925 365.99 419.419 365.743 419.936 365.557 420.454 365.37 420.984 365.277 421.526 365.277 421.984 365.277 422.357 365.352 422.646 365.502 422.935 365.653 423.161 365.852 423.324 366.099 423.486 366.345 423.598 366.616 423.658 366.912 423.718 367.207 423.748 367.499 423.748 367.788 423.748 367.956 423.742 368.119 423.73 368.276 423.718 368.432 423.7 368.577 423.676 368.709L422.664 375.249C422.556 375.936 422.466 376.607 422.393 377.264 422.321 377.92 422.285 378.501 422.285 379.007 422.285 379.513 422.315 379.922 422.375 380.236 422.436 380.549 422.55 380.705 422.719 380.705 423.116 380.705 423.616 380.546 424.218 380.226 424.82 379.907 425.453 379.468 426.115 378.908 426.778 378.348 427.44 377.685 428.102 376.92 428.765 376.156 429.361 375.327 429.891 374.436 430.421 373.545 430.852 372.605 431.183 371.618 431.514 370.63 431.68 369.637 431.68 368.637 431.68 368.203 431.586 367.869 431.4 367.634 431.213 367.399 430.921 367.282 430.523 367.282 430.017 367.282 429.551 367.478 429.123 367.869 428.696 368.26 428.253 368.775 427.795 369.414L426.766 368.492C427.055 368.059 427.395 367.643 427.786 367.246 428.178 366.848 428.593 366.499 429.033 366.198 429.472 365.897 429.927 365.656 430.397 365.475 430.867 365.295 431.324 365.204 431.77 365.204Z" fill-rule="evenodd"/><text fill="#000000" fill-opacity="0" font-family="Arial,Arial_MSFontService,sans-serif" font-size="17.958" x="415.926" y="380.918">𝑣</text><path d="M463.43 366.74C462.178 366.74 461.085 367.264 460.151 368.312 459.218 369.36 458.483 370.859 457.947 372.81 457.411 374.761 457.143 376.442 457.143 377.851 457.143 379.176 457.417 380.154 457.965 380.787 458.513 381.419 459.341 381.735 460.449 381.735 461.63 381.735 462.678 381.205 463.593 380.145 464.508 379.085 465.231 377.601 465.761 375.692 466.291 373.783 466.556 372.106 466.556 370.66 466.556 369.36 466.303 368.381 465.797 367.725 465.291 367.068 464.502 366.74 463.43 366.74ZM512.575 366.704C511.334 366.704 510.22 367.204 509.233 368.203 508.245 369.203 507.474 370.543 506.92 372.223 506.366 373.903 506.089 375.58 506.089 377.255 506.089 378.507 506.261 379.444 506.604 380.064 506.947 380.684 507.522 380.994 508.329 380.994 509.124 380.994 509.904 380.651 510.669 379.965 511.434 379.278 512.223 378.299 513.036 377.029 513.849 375.758 514.424 374.292 514.761 372.63L514.924 371.853C515.032 371.359 515.104 370.931 515.14 370.57 515.177 370.209 515.195 369.817 515.195 369.396 515.195 368.468 514.996 367.788 514.598 367.354 514.201 366.921 513.526 366.704 512.575 366.704ZM496.492 365.421 497.558 365.421 494.956 377.02C494.691 378.2 494.559 379.091 494.559 379.694 494.559 380.175 494.637 380.525 494.794 380.741 494.95 380.958 495.197 381.067 495.534 381.067 495.896 381.067 496.281 380.919 496.691 380.624 497.1 380.329 497.678 379.766 498.425 378.935L499.455 379.946C498.275 381.187 497.317 382.03 496.582 382.476 495.848 382.921 495.023 383.144 494.107 383.144 493.324 383.144 492.698 382.858 492.228 382.286 491.759 381.714 491.524 380.982 491.524 380.091 491.524 379.176 491.692 378.007 492.03 376.586L493.385 370.678C493.662 369.474 493.8 368.571 493.8 367.968 493.8 367.426 493.671 367.059 493.412 366.866 493.153 366.674 492.644 366.565 491.885 366.541L492.084 365.584ZM483.954 365.295C485.556 365.295 487.032 365.475 488.381 365.837L487.495 369.92 485.598 369.92C485.574 369.004 485.499 368.342 485.373 367.932 485.246 367.523 485.041 367.216 484.758 367.011 484.475 366.806 484.075 366.704 483.557 366.704 482.34 366.704 481.247 367.189 480.278 368.158 479.308 369.128 478.516 370.501 477.902 372.277 477.288 374.054 476.981 375.761 476.981 377.399 476.981 378.628 477.222 379.54 477.703 380.136 478.185 380.732 478.908 381.03 479.871 381.03 480.967 381.03 481.916 380.823 482.717 380.407 483.518 379.992 484.364 379.338 485.255 378.447L486.357 379.549C485.225 380.802 484.084 381.717 482.934 382.295 481.783 382.873 480.546 383.162 479.221 383.162 477.475 383.162 476.15 382.644 475.246 381.609 474.343 380.573 473.891 379.067 473.891 377.092 473.891 375.803 474.132 374.388 474.614 372.846 475.096 371.305 475.8 369.95 476.728 368.781 477.655 367.613 478.739 366.74 479.98 366.162 481.22 365.584 482.545 365.295 483.954 365.295ZM463.792 365.295C465.719 365.295 467.188 365.822 468.2 366.875 469.212 367.929 469.718 369.438 469.718 371.401 469.718 372.798 469.474 374.292 468.986 375.882 468.498 377.471 467.83 378.808 466.98 379.892 466.131 380.976 465.117 381.792 463.936 382.34 462.756 382.888 461.401 383.162 459.871 383.162 458.004 383.162 456.556 382.638 455.526 381.59 454.497 380.543 453.982 379.037 453.982 377.074 453.982 376.11 454.126 374.996 454.415 373.732 454.789 372.021 455.415 370.528 456.294 369.251 457.173 367.974 458.257 366.996 459.546 366.315 460.835 365.635 462.25 365.295 463.792 365.295ZM445.075 365.295C446.196 365.295 447.216 365.361 448.138 365.493 449.059 365.626 449.977 365.855 450.893 366.18L450.08 369.974 448.616 369.974C448.484 368.902 448.132 368.089 447.56 367.535 446.987 366.981 446.087 366.704 444.859 366.704 443.907 366.704 443.136 366.948 442.546 367.435 441.956 367.923 441.661 368.565 441.661 369.36 441.661 369.793 441.736 370.176 441.887 370.507 442.037 370.838 442.341 371.202 442.799 371.6 443.257 371.997 443.967 372.485 444.931 373.063 445.69 373.521 446.298 373.939 446.756 374.319 447.213 374.698 447.575 375.075 447.84 375.448 448.105 375.821 448.297 376.216 448.418 376.631 448.538 377.047 448.598 377.55 448.598 378.14 448.598 379.212 448.312 380.13 447.74 380.895 447.168 381.66 446.391 382.229 445.41 382.602 444.428 382.976 443.311 383.162 442.058 383.162 441.059 383.162 440.077 383.087 439.114 382.936 438.15 382.786 437.078 382.53 435.898 382.169L436.765 378.23 438.174 378.23C438.222 379.386 438.547 380.26 439.15 380.85 439.752 381.44 440.709 381.735 442.022 381.735 443.166 381.735 444.061 381.479 444.705 380.967 445.349 380.455 445.672 379.73 445.672 378.79 445.672 378.248 445.581 377.781 445.401 377.39 445.22 376.999 444.925 376.622 444.515 376.261 444.106 375.9 443.455 375.448 442.564 374.906 441.625 374.34 440.893 373.828 440.369 373.37 439.845 372.913 439.451 372.416 439.186 371.88 438.921 371.344 438.788 370.727 438.788 370.028 438.788 369.076 439.044 368.242 439.556 367.526 440.068 366.809 440.8 366.258 441.751 365.873 442.703 365.487 443.811 365.295 445.075 365.295ZM512.214 365.277C512.997 365.277 513.728 365.364 514.409 365.538 515.089 365.713 515.791 366.023 516.513 366.469L518.176 365.277 519.332 365.566 516.676 377.02C516.411 378.164 516.279 379.055 516.279 379.694 516.279 380.175 516.357 380.525 516.513 380.741 516.67 380.958 516.917 381.067 517.254 381.067 517.615 381.067 518.001 380.919 518.41 380.624 518.82 380.329 519.398 379.766 520.145 378.935L521.175 379.946C520.091 381.103 519.166 381.925 518.401 382.413 517.637 382.9 516.809 383.144 515.917 383.144 515.17 383.144 514.574 382.897 514.129 382.403 513.683 381.91 513.46 381.253 513.46 380.434 513.46 379.772 513.599 379.067 513.876 378.32L513.641 378.248C512.485 379.934 511.389 381.169 510.353 381.952 509.317 382.735 508.221 383.126 507.065 383.126 505.74 383.126 504.713 382.626 503.984 381.627 503.256 380.627 502.891 379.224 502.891 377.417 502.891 375.346 503.298 373.355 504.111 371.446 504.924 369.537 506.041 368.032 507.462 366.93 508.883 365.828 510.467 365.277 512.214 365.277ZM496.004 358.502 499.202 358.502 498.371 362.007 495.173 362.007ZM531.299 357.02 532.365 357.02 527.92 377.02C527.655 378.212 527.523 379.103 527.523 379.694 527.523 380.175 527.601 380.525 527.758 380.741 527.914 380.958 528.161 381.067 528.498 381.067 528.86 381.067 529.245 380.919 529.655 380.624 530.064 380.329 530.642 379.766 531.389 378.935L532.419 379.946C531.25 381.175 530.296 382.015 529.555 382.467 528.814 382.918 527.986 383.144 527.071 383.144 526.288 383.144 525.662 382.858 525.192 382.286 524.722 381.714 524.488 380.982 524.488 380.091 524.488 379.284 524.656 378.116 524.993 376.586L528.227 362.115C528.372 361.477 528.474 360.968 528.534 360.588 528.595 360.209 528.625 359.857 528.625 359.531 528.625 359.17 528.559 358.896 528.426 358.709 528.294 358.523 528.104 358.387 527.857 358.303 527.61 358.219 527.167 358.158 526.529 358.122L526.746 357.183Z" fill-rule="evenodd"/><text fill="#000000" fill-opacity="0" font-family="Arial,Arial_MSFontService,sans-serif" font-size="26.1421" x="435.898" y="379.895">𝑠𝑜𝑐𝑖𝑎𝑙</text><path d="M547.913 374.834 570.171 374.834 570.171 377.236 547.913 377.236ZM547.913 367.336 570.171 367.336 570.171 369.739 547.913 369.739Z" fill-rule="evenodd"/><text fill="#000000" fill-opacity="0" font-family="Arial,Arial_MSFontService,sans-serif" font-size="9.90039" x="547.913" y="375.999">=</text><path d="M600.699 325.47 600.699 327.077C599.447 327.282 598.317 327.782 597.312 328.577 596.306 329.372 595.448 330.465 594.737 331.856 594.027 333.247 593.479 334.948 593.093 336.96 592.708 338.971 592.515 341.29 592.515 343.915 592.515 345.879 592.762 348.853 593.256 352.84 593.75 356.827 593.997 359.434 593.997 360.663 593.997 363.855 593.424 366.441 592.28 368.422 591.136 370.404 589.998 371.617 588.866 372.063L588.866 372.478C589.998 372.924 591.136 374.128 592.28 376.092 593.424 378.055 593.997 380.638 593.997 383.842 593.997 384.577 593.75 387.269 593.256 391.918 592.762 396.567 592.515 399.439 592.515 400.535 592.515 403.197 592.693 405.531 593.048 407.536 593.403 409.542 593.948 411.249 594.683 412.658 595.43 414.091 596.3 415.202 597.294 415.991 598.287 416.78 599.423 417.277 600.699 417.482L600.699 419.09C597.086 418.813 594.243 416.976 592.172 413.579 590.1 410.183 589.064 405.612 589.064 399.867 589.064 397.711 589.332 394.483 589.868 390.183 590.404 385.884 590.672 383.186 590.672 382.09 590.672 379.235 590.2 377.04 589.254 375.504 588.309 373.969 586.975 373.177 585.252 373.129L585.252 371.412C586.963 371.364 588.294 370.59 589.245 369.091 590.197 367.591 590.672 365.372 590.672 362.433 590.672 361.096 590.404 358.564 589.868 354.836 589.332 351.109 589.064 348.028 589.064 345.596 589.064 339.465 590.073 334.695 592.091 331.287 594.108 327.878 596.978 325.939 600.699 325.47Z" fill-rule="evenodd"/><text fill="#000000" fill-opacity="0" font-family="Arial,Arial_MSFontService,sans-serif" font-size="93.6201" x="585.252" y="407.387">ቊ</text><path d="M613.692 333.145 614.686 333.145C614.613 334.302 614.577 335.904 614.577 337.951L614.577 353.38C614.577 354.078 614.616 354.605 614.695 354.961 614.773 355.316 614.911 355.605 615.11 355.828 615.309 356.051 615.595 356.225 615.968 356.352 616.342 356.478 616.811 356.575 617.378 356.641 617.944 356.707 618.69 356.752 619.618 356.776L619.618 358.095 606.267 358.095 606.267 356.776C607.604 356.716 608.558 356.635 609.13 356.532 609.702 356.43 610.139 356.276 610.44 356.072 610.741 355.867 610.961 355.578 611.099 355.204 611.238 354.831 611.307 354.223 611.307 353.38L611.307 338.728C611.307 338.246 611.223 337.894 611.054 337.671 610.886 337.448 610.639 337.337 610.314 337.337 609.928 337.337 609.38 337.536 608.669 337.933 607.959 338.33 607.08 338.878 606.032 339.577L605.237 338.186Z" fill-rule="evenodd"/><text fill="#000000" fill-opacity="0" font-family="Arial,Arial_MSFontService,sans-serif" font-size="24.9497" x="605.237" y="354.976">1</text><path d="M625.109 353.904 628.27 353.904C628.439 354.747 628.523 355.578 628.523 356.397 628.523 357.24 628.379 358.011 628.09 358.709 627.801 359.408 627.34 360.104 626.708 360.796 626.075 361.489 625.205 362.25 624.097 363.081L623.121 361.979C623.736 361.401 624.181 360.88 624.458 360.417 624.735 359.953 624.934 359.426 625.054 358.836 625.175 358.246 625.235 357.505 625.235 356.614 625.235 355.698 625.193 354.795 625.109 353.904Z" fill-rule="evenodd"/><text fill="#000000" fill-opacity="0" font-family="Arial,Arial_MSFontService,sans-serif" font-size="9.17773" x="623.121" y="361.934">,</text><path d="M644.072 340.661 645.138 340.661 642.536 352.26C642.271 353.44 642.139 354.331 642.139 354.934 642.139 355.415 642.217 355.765 642.374 355.981 642.53 356.198 642.777 356.307 643.114 356.307 643.476 356.307 643.861 356.159 644.271 355.864 644.68 355.569 645.258 355.006 646.005 354.175L647.035 355.186C645.854 356.427 644.897 357.27 644.162 357.716 643.428 358.161 642.603 358.384 641.687 358.384 640.904 358.384 640.278 358.098 639.808 357.526 639.339 356.954 639.104 356.222 639.104 355.331 639.104 354.416 639.272 353.247 639.61 351.826L640.965 345.918C641.242 344.714 641.38 343.811 641.38 343.208 641.38 342.666 641.251 342.299 640.992 342.106 640.733 341.914 640.224 341.805 639.465 341.781L639.664 340.824ZM643.584 333.742 646.782 333.742 645.951 337.246 642.753 337.246ZM665.593 332.152C666.773 332.152 667.791 332.248 668.646 332.441L667.942 335.512 666.352 335.512C666.183 334.826 665.963 334.332 665.692 334.031 665.421 333.73 665.021 333.579 664.491 333.579 663.804 333.579 663.223 333.769 662.747 334.148 662.272 334.527 661.865 335.091 661.528 335.837 661.191 336.584 660.878 337.59 660.589 338.854L660.137 340.824 664.78 340.824 664.383 342.648 659.721 342.648 656.361 358.402C655.807 361.016 654.958 362.964 653.814 364.247 652.669 365.529 651.23 366.171 649.496 366.171 648.99 366.171 648.592 366.141 648.303 366.08L648.611 364.491C648.731 364.527 649.014 364.545 649.46 364.545 650.002 364.545 650.465 364.406 650.851 364.129 651.236 363.852 651.594 363.371 651.926 362.684 652.257 361.997 652.561 361.046 652.838 359.829L656.722 342.648 653.669 342.648 653.94 341.402C654.747 341.354 655.328 341.287 655.684 341.203 656.039 341.119 656.316 340.992 656.515 340.824 656.713 340.655 656.882 340.435 657.02 340.164 657.159 339.893 657.337 339.396 657.553 338.674 658.192 336.506 659.176 334.877 660.507 333.787 661.838 332.697 663.533 332.152 665.593 332.152Z" fill-rule="evenodd"/><text fill="#000000" fill-opacity="0" font-family="Arial,Arial_MSFontService,sans-serif" font-size="34.019" x="639.104" y="361.918">𝑖𝑓</text><path d="M691.989 341.944C690.76 341.944 689.658 342.441 688.682 343.434 687.707 344.428 686.939 345.768 686.379 347.454 685.819 349.14 685.539 350.82 685.539 352.495 685.539 353.747 685.719 354.684 686.081 355.304 686.442 355.924 687.008 356.234 687.779 356.234 688.393 356.234 689.005 356.023 689.613 355.602 690.221 355.18 690.871 354.512 691.564 353.597 692.257 352.681 692.795 351.808 693.181 350.977 693.566 350.146 693.895 349.11 694.166 347.87 694.437 346.629 694.572 345.551 694.572 344.636 694.572 343.696 694.373 343.013 693.976 342.585 693.578 342.158 692.916 341.944 691.989 341.944ZM691.699 340.517C692.458 340.517 693.175 340.607 693.849 340.788 694.524 340.968 695.204 341.275 695.891 341.709L697.553 340.517 698.709 340.806 696.848 349.225C696.716 349.815 696.415 351.302 695.945 353.687 695.451 356.216 695.051 358.005 694.744 359.053 694.437 360.1 694.054 361.055 693.596 361.916 693.139 362.777 692.549 363.527 691.826 364.165 691.103 364.804 690.227 365.298 689.197 365.647 688.167 365.996 686.948 366.171 685.539 366.171 680.986 366.171 678.71 364.846 678.71 362.196 678.71 361.522 678.914 360.907 679.324 360.353 679.733 359.799 680.39 359.215 681.293 358.601L682.594 359.649C682.365 359.926 682.172 360.2 682.016 360.471 681.859 360.742 681.748 361.004 681.682 361.257 681.615 361.51 681.582 361.811 681.582 362.16 681.582 363.063 681.907 363.723 682.558 364.138 683.208 364.554 684.19 364.762 685.503 364.762 686.984 364.762 688.174 364.427 689.071 363.759 689.968 363.09 690.736 362.016 691.374 360.534 692.013 359.053 692.633 356.812 693.235 353.813L692.982 353.759C691.814 355.361 690.73 356.529 689.73 357.264 688.731 357.999 687.653 358.366 686.496 358.366 685.184 358.366 684.163 357.872 683.434 356.885 682.705 355.897 682.341 354.488 682.341 352.657 682.341 350.598 682.745 348.619 683.552 346.722 684.358 344.825 685.479 343.317 686.912 342.197 688.345 341.077 689.941 340.517 691.699 340.517Z" fill-rule="evenodd"/><text fill="#000000" fill-opacity="0" font-family="Arial,Arial_MSFontService,sans-serif" font-size="25.6543" x="678.71" y="362.964">𝑔</text><path d="M706.056 352.387 706.702 352.387 704.751 361.167C704.628 361.685 704.542 362.098 704.494 362.406 704.445 362.714 704.421 362.991 704.421 363.237 704.421 363.571 704.489 363.812 704.625 363.962 704.762 364.111 704.966 364.186 705.238 364.186 705.397 364.186 705.555 364.155 705.713 364.094 705.871 364.032 706.04 363.935 706.221 363.803 706.401 363.672 706.599 363.502 706.814 363.296 707.029 363.089 707.269 362.841 707.532 362.551L708.429 363.421C707.972 363.887 707.557 364.28 707.183 364.601 706.81 364.922 706.456 365.183 706.122 365.386 705.788 365.588 705.46 365.733 705.14 365.821 704.819 365.908 704.478 365.952 704.118 365.952 703.784 365.952 703.483 365.891 703.215 365.768 702.947 365.645 702.716 365.476 702.523 365.26 702.329 365.045 702.18 364.788 702.074 364.489 701.969 364.19 701.916 363.861 701.916 363.5 701.916 363.21 701.951 362.85 702.022 362.419 702.092 361.989 702.182 361.521 702.292 361.015 702.402 360.51 702.523 359.98 702.654 359.427 702.786 358.873 702.916 358.324 703.043 357.779 703.171 357.234 703.285 356.709 703.386 356.203 703.487 355.698 703.56 355.239 703.604 354.825 703.621 354.755 703.63 354.687 703.63 354.621 703.63 354.555 703.63 354.496 703.63 354.443 703.612 354.1 703.492 353.85 703.268 353.692 703.043 353.533 702.646 353.446 702.074 353.428L702.233 352.532ZM705.291 347.074 707.928 347.074 707.282 349.908 704.672 349.908Z" fill-rule="evenodd"/><text fill="#000000" fill-opacity="0" font-family="Arial,Arial_MSFontService,sans-serif" font-size="18.8789" x="701.916" y="363.593">𝑖</text><path d="M724.766 350.074 747.024 350.074 747.024 352.476 724.766 352.476ZM724.766 342.576 747.024 342.576 747.024 344.979 724.766 344.979Z" fill-rule="evenodd"/><text fill="#000000" fill-opacity="0" font-family="Arial,Arial_MSFontService,sans-serif" font-size="9.90039" x="724.766" y="351.239">=</text><path d="M752.6 350.074 774.857 350.074 774.857 352.476 752.6 352.476ZM752.6 342.576 774.857 342.576 774.857 344.979 752.6 344.979Z" fill-rule="evenodd"/><text fill="#000000" fill-opacity="0" font-family="Arial,Arial_MSFontService,sans-serif" font-size="9.90039" x="752.6" y="351.239">=</text><path d="M809.578 342.648C808.964 342.648 808.358 342.856 807.762 343.272 807.166 343.687 806.513 344.353 805.802 345.268 805.091 346.183 804.537 347.087 804.14 347.978 803.742 348.869 803.429 349.893 803.201 351.049L803.056 351.808C802.936 352.446 802.86 352.934 802.83 353.271 802.8 353.609 802.785 353.94 802.785 354.265 802.785 355.204 802.987 355.888 803.39 356.316 803.794 356.743 804.489 356.957 805.477 356.957 806.091 356.957 806.657 356.836 807.175 356.596 807.693 356.355 808.184 356.005 808.648 355.548 809.111 355.09 809.53 354.536 809.903 353.886 810.276 353.235 810.611 352.479 810.906 351.618 811.201 350.757 811.424 349.872 811.574 348.963 811.725 348.053 811.8 347.201 811.8 346.406 811.8 345.142 811.622 344.199 811.267 343.579 810.912 342.958 810.349 342.648 809.578 342.648ZM828.717 341.98C827.464 341.98 826.371 342.504 825.438 343.552 824.505 344.6 823.77 346.099 823.234 348.05 822.698 350.001 822.43 351.682 822.43 353.091 822.43 354.416 822.704 355.394 823.252 356.027 823.8 356.659 824.628 356.975 825.736 356.975 826.917 356.975 827.964 356.445 828.88 355.385 829.795 354.325 830.518 352.841 831.048 350.932 831.578 349.023 831.843 347.346 831.843 345.9 831.843 344.6 831.59 343.621 831.084 342.965 830.578 342.308 829.789 341.98 828.717 341.98ZM847.362 340.535C848.482 340.535 849.503 340.601 850.424 340.733 851.346 340.866 852.264 341.095 853.18 341.42L852.367 345.214 850.903 345.214C850.771 344.142 850.418 343.329 849.846 342.775 849.274 342.221 848.374 341.944 847.145 341.944 846.194 341.944 845.423 342.188 844.833 342.675 844.243 343.163 843.948 343.805 843.948 344.6 843.948 345.033 844.023 345.416 844.173 345.747 844.324 346.078 844.628 346.442 845.086 346.84 845.543 347.237 846.254 347.725 847.218 348.303 847.976 348.761 848.585 349.179 849.042 349.559 849.5 349.938 849.861 350.315 850.126 350.688 850.391 351.061 850.584 351.456 850.704 351.871 850.825 352.287 850.885 352.79 850.885 353.38 850.885 354.452 850.599 355.37 850.027 356.135 849.455 356.9 848.678 357.469 847.696 357.842 846.715 358.216 845.598 358.402 844.345 358.402 843.345 358.402 842.364 358.327 841.4 358.176 840.437 358.026 839.365 357.77 838.184 357.409L839.052 353.47 840.461 353.47C840.509 354.626 840.834 355.5 841.436 356.09 842.039 356.68 842.996 356.975 844.309 356.975 845.453 356.975 846.347 356.719 846.992 356.207 847.636 355.695 847.958 354.97 847.958 354.03 847.958 353.488 847.868 353.021 847.687 352.63 847.507 352.239 847.212 351.862 846.802 351.501 846.393 351.14 845.742 350.688 844.851 350.146 843.911 349.58 843.18 349.068 842.656 348.61 842.132 348.153 841.737 347.656 841.472 347.12 841.208 346.584 841.075 345.967 841.075 345.268 841.075 344.316 841.331 343.482 841.843 342.766 842.355 342.049 843.086 341.498 844.038 341.113 844.989 340.727 846.097 340.535 847.362 340.535ZM829.078 340.535C831.005 340.535 832.475 341.062 833.487 342.115 834.498 343.169 835.004 344.678 835.004 346.641 835.004 348.038 834.76 349.532 834.273 351.121 833.785 352.711 833.116 354.048 832.267 355.132 831.418 356.216 830.403 357.032 829.223 357.58 828.043 358.128 826.688 358.402 825.158 358.402 823.291 358.402 821.843 357.878 820.813 356.83 819.783 355.783 819.268 354.277 819.268 352.314 819.268 351.35 819.413 350.236 819.702 348.972 820.075 347.261 820.702 345.768 821.581 344.491 822.46 343.214 823.544 342.236 824.833 341.555 826.122 340.875 827.537 340.535 829.078 340.535ZM801.972 340.517C802.719 340.517 803.312 340.763 803.752 341.257 804.191 341.751 804.411 342.407 804.411 343.226 804.411 343.901 804.272 344.612 803.995 345.358L804.212 345.431C806.44 342.167 808.657 340.535 810.861 340.535 812.173 340.535 813.194 341.034 813.923 342.034 814.652 343.034 815.016 344.443 815.016 346.262 815.016 348.249 814.615 350.203 813.815 352.124 813.014 354.045 811.902 355.569 810.481 356.695 809.06 357.821 807.47 358.384 805.712 358.384 804.11 358.384 802.779 358.035 801.719 357.336L800.888 361.293C800.707 362.148 800.617 362.853 800.617 363.407 800.617 363.937 800.753 364.313 801.023 364.536 801.294 364.759 801.821 364.906 802.604 364.978L802.46 365.864 796.877 365.864 801.231 346.695C801.484 345.587 801.611 344.678 801.611 343.967 801.611 343.485 801.532 343.136 801.376 342.919 801.219 342.703 800.972 342.594 800.635 342.594 800.262 342.594 799.867 342.748 799.452 343.055 799.036 343.362 798.467 343.919 797.744 344.726L796.715 343.714C797.799 342.582 798.717 341.766 799.47 341.266 800.223 340.766 801.057 340.517 801.972 340.517Z" fill-rule="evenodd"/><text fill="#000000" fill-opacity="0" font-family="Arial,Arial_MSFontService,sans-serif" font-size="25.3472" x="796.715" y="362.695">𝑝𝑜𝑠</text><path d="M859.529 352.387 860.175 352.387 858.224 361.167C858.101 361.685 858.015 362.098 857.967 362.406 857.919 362.714 857.894 362.991 857.894 363.237 857.894 363.571 857.963 363.812 858.099 363.962 858.235 364.111 858.439 364.186 858.712 364.186 858.87 364.186 859.028 364.155 859.186 364.094 859.345 364.032 859.514 363.935 859.694 363.803 859.874 363.672 860.072 363.502 860.287 363.296 860.503 363.089 860.742 362.841 861.006 362.551L861.902 363.421C861.445 363.887 861.03 364.28 860.656 364.601 860.283 364.922 859.929 365.183 859.595 365.386 859.261 365.588 858.934 365.733 858.613 365.821 858.292 365.908 857.952 365.952 857.591 365.952 857.257 365.952 856.956 365.891 856.688 365.768 856.42 365.645 856.189 365.476 855.996 365.26 855.803 365.045 855.653 364.788 855.548 364.489 855.442 364.19 855.39 363.861 855.39 363.5 855.39 363.21 855.425 362.85 855.495 362.419 855.565 361.989 855.655 361.521 855.765 361.015 855.875 360.51 855.996 359.98 856.128 359.427 856.26 358.873 856.389 358.324 856.517 357.779 856.644 357.234 856.758 356.709 856.859 356.203 856.961 355.698 857.033 355.239 857.077 354.825 857.095 354.755 857.103 354.687 857.103 354.621 857.103 354.555 857.103 354.496 857.103 354.443 857.086 354.1 856.965 353.85 856.741 353.692 856.517 353.533 856.119 353.446 855.548 353.428L855.706 352.532ZM858.765 347.074 861.401 347.074 860.755 349.908 858.145 349.908Z" fill-rule="evenodd"/><text fill="#000000" fill-opacity="0" font-family="Arial,Arial_MSFontService,sans-serif" font-size="18.8789" x="855.39" y="363.593">𝑖</text><path d="M655.84 392.542 678.097 392.542 678.097 394.945 655.84 394.945Z" fill-rule="evenodd"/><text fill="#000000" fill-opacity="0" font-family="Arial,Arial_MSFontService,sans-serif" font-size="2.40283" x="655.84" y="394.645">−</text><path d="M692.652 379.372 693.646 379.372C693.573 380.528 693.537 382.13 693.537 384.178L693.537 399.606C693.537 400.305 693.576 400.832 693.655 401.187 693.733 401.543 693.871 401.832 694.07 402.054 694.269 402.277 694.555 402.452 694.928 402.578 695.302 402.705 695.771 402.801 696.338 402.867 696.904 402.934 697.65 402.979 698.578 403.003L698.578 404.322 685.227 404.322 685.227 403.003C686.564 402.943 687.518 402.861 688.09 402.759 688.662 402.657 689.099 402.503 689.4 402.298 689.701 402.094 689.921 401.805 690.059 401.431 690.198 401.058 690.267 400.45 690.267 399.606L690.267 384.955C690.267 384.473 690.183 384.121 690.014 383.898 689.846 383.675 689.599 383.563 689.274 383.563 688.888 383.563 688.34 383.762 687.63 384.16 686.919 384.557 686.04 385.105 684.992 385.804L684.197 384.413Z" fill-rule="evenodd"/><text fill="#000000" fill-opacity="0" font-family="Arial,Arial_MSFontService,sans-serif" font-size="24.9497" x="684.197" y="401.203">1</text><path d="M704.069 400.13 707.23 400.13C707.399 400.973 707.483 401.805 707.483 402.624 707.483 403.467 707.339 404.237 707.05 404.936 706.76 405.635 706.3 406.33 705.667 407.023 705.035 407.715 704.165 408.477 703.057 409.308L702.081 408.206C702.696 407.628 703.141 407.107 703.418 406.643 703.695 406.18 703.894 405.653 704.014 405.062 704.135 404.472 704.195 403.732 704.195 402.84 704.195 401.925 704.153 401.022 704.069 400.13Z" fill-rule="evenodd"/><text fill="#000000" fill-opacity="0" font-family="Arial,Arial_MSFontService,sans-serif" font-size="9.17773" x="702.081" y="408.161">,</text><path d="M723.032 386.888 724.098 386.888 721.496 398.486C721.231 399.667 721.099 400.558 721.099 401.16 721.099 401.642 721.177 401.991 721.334 402.208 721.49 402.425 721.737 402.533 722.074 402.533 722.436 402.533 722.821 402.386 723.231 402.091 723.64 401.796 724.218 401.232 724.965 400.401L725.995 401.413C724.814 402.654 723.857 403.497 723.122 403.942 722.388 404.388 721.562 404.611 720.647 404.611 719.864 404.611 719.238 404.325 718.768 403.753 718.299 403.181 718.064 402.449 718.064 401.558 718.064 400.642 718.232 399.474 718.57 398.053L719.924 392.145C720.202 390.941 720.34 390.037 720.34 389.435 720.34 388.893 720.211 388.526 719.952 388.333 719.693 388.14 719.184 388.032 718.425 388.008L718.624 387.05ZM722.544 379.968 725.742 379.968 724.911 383.473 721.713 383.473ZM744.553 378.378C745.733 378.378 746.751 378.475 747.606 378.667L746.902 381.739 745.312 381.739C745.143 381.052 744.923 380.558 744.652 380.257 744.381 379.956 743.981 379.806 743.451 379.806 742.764 379.806 742.183 379.995 741.707 380.375 741.232 380.754 740.825 381.317 740.488 382.064 740.151 382.811 739.838 383.816 739.549 385.081L739.097 387.05 743.74 387.05 743.342 388.875 738.681 388.875 735.321 404.629C734.767 407.243 733.918 409.191 732.774 410.473 731.629 411.756 730.19 412.397 728.456 412.397 727.95 412.397 727.552 412.367 727.263 412.307L727.57 410.717C727.691 410.753 727.974 410.771 728.42 410.771 728.962 410.771 729.425 410.633 729.811 410.356 730.196 410.079 730.554 409.597 730.886 408.911 731.217 408.224 731.521 407.273 731.798 406.056L735.682 388.875 732.629 388.875 732.9 387.628C733.707 387.58 734.288 387.514 734.643 387.43 734.999 387.345 735.276 387.219 735.475 387.05 735.673 386.882 735.842 386.662 735.98 386.391 736.119 386.12 736.297 385.623 736.513 384.9 737.152 382.732 738.136 381.103 739.467 380.013 740.798 378.923 742.493 378.378 744.553 378.378Z" fill-rule="evenodd"/><text fill="#000000" fill-opacity="0" font-family="Arial,Arial_MSFontService,sans-serif" font-size="34.019" x="718.064" y="408.145">𝑖𝑓</text><path d="M790.564 388.207C789.311 388.207 788.218 388.73 787.285 389.778 786.351 390.826 785.617 392.326 785.081 394.277 784.545 396.228 784.277 397.908 784.277 399.317 784.277 400.642 784.551 401.621 785.099 402.253 785.647 402.885 786.475 403.202 787.583 403.202 788.763 403.202 789.811 402.672 790.726 401.612 791.642 400.552 792.364 399.067 792.894 397.158 793.424 395.249 793.689 393.572 793.689 392.127 793.689 390.826 793.436 389.848 792.93 389.191 792.425 388.535 791.636 388.207 790.564 388.207ZM790.925 386.761C792.852 386.761 794.322 387.288 795.333 388.342 796.345 389.396 796.851 390.904 796.851 392.868 796.851 394.265 796.607 395.758 796.119 397.348 795.631 398.938 794.963 400.275 794.114 401.359 793.265 402.443 792.25 403.259 791.07 403.807 789.889 404.355 788.534 404.629 787.005 404.629 785.138 404.629 783.69 404.105 782.66 403.057 781.63 402.009 781.115 400.504 781.115 398.541 781.115 397.577 781.26 396.463 781.549 395.198 781.922 393.488 782.548 391.994 783.428 390.718 784.307 389.441 785.391 388.462 786.68 387.782 787.968 387.101 789.383 386.761 790.925 386.761ZM762.819 386.743C763.577 386.743 764.177 386.993 764.616 387.493 765.056 387.993 765.276 388.646 765.276 389.453 765.276 390.091 765.131 390.802 764.842 391.585L765.059 391.657C766.239 389.995 767.362 388.764 768.428 387.963 769.494 387.162 770.593 386.761 771.725 386.761 772.846 386.761 773.707 387.083 774.309 387.728 774.911 388.372 775.212 389.266 775.212 390.411 775.212 391.169 775.038 392.247 774.688 393.645L773.514 398.378C773.189 399.691 773.026 400.618 773.026 401.16 773.026 401.642 773.104 401.991 773.261 402.208 773.418 402.425 773.665 402.533 774.002 402.533 774.363 402.533 774.749 402.386 775.158 402.091 775.568 401.796 776.146 401.232 776.892 400.401L777.922 401.413C776.886 402.521 775.983 403.331 775.212 403.843 774.441 404.355 773.562 404.611 772.575 404.611 771.792 404.611 771.165 404.331 770.696 403.771 770.226 403.211 769.991 402.497 769.991 401.63 769.991 400.847 770.19 399.697 770.587 398.179L771.382 395.054C771.671 393.922 771.861 393.084 771.951 392.542 772.042 392 772.087 391.561 772.087 391.224 772.087 390.393 771.948 389.793 771.671 389.426 771.394 389.059 770.943 388.875 770.316 388.875 769.81 388.875 769.265 389.077 768.681 389.48 768.097 389.884 767.477 390.492 766.82 391.305 766.164 392.118 765.637 392.907 765.24 393.672 764.842 394.436 764.517 395.379 764.264 396.499L762.548 404.322 759.422 404.322 762.06 392.868C762.325 391.711 762.457 390.82 762.457 390.194 762.457 389.712 762.379 389.363 762.222 389.146 762.066 388.929 761.819 388.821 761.482 388.821 761.108 388.821 760.714 388.974 760.298 389.281 759.883 389.589 759.314 390.146 758.591 390.953L757.561 389.941C758.669 388.785 759.591 387.963 760.326 387.475 761.06 386.987 761.891 386.743 762.819 386.743ZM805.192 382.588 807.685 382.588 806.691 387.05 812.183 387.05 811.786 388.875 806.294 388.875 804.686 395.885C804.373 397.246 804.174 398.224 804.09 398.821 804.005 399.417 803.963 399.896 803.963 400.257 803.963 401.75 804.583 402.497 805.824 402.497 806.354 402.497 806.917 402.295 807.513 401.892 808.109 401.488 808.817 400.799 809.636 399.823L810.684 400.907C809.636 402.172 808.627 403.105 807.658 403.708 806.688 404.31 805.673 404.611 804.614 404.611 802.096 404.611 800.838 403.34 800.838 400.799 800.838 399.992 800.94 399.143 801.145 398.251L803.277 388.875 800.242 388.875 800.513 387.628C801.223 387.616 801.762 387.562 802.129 387.466 802.497 387.369 802.804 387.237 803.051 387.068 803.298 386.9 803.524 386.659 803.728 386.346 803.933 386.033 804.132 385.632 804.325 385.144 804.517 384.656 804.806 383.804 805.192 382.588Z" fill-rule="evenodd"/><text fill="#000000" fill-opacity="0" font-family="Arial,Arial_MSFontService,sans-serif" font-size="22.041" x="757.561" y="401.874">𝑛𝑜𝑡</text></g></svg>