<svg width="1280" height="720" xmlns="http://www.w3.org/2000/svg" xmlns:xlink="http://www.w3.org/1999/xlink" overflow="hidden"><defs><clipPath id="clip0"><rect x="0" y="0" width="1280" height="720"/></clipPath></defs><g clip-path="url(#clip0)"><rect x="0" y="0" width="1280" height="720" fill="#FFFFFF"/><path d="M456.024 366.74C454.771 366.74 453.678 367.264 452.745 368.312 451.811 369.36 451.077 370.859 450.541 372.81 450.005 374.761 449.737 376.442 449.737 377.851 449.737 379.176 450.011 380.154 450.559 380.787 451.107 381.419 451.935 381.735 453.043 381.735 454.223 381.735 455.271 381.205 456.186 380.145 457.102 379.085 457.824 377.601 458.354 375.692 458.884 373.783 459.149 372.106 459.149 370.66 459.149 369.36 458.896 368.381 458.39 367.725 457.885 367.068 457.096 366.74 456.024 366.74ZM477.409 366.704C476.18 366.704 475.078 367.201 474.102 368.194 473.127 369.188 472.359 370.528 471.799 372.214 471.239 373.9 470.959 375.58 470.959 377.255 470.959 378.507 471.139 379.444 471.501 380.064 471.862 380.684 472.428 380.994 473.199 380.994 473.813 380.994 474.425 380.784 475.033 380.362 475.641 379.94 476.291 379.272 476.984 378.357 477.676 377.441 478.215 376.568 478.601 375.737 478.986 374.906 479.315 373.87 479.586 372.63 479.857 371.389 479.992 370.311 479.992 369.396 479.992 368.456 479.793 367.773 479.396 367.345 478.998 366.918 478.336 366.704 477.409 366.704ZM456.385 365.295C458.312 365.295 459.782 365.822 460.793 366.875 461.805 367.929 462.311 369.438 462.311 371.401 462.311 372.798 462.067 374.292 461.579 375.882 461.091 377.471 460.423 378.808 459.574 379.892 458.725 380.976 457.71 381.792 456.53 382.34 455.349 382.888 453.994 383.162 452.465 383.162 450.598 383.162 449.149 382.638 448.12 381.59 447.09 380.543 446.575 379.037 446.575 377.074 446.575 376.11 446.72 374.996 447.009 373.732 447.382 372.021 448.008 370.528 448.888 369.251 449.767 367.974 450.851 366.996 452.139 366.315 453.428 365.635 454.843 365.295 456.385 365.295ZM438.548 365.295C440.15 365.295 441.625 365.475 442.974 365.837L442.089 369.92 440.192 369.92C440.168 369.004 440.092 368.342 439.966 367.932 439.839 367.523 439.635 367.216 439.352 367.011 439.069 366.806 438.668 366.704 438.15 366.704 436.934 366.704 435.841 367.189 434.871 368.158 433.902 369.128 433.11 370.501 432.495 372.277 431.881 374.054 431.574 375.761 431.574 377.399 431.574 378.628 431.815 379.54 432.297 380.136 432.778 380.732 433.501 381.03 434.465 381.03 435.561 381.03 436.509 380.823 437.31 380.407 438.111 379.992 438.957 379.338 439.848 378.447L440.951 379.549C439.818 380.802 438.677 381.717 437.527 382.295 436.377 382.873 435.139 383.162 433.814 383.162 432.068 383.162 430.743 382.644 429.84 381.609 428.936 380.573 428.485 379.067 428.485 377.092 428.485 375.803 428.726 374.388 429.207 372.846 429.689 371.305 430.394 369.95 431.321 368.781 432.249 367.613 433.332 366.74 434.573 366.162 435.814 365.584 437.138 365.295 438.548 365.295ZM477.119 365.277C477.878 365.277 478.595 365.367 479.269 365.548 479.944 365.728 480.624 366.035 481.311 366.469L482.973 365.277 484.129 365.566 482.268 373.985C482.136 374.575 481.835 376.062 481.365 378.447 480.871 380.976 480.471 382.765 480.164 383.813 479.857 384.861 479.474 385.815 479.016 386.676 478.559 387.537 477.969 388.287 477.246 388.925 476.523 389.564 475.647 390.058 474.617 390.407 473.587 390.756 472.368 390.931 470.959 390.931 466.406 390.931 464.13 389.606 464.13 386.956 464.13 386.282 464.334 385.667 464.744 385.113 465.153 384.559 465.81 383.975 466.713 383.361L468.014 384.409C467.785 384.686 467.592 384.96 467.436 385.231 467.279 385.502 467.168 385.764 467.102 386.017 467.035 386.27 467.002 386.571 467.002 386.92 467.002 387.823 467.327 388.483 467.978 388.898 468.628 389.314 469.61 389.522 470.923 389.522 472.404 389.522 473.593 389.187 474.491 388.519 475.388 387.85 476.156 386.776 476.794 385.294 477.433 383.813 478.053 381.572 478.655 378.573L478.402 378.519C477.234 380.121 476.15 381.289 475.15 382.024 474.151 382.759 473.073 383.126 471.916 383.126 470.603 383.126 469.583 382.632 468.854 381.645 468.125 380.657 467.761 379.248 467.761 377.417 467.761 375.358 468.165 373.379 468.971 371.482 469.778 369.585 470.899 368.077 472.332 366.957 473.765 365.837 475.361 365.277 477.119 365.277ZM423.697 365.204C424.564 365.204 425.19 365.43 425.576 365.882 425.961 366.333 426.154 366.939 426.154 367.697 426.154 368.276 426.051 368.938 425.846 369.685 425.642 370.431 425.353 371.22 424.979 372.051 424.606 372.882 424.16 373.735 423.642 374.608 423.124 375.481 422.552 376.33 421.926 377.155 421.3 377.98 420.631 378.757 419.921 379.486 419.21 380.214 418.472 380.85 417.708 381.392 416.943 381.934 416.166 382.364 415.377 382.684 414.588 383.003 413.802 383.162 413.019 383.162 412.67 383.162 412.378 383.075 412.143 382.9 411.908 382.726 411.719 382.479 411.574 382.16 411.43 381.84 411.327 381.464 411.267 381.03 411.207 380.597 411.177 380.121 411.177 379.603 411.177 378.917 411.219 378.182 411.303 377.399 411.387 376.616 411.496 375.827 411.628 375.032L412.387 370.028C412.435 369.739 412.474 369.465 412.504 369.206 412.535 368.947 412.55 368.757 412.55 368.637 412.55 368.263 412.489 367.956 412.369 367.715 412.249 367.475 412.044 367.354 411.755 367.354 411.526 367.354 411.279 367.423 411.014 367.562 410.749 367.7 410.481 367.878 410.21 368.095 409.939 368.312 409.677 368.544 409.424 368.79 409.171 369.037 408.936 369.269 408.72 369.486L407.852 368.474C408.226 368.089 408.623 367.706 409.045 367.327 409.466 366.948 409.912 366.604 410.382 366.297 410.851 365.99 411.345 365.743 411.863 365.557 412.381 365.37 412.911 365.277 413.453 365.277 413.911 365.277 414.284 365.352 414.573 365.502 414.862 365.653 415.088 365.852 415.251 366.099 415.413 366.345 415.525 366.616 415.585 366.912 415.645 367.207 415.675 367.499 415.675 367.788 415.675 367.956 415.669 368.119 415.657 368.276 415.645 368.432 415.627 368.577 415.603 368.709L414.591 375.249C414.483 375.936 414.392 376.607 414.32 377.264 414.248 377.92 414.212 378.501 414.212 379.007 414.212 379.513 414.242 379.922 414.302 380.236 414.362 380.549 414.477 380.705 414.645 380.705 415.043 380.705 415.543 380.546 416.145 380.226 416.747 379.907 417.379 379.468 418.042 378.908 418.704 378.348 419.367 377.685 420.029 376.92 420.692 376.156 421.288 375.327 421.818 374.436 422.348 373.545 422.778 372.605 423.109 371.618 423.441 370.63 423.606 369.637 423.606 368.637 423.606 368.203 423.513 367.869 423.326 367.634 423.14 367.399 422.847 367.282 422.45 367.282 421.944 367.282 421.477 367.478 421.05 367.869 420.622 368.26 420.18 368.775 419.722 369.414L418.692 368.492C418.981 368.059 419.322 367.643 419.713 367.246 420.104 366.848 420.52 366.499 420.96 366.198 421.399 365.897 421.854 365.656 422.324 365.475 422.793 365.295 423.251 365.204 423.697 365.204Z" fill-rule="evenodd"/><text fill="#000000" fill-opacity="0" font-family="Arial,Arial_MSFontService,sans-serif" font-size="25.7266" x="407.852" y="387.715">𝑣𝑐𝑜𝑔</text><path d="M500.46 374.834 522.717 374.834 522.717 377.236 500.46 377.236ZM500.46 367.336 522.717 367.336 522.717 369.739 500.46 369.739Z" fill-rule="evenodd"/><text fill="#000000" fill-opacity="0" font-family="Arial,Arial_MSFontService,sans-serif" font-size="9.90039" x="500.46" y="375.999">=</text><path d="M553.246 325.47 553.246 327.077C551.993 327.282 550.864 327.782 549.858 328.577 548.853 329.372 547.995 330.465 547.284 331.856 546.573 333.247 546.025 334.948 545.64 336.96 545.254 338.971 545.062 341.29 545.062 343.915 545.062 345.879 545.309 348.853 545.802 352.84 546.296 356.827 546.543 359.434 546.543 360.663 546.543 363.855 545.971 366.441 544.827 368.422 543.683 370.404 542.544 371.617 541.412 372.063L541.412 372.478C542.544 372.924 543.683 374.128 544.827 376.092 545.971 378.055 546.543 380.638 546.543 383.842 546.543 384.577 546.296 387.269 545.802 391.918 545.309 396.567 545.062 399.439 545.062 400.535 545.062 403.197 545.239 405.531 545.595 407.536 545.95 409.542 546.495 411.249 547.23 412.658 547.977 414.091 548.847 415.202 549.84 415.991 550.834 416.78 551.969 417.277 553.246 417.482L553.246 419.09C549.633 418.813 546.79 416.976 544.719 413.579 542.647 410.183 541.611 405.612 541.611 399.867 541.611 397.711 541.879 394.483 542.415 390.183 542.951 385.884 543.219 383.186 543.219 382.09 543.219 379.235 542.746 377.04 541.801 375.504 540.855 373.969 539.521 373.177 537.799 373.129L537.799 371.412C539.509 371.364 540.84 370.59 541.792 369.091 542.743 367.591 543.219 365.372 543.219 362.433 543.219 361.096 542.951 358.564 542.415 354.836 541.879 351.109 541.611 348.028 541.611 345.596 541.611 339.465 542.62 334.695 544.637 331.287 546.655 327.878 549.524 325.939 553.246 325.47Z" fill-rule="evenodd"/><text fill="#000000" fill-opacity="0" font-family="Arial,Arial_MSFontService,sans-serif" font-size="93.6201" x="537.799" y="407.387">ቊ</text><path d="M566.239 333.145 567.232 333.145C567.16 334.302 567.124 335.904 567.124 337.951L567.124 353.38C567.124 354.078 567.163 354.605 567.241 354.961 567.32 355.316 567.458 355.605 567.657 355.828 567.856 356.051 568.142 356.225 568.515 356.352 568.888 356.478 569.358 356.575 569.924 356.641 570.49 356.707 571.237 356.752 572.164 356.776L572.164 358.095 558.813 358.095 558.813 356.776C560.15 356.716 561.105 356.635 561.677 356.532 562.249 356.43 562.686 356.276 562.987 356.072 563.288 355.867 563.508 355.578 563.646 355.204 563.785 354.831 563.854 354.223 563.854 353.38L563.854 338.728C563.854 338.246 563.77 337.894 563.601 337.671 563.432 337.448 563.185 337.337 562.86 337.337 562.475 337.337 561.927 337.536 561.216 337.933 560.506 338.33 559.626 338.878 558.578 339.577L557.784 338.186Z" fill-rule="evenodd"/><text fill="#000000" fill-opacity="0" font-family="Arial,Arial_MSFontService,sans-serif" font-size="24.9497" x="557.784" y="354.976">1</text><path d="M577.655 353.904 580.817 353.904C580.986 354.747 581.07 355.578 581.07 356.397 581.07 357.24 580.925 358.011 580.636 358.709 580.347 359.408 579.886 360.104 579.254 360.796 578.622 361.489 577.752 362.25 576.644 363.081L575.668 361.979C576.282 361.401 576.728 360.88 577.005 360.417 577.282 359.953 577.481 359.426 577.601 358.836 577.721 358.246 577.782 357.505 577.782 356.614 577.782 355.698 577.74 354.795 577.655 353.904Z" fill-rule="evenodd"/><text fill="#000000" fill-opacity="0" font-family="Arial,Arial_MSFontService,sans-serif" font-size="9.17773" x="575.668" y="361.934">,</text><path d="M596.619 340.661 597.685 340.661 595.083 352.26C594.818 353.44 594.685 354.331 594.685 354.934 594.685 355.415 594.764 355.765 594.92 355.981 595.077 356.198 595.324 356.307 595.661 356.307 596.022 356.307 596.408 356.159 596.817 355.864 597.227 355.569 597.805 355.006 598.552 354.175L599.581 355.186C598.401 356.427 597.444 357.27 596.709 357.716 595.974 358.161 595.149 358.384 594.234 358.384 593.451 358.384 592.825 358.098 592.355 357.526 591.885 356.954 591.65 356.222 591.65 355.331 591.65 354.416 591.819 353.247 592.156 351.826L593.511 345.918C593.788 344.714 593.927 343.811 593.927 343.208 593.927 342.666 593.797 342.299 593.538 342.106 593.279 341.914 592.77 341.805 592.012 341.781L592.21 340.824ZM596.131 333.742 599.329 333.742 598.497 337.246 595.3 337.246ZM618.14 332.152C619.32 332.152 620.338 332.248 621.193 332.441L620.488 335.512 618.898 335.512C618.73 334.826 618.51 334.332 618.239 334.031 617.968 333.73 617.568 333.579 617.038 333.579 616.351 333.579 615.77 333.769 615.294 334.148 614.818 334.527 614.412 335.091 614.075 335.837 613.737 336.584 613.424 337.59 613.135 338.854L612.684 340.824 617.327 340.824 616.929 342.648 612.268 342.648 608.908 358.402C608.354 361.016 607.505 362.964 606.36 364.247 605.216 365.529 603.777 366.171 602.042 366.171 601.537 366.171 601.139 366.141 600.85 366.08L601.157 364.491C601.278 364.527 601.561 364.545 602.006 364.545 602.548 364.545 603.012 364.406 603.397 364.129 603.783 363.852 604.141 363.371 604.472 362.684 604.804 361.997 605.108 361.046 605.385 359.829L609.269 342.648 606.216 342.648 606.487 341.402C607.294 341.354 607.875 341.287 608.23 341.203 608.585 341.119 608.862 340.992 609.061 340.824 609.26 340.655 609.429 340.435 609.567 340.164 609.706 339.893 609.883 339.396 610.1 338.674 610.738 336.506 611.723 334.877 613.054 333.787 614.385 332.697 616.08 332.152 618.14 332.152Z" fill-rule="evenodd"/><text fill="#000000" fill-opacity="0" font-family="Arial,Arial_MSFontService,sans-serif" font-size="34.019" x="591.65" y="361.918">𝑖𝑓</text><path d="M664.011 342.648C663.397 342.648 662.792 342.856 662.196 343.272 661.599 343.687 660.946 344.353 660.235 345.268 659.525 346.183 658.971 347.087 658.573 347.978 658.176 348.869 657.863 349.893 657.634 351.049L657.489 351.808C657.369 352.446 657.294 352.934 657.263 353.271 657.233 353.609 657.218 353.94 657.218 354.265 657.218 355.204 657.42 355.888 657.824 356.316 658.227 356.743 658.923 356.957 659.91 356.957 660.524 356.957 661.091 356.836 661.608 356.596 662.126 356.355 662.617 356.005 663.081 355.548 663.545 355.09 663.963 354.536 664.336 353.886 664.71 353.235 665.044 352.479 665.339 351.618 665.634 350.757 665.857 349.872 666.008 348.963 666.158 348.053 666.233 347.201 666.233 346.406 666.233 345.142 666.056 344.199 665.701 343.579 665.345 342.958 664.782 342.648 664.011 342.648ZM643.307 342.648C642.729 342.648 642.159 342.832 641.599 343.199 641.039 343.567 640.416 344.175 639.73 345.024 639.043 345.873 638.483 346.743 638.049 347.635 637.616 348.526 637.248 349.664 636.947 351.049L636.785 351.808C636.604 352.651 636.514 353.47 636.514 354.265 636.514 355.217 636.721 355.903 637.137 356.325 637.553 356.746 638.242 356.957 639.206 356.957 639.699 356.957 640.169 356.876 640.615 356.713 641.06 356.55 641.515 356.282 641.979 355.909 642.443 355.536 642.882 355.045 643.298 354.437 643.713 353.828 644.096 353.079 644.445 352.187 644.794 351.296 645.065 350.342 645.258 349.324 645.451 348.306 645.547 347.334 645.547 346.406 645.547 345.154 645.369 344.214 645.014 343.588 644.659 342.961 644.09 342.648 643.307 342.648ZM683.15 341.98C681.898 341.98 680.805 342.504 679.871 343.552 678.938 344.6 678.203 346.099 677.667 348.05 677.131 350.001 676.863 351.682 676.863 353.091 676.863 354.416 677.137 355.394 677.685 356.027 678.233 356.659 679.061 356.975 680.169 356.975 681.35 356.975 682.398 356.445 683.313 355.385 684.228 354.325 684.951 352.841 685.481 350.932 686.011 349.023 686.276 347.346 686.276 345.9 686.276 344.6 686.023 343.621 685.517 342.965 685.011 342.308 684.222 341.98 683.15 341.98ZM701.795 340.535C702.916 340.535 703.936 340.601 704.858 340.733 705.779 340.866 706.698 341.095 707.613 341.42L706.8 345.214 705.336 345.214C705.204 344.142 704.852 343.329 704.28 342.775 703.708 342.221 702.807 341.944 701.579 341.944 700.627 341.944 699.856 342.188 699.266 342.675 698.676 343.163 698.381 343.805 698.381 344.6 698.381 345.033 698.456 345.416 698.607 345.747 698.757 346.078 699.061 346.442 699.519 346.84 699.977 347.237 700.687 347.725 701.651 348.303 702.41 348.761 703.018 349.179 703.476 349.559 703.933 349.938 704.295 350.315 704.56 350.688 704.825 351.061 705.017 351.456 705.138 351.871 705.258 352.287 705.318 352.79 705.318 353.38 705.318 354.452 705.032 355.37 704.46 356.135 703.888 356.9 703.111 357.469 702.13 357.842 701.148 358.216 700.031 358.402 698.778 358.402 697.779 358.402 696.797 358.327 695.834 358.176 694.87 358.026 693.798 357.77 692.618 357.409L693.485 353.47 694.894 353.47C694.942 354.626 695.267 355.5 695.87 356.09 696.472 356.68 697.429 356.975 698.742 356.975 699.886 356.975 700.781 356.719 701.425 356.207 702.069 355.695 702.392 354.97 702.392 354.03 702.392 353.488 702.301 353.021 702.121 352.63 701.94 352.239 701.645 351.862 701.235 351.501 700.826 351.14 700.176 350.688 699.284 350.146 698.345 349.58 697.613 349.068 697.089 348.61 696.565 348.153 696.171 347.656 695.906 347.12 695.641 346.584 695.508 345.967 695.508 345.268 695.508 344.316 695.764 343.482 696.276 342.766 696.788 342.049 697.52 341.498 698.471 341.113 699.423 340.727 700.531 340.535 701.795 340.535ZM683.512 340.535C685.439 340.535 686.908 341.062 687.92 342.115 688.932 343.169 689.438 344.678 689.438 346.641 689.438 348.038 689.194 349.532 688.706 351.121 688.218 352.711 687.55 354.048 686.701 355.132 685.851 356.216 684.837 357.032 683.656 357.58 682.476 358.128 681.121 358.402 679.591 358.402 677.724 358.402 676.276 357.878 675.246 356.83 674.217 355.783 673.702 354.277 673.702 352.314 673.702 351.35 673.846 350.236 674.135 348.972 674.509 347.261 675.135 345.768 676.014 344.491 676.893 343.214 677.977 342.236 679.266 341.555 680.555 340.875 681.97 340.535 683.512 340.535ZM656.405 340.517C657.152 340.517 657.745 340.763 658.185 341.257 658.625 341.751 658.844 342.407 658.844 343.226 658.844 343.901 658.706 344.612 658.429 345.358L658.646 345.431C660.874 342.167 663.09 340.535 665.294 340.535 666.607 340.535 667.628 341.034 668.356 342.034 669.085 343.034 669.449 344.443 669.449 346.262 669.449 348.249 669.049 350.203 668.248 352.124 667.447 354.045 666.336 355.569 664.915 356.695 663.493 357.821 661.904 358.384 660.145 358.384 658.543 358.384 657.212 358.035 656.152 357.336L655.321 361.293C655.141 362.148 655.05 362.853 655.05 363.407 655.05 363.937 655.186 364.313 655.457 364.536 655.728 364.759 656.255 364.906 657.038 364.978L656.893 365.864 651.311 365.864 655.665 346.695C655.918 345.587 656.044 344.678 656.044 343.967 656.044 343.485 655.966 343.136 655.809 342.919 655.653 342.703 655.406 342.594 655.068 342.594 654.695 342.594 654.301 342.748 653.885 343.055 653.47 343.362 652.9 343.919 652.178 344.726L651.148 343.714C652.232 342.582 653.15 341.766 653.903 341.266 654.656 340.766 655.49 340.517 656.405 340.517ZM640.145 332.26 641.193 332.26 638.013 344.907 638.248 344.979C639.416 343.413 640.512 342.281 641.536 341.582 642.56 340.884 643.584 340.535 644.607 340.535 645.92 340.535 646.941 341.034 647.67 342.034 648.398 343.034 648.763 344.443 648.763 346.262 648.763 348.249 648.362 350.203 647.561 352.124 646.76 354.045 645.649 355.569 644.228 356.695 642.807 357.821 641.217 358.384 639.459 358.384 637.857 358.384 636.435 357.993 635.195 357.21L633.533 358.384 632.377 358.095 637.056 337.445C637.333 336.217 637.471 335.325 637.471 334.771 637.471 334.266 637.318 333.91 637.011 333.705 636.703 333.501 636.152 333.386 635.357 333.362L635.574 332.423Z" fill-rule="evenodd"/><text fill="#000000" fill-opacity="0" font-family="Arial,Arial_MSFontService,sans-serif" font-size="33.6035" x="632.377" y="361.663">𝑏𝑝𝑜𝑠</text><path d="M714.129 352.387 714.775 352.387 712.824 361.167C712.701 361.685 712.615 362.098 712.567 362.406 712.519 362.714 712.494 362.991 712.494 363.237 712.494 363.571 712.563 363.812 712.699 363.962 712.835 364.111 713.039 364.186 713.312 364.186 713.47 364.186 713.628 364.155 713.786 364.094 713.945 364.032 714.114 363.935 714.294 363.803 714.474 363.672 714.672 363.502 714.887 363.296 715.103 363.089 715.342 362.841 715.606 362.551L716.502 363.421C716.045 363.887 715.63 364.28 715.256 364.601 714.883 364.922 714.529 365.183 714.195 365.386 713.861 365.588 713.534 365.733 713.213 365.821 712.892 365.908 712.552 365.952 712.191 365.952 711.857 365.952 711.556 365.891 711.288 365.768 711.02 365.645 710.789 365.476 710.596 365.26 710.403 365.045 710.253 364.788 710.148 364.489 710.042 364.19 709.99 363.861 709.99 363.5 709.99 363.21 710.025 362.85 710.095 362.419 710.165 361.989 710.255 361.521 710.365 361.015 710.475 360.51 710.596 359.98 710.728 359.427 710.86 358.873 710.989 358.324 711.117 357.779 711.244 357.234 711.358 356.709 711.46 356.203 711.561 355.698 711.633 355.239 711.677 354.825 711.695 354.755 711.703 354.687 711.703 354.621 711.703 354.555 711.703 354.496 711.703 354.443 711.686 354.1 711.565 353.85 711.341 353.692 711.117 353.533 710.719 353.446 710.148 353.428L710.306 352.532ZM713.365 347.074 716.001 347.074 715.355 349.908 712.745 349.908Z" fill-rule="evenodd"/><text fill="#000000" fill-opacity="0" font-family="Arial,Arial_MSFontService,sans-serif" font-size="18.8789" x="709.99" y="363.593">𝑖</text><path d="M732.84 350.074 755.097 350.074 755.097 352.476 732.84 352.476ZM732.84 342.576 755.097 342.576 755.097 344.979 732.84 344.979Z" fill-rule="evenodd"/><text fill="#000000" fill-opacity="0" font-family="Arial,Arial_MSFontService,sans-serif" font-size="9.90039" x="732.84" y="351.239">=</text><path d="M760.673 350.074 782.931 350.074 782.931 352.476 760.673 352.476ZM760.673 342.576 782.931 342.576 782.931 344.979 760.673 344.979Z" fill-rule="evenodd"/><text fill="#000000" fill-opacity="0" font-family="Arial,Arial_MSFontService,sans-serif" font-size="9.90039" x="760.673" y="351.239">=</text><path d="M817.651 342.648C817.037 342.648 816.432 342.856 815.836 343.272 815.239 343.687 814.586 344.353 813.875 345.268 813.165 346.183 812.611 347.087 812.213 347.978 811.816 348.869 811.503 349.893 811.274 351.049L811.129 351.808C811.009 352.446 810.934 352.934 810.903 353.271 810.873 353.609 810.858 353.94 810.858 354.265 810.858 355.204 811.06 355.888 811.464 356.316 811.867 356.743 812.563 356.957 813.55 356.957 814.164 356.957 814.731 356.836 815.248 356.596 815.766 356.355 816.257 356.005 816.721 355.548 817.185 355.09 817.603 354.536 817.976 353.886 818.35 353.235 818.684 352.479 818.979 351.618 819.274 350.757 819.497 349.872 819.648 348.963 819.798 348.053 819.873 347.201 819.873 346.406 819.873 345.142 819.696 344.199 819.34 343.579 818.985 342.958 818.422 342.648 817.651 342.648ZM836.79 341.98C835.538 341.98 834.445 342.504 833.511 343.552 832.578 344.6 831.843 346.099 831.307 348.05 830.771 350.001 830.503 351.682 830.503 353.091 830.503 354.416 830.777 355.394 831.325 356.027 831.873 356.659 832.701 356.975 833.809 356.975 834.99 356.975 836.038 356.445 836.953 355.385 837.868 354.325 838.591 352.841 839.121 350.932 839.651 349.023 839.916 347.346 839.916 345.9 839.916 344.6 839.663 343.621 839.157 342.965 838.651 342.308 837.862 341.98 836.79 341.98ZM855.435 340.535C856.556 340.535 857.576 340.601 858.498 340.733 859.419 340.866 860.337 341.095 861.253 341.42L860.44 345.214 858.976 345.214C858.844 344.142 858.492 343.329 857.92 342.775 857.347 342.221 856.447 341.944 855.219 341.944 854.267 341.944 853.496 342.188 852.906 342.675 852.316 343.163 852.021 343.805 852.021 344.6 852.021 345.033 852.096 345.416 852.247 345.747 852.397 346.078 852.701 346.442 853.159 346.84 853.617 347.237 854.327 347.725 855.291 348.303 856.05 348.761 856.658 349.179 857.116 349.559 857.573 349.938 857.935 350.315 858.2 350.688 858.465 351.061 858.657 351.456 858.778 351.871 858.898 352.287 858.958 352.79 858.958 353.38 858.958 354.452 858.672 355.37 858.1 356.135 857.528 356.9 856.751 357.469 855.77 357.842 854.788 358.216 853.671 358.402 852.418 358.402 851.419 358.402 850.437 358.327 849.474 358.176 848.51 358.026 847.438 357.77 846.258 357.409L847.125 353.47 848.534 353.47C848.582 354.626 848.907 355.5 849.51 356.09 850.112 356.68 851.069 356.975 852.382 356.975 853.526 356.975 854.421 356.719 855.065 356.207 855.709 355.695 856.032 354.97 856.032 354.03 856.032 353.488 855.941 353.021 855.761 352.63 855.58 352.239 855.285 351.862 854.875 351.501 854.466 351.14 853.815 350.688 852.924 350.146 851.985 349.58 851.253 349.068 850.729 348.61 850.205 348.153 849.811 347.656 849.546 347.12 849.281 346.584 849.148 345.967 849.148 345.268 849.148 344.316 849.404 343.482 849.916 342.766 850.428 342.049 851.16 341.498 852.111 341.113 853.063 340.727 854.171 340.535 855.435 340.535ZM837.152 340.535C839.079 340.535 840.548 341.062 841.56 342.115 842.572 343.169 843.078 344.678 843.078 346.641 843.078 348.038 842.834 349.532 842.346 351.121 841.858 352.711 841.19 354.048 840.34 355.132 839.491 356.216 838.477 357.032 837.296 357.58 836.116 358.128 834.761 358.402 833.231 358.402 831.364 358.402 829.916 357.878 828.886 356.83 827.857 355.783 827.342 354.277 827.342 352.314 827.342 351.35 827.486 350.236 827.775 348.972 828.149 347.261 828.775 345.768 829.654 344.491 830.533 343.214 831.617 342.236 832.906 341.555 834.195 340.875 835.61 340.535 837.152 340.535ZM810.045 340.517C810.792 340.517 811.385 340.763 811.825 341.257 812.264 341.751 812.484 342.407 812.484 343.226 812.484 343.901 812.346 344.612 812.069 345.358L812.286 345.431C814.514 342.167 816.73 340.535 818.934 340.535 820.247 340.535 821.268 341.034 821.996 342.034 822.725 343.034 823.089 344.443 823.089 346.262 823.089 348.249 822.689 350.203 821.888 352.124 821.087 354.045 819.976 355.569 818.555 356.695 817.133 357.821 815.544 358.384 813.785 358.384 812.183 358.384 810.852 358.035 809.792 357.336L808.961 361.293C808.781 362.148 808.69 362.853 808.69 363.407 808.69 363.937 808.826 364.313 809.097 364.536 809.368 364.759 809.895 364.906 810.678 364.978L810.533 365.864 804.951 365.864 809.305 346.695C809.557 345.587 809.684 344.678 809.684 343.967 809.684 343.485 809.606 343.136 809.449 342.919 809.293 342.703 809.046 342.594 808.708 342.594 808.335 342.594 807.941 342.748 807.525 343.055 807.109 343.362 806.54 343.919 805.818 344.726L804.788 343.714C805.872 342.582 806.79 341.766 807.543 341.266 808.296 340.766 809.13 340.517 810.045 340.517Z" fill-rule="evenodd"/><text fill="#000000" fill-opacity="0" font-family="Arial,Arial_MSFontService,sans-serif" font-size="25.3472" x="804.788" y="362.695">𝑝𝑜𝑠</text><path d="M867.603 352.387 868.249 352.387 866.297 361.167C866.174 361.685 866.089 362.098 866.04 362.406 865.992 362.714 865.968 362.991 865.968 363.237 865.968 363.571 866.036 363.812 866.172 363.962 866.308 364.111 866.513 364.186 866.785 364.186 866.943 364.186 867.102 364.155 867.26 364.094 867.418 364.032 867.587 363.935 867.767 363.803 867.948 363.672 868.145 363.502 868.361 363.296 868.576 363.089 868.815 362.841 869.079 362.551L869.976 363.421C869.519 363.887 869.103 364.28 868.73 364.601 868.356 364.922 868.002 365.183 867.668 365.386 867.334 365.588 867.007 365.733 866.686 365.821 866.365 365.908 866.025 365.952 865.665 365.952 865.331 365.952 865.03 365.891 864.761 365.768 864.493 365.645 864.263 365.476 864.069 365.26 863.876 365.045 863.727 364.788 863.621 364.489 863.516 364.19 863.463 363.861 863.463 363.5 863.463 363.21 863.498 362.85 863.568 362.419 863.639 361.989 863.729 361.521 863.839 361.015 863.948 360.51 864.069 359.98 864.201 359.427 864.333 358.873 864.463 358.324 864.59 357.779 864.718 357.234 864.832 356.709 864.933 356.203 865.034 355.698 865.106 355.239 865.15 354.825 865.168 354.755 865.177 354.687 865.177 354.621 865.177 354.555 865.177 354.496 865.177 354.443 865.159 354.1 865.038 353.85 864.814 353.692 864.59 353.533 864.192 353.446 863.621 353.428L863.779 352.532ZM866.838 347.074 869.475 347.074 868.829 349.908 866.218 349.908Z" fill-rule="evenodd"/><text fill="#000000" fill-opacity="0" font-family="Arial,Arial_MSFontService,sans-serif" font-size="18.8789" x="863.463" y="363.593">𝑖</text><path d="M636.153 392.542 658.411 392.542 658.411 394.945 636.153 394.945Z" fill-rule="evenodd"/><text fill="#000000" fill-opacity="0" font-family="Arial,Arial_MSFontService,sans-serif" font-size="2.40283" x="636.153" y="394.645">−</text><path d="M672.965 379.372 673.959 379.372C673.887 380.528 673.851 382.13 673.851 384.178L673.851 399.606C673.851 400.305 673.89 400.832 673.968 401.187 674.046 401.543 674.185 401.832 674.383 402.054 674.582 402.277 674.868 402.452 675.242 402.578 675.615 402.705 676.085 402.801 676.651 402.867 677.217 402.934 677.964 402.979 678.891 403.003L678.891 404.322 665.54 404.322 665.54 403.003C666.877 402.943 667.831 402.861 668.404 402.759 668.976 402.657 669.412 402.503 669.713 402.298 670.014 402.094 670.234 401.805 670.373 401.431 670.511 401.058 670.581 400.45 670.581 399.606L670.581 384.955C670.581 384.473 670.496 384.121 670.328 383.898 670.159 383.675 669.912 383.563 669.587 383.563 669.201 383.563 668.653 383.762 667.943 384.16 667.232 384.557 666.353 385.105 665.305 385.804L664.51 384.413Z" fill-rule="evenodd"/><text fill="#000000" fill-opacity="0" font-family="Arial,Arial_MSFontService,sans-serif" font-size="24.9497" x="664.51" y="401.203">1</text><path d="M684.382 400.13 687.544 400.13C687.712 400.973 687.797 401.805 687.797 402.624 687.797 403.467 687.652 404.237 687.363 404.936 687.074 405.635 686.613 406.33 685.981 407.023 685.349 407.715 684.478 408.477 683.37 409.308L682.395 408.206C683.009 407.628 683.455 407.107 683.732 406.643 684.009 406.18 684.207 405.653 684.328 405.062 684.448 404.472 684.508 403.732 684.508 402.84 684.508 401.925 684.466 401.022 684.382 400.13Z" fill-rule="evenodd"/><text fill="#000000" fill-opacity="0" font-family="Arial,Arial_MSFontService,sans-serif" font-size="9.17773" x="682.395" y="408.161">,</text><path d="M703.345 386.888 704.411 386.888 701.81 398.486C701.545 399.667 701.412 400.558 701.412 401.16 701.412 401.642 701.49 401.991 701.647 402.208 701.804 402.425 702.051 402.533 702.388 402.533 702.749 402.533 703.135 402.386 703.544 402.091 703.953 401.796 704.532 401.232 705.278 400.401L706.308 401.413C705.128 402.654 704.17 403.497 703.436 403.942 702.701 404.388 701.876 404.611 700.961 404.611 700.178 404.611 699.551 404.325 699.082 403.753 698.612 403.181 698.377 402.449 698.377 401.558 698.377 400.642 698.546 399.474 698.883 398.053L700.238 392.145C700.515 390.941 700.653 390.037 700.653 389.435 700.653 388.893 700.524 388.526 700.265 388.333 700.006 388.14 699.497 388.032 698.738 388.008L698.937 387.05ZM702.857 379.968 706.055 379.968 705.224 383.473 702.026 383.473ZM724.866 378.378C726.047 378.378 727.064 378.475 727.919 378.667L727.215 381.739 725.625 381.739C725.456 381.052 725.237 380.558 724.966 380.257 724.695 379.956 724.294 379.806 723.764 379.806 723.078 379.806 722.497 379.995 722.021 380.375 721.545 380.754 721.139 381.317 720.801 382.064 720.464 382.811 720.151 383.816 719.862 385.081L719.41 387.05 724.053 387.05 723.656 388.875 718.995 388.875 715.634 404.629C715.08 407.243 714.231 409.191 713.087 410.473 711.943 411.756 710.503 412.397 708.769 412.397 708.263 412.397 707.866 412.367 707.577 412.307L707.884 410.717C708.004 410.753 708.287 410.771 708.733 410.771 709.275 410.771 709.739 410.633 710.124 410.356 710.51 410.079 710.868 409.597 711.199 408.911 711.53 408.224 711.834 407.273 712.111 406.056L715.996 388.875 712.942 388.875 713.213 387.628C714.02 387.58 714.602 387.514 714.957 387.43 715.312 387.345 715.589 387.219 715.788 387.05 715.987 386.882 716.155 386.662 716.294 386.391 716.432 386.12 716.61 385.623 716.827 384.9 717.465 382.732 718.45 381.103 719.781 380.013 721.111 378.923 722.807 378.378 724.866 378.378Z" fill-rule="evenodd"/><text fill="#000000" fill-opacity="0" font-family="Arial,Arial_MSFontService,sans-serif" font-size="34.019" x="698.377" y="408.145">𝑖𝑓</text><path d="M770.877 388.207C769.624 388.207 768.531 388.73 767.598 389.778 766.665 390.826 765.93 392.326 765.394 394.277 764.858 396.228 764.59 397.908 764.59 399.317 764.59 400.642 764.864 401.621 765.412 402.253 765.96 402.885 766.788 403.202 767.896 403.202 769.076 403.202 770.124 402.672 771.04 401.612 771.955 400.552 772.678 399.067 773.208 397.158 773.738 395.249 774.003 393.572 774.003 392.127 774.003 390.826 773.75 389.848 773.244 389.191 772.738 388.535 771.949 388.207 770.877 388.207ZM771.238 386.761C773.165 386.761 774.635 387.288 775.647 388.342 776.658 389.396 777.164 390.904 777.164 392.868 777.164 394.265 776.92 395.758 776.432 397.348 775.945 398.938 775.276 400.275 774.427 401.359 773.578 402.443 772.563 403.259 771.383 403.807 770.203 404.355 768.848 404.629 767.318 404.629 765.451 404.629 764.003 404.105 762.973 403.057 761.943 402.009 761.428 400.504 761.428 398.541 761.428 397.577 761.573 396.463 761.862 395.198 762.235 393.488 762.862 391.994 763.741 390.718 764.62 389.441 765.704 388.462 766.993 387.782 768.282 387.101 769.697 386.761 771.238 386.761ZM743.132 386.743C743.891 386.743 744.49 386.993 744.93 387.493 745.369 387.993 745.589 388.646 745.589 389.453 745.589 390.091 745.444 390.802 745.155 391.585L745.372 391.657C746.553 389.995 747.676 388.764 748.742 387.963 749.807 387.162 750.907 386.761 752.039 386.761 753.159 386.761 754.02 387.083 754.622 387.728 755.224 388.372 755.526 389.266 755.526 390.411 755.526 391.169 755.351 392.247 755.002 393.645L753.827 398.378C753.502 399.691 753.339 400.618 753.339 401.16 753.339 401.642 753.418 401.991 753.574 402.208 753.731 402.425 753.978 402.533 754.315 402.533 754.676 402.533 755.062 402.386 755.471 402.091 755.881 401.796 756.459 401.232 757.206 400.401L758.235 401.413C757.2 402.521 756.296 403.331 755.526 403.843 754.755 404.355 753.875 404.611 752.888 404.611 752.105 404.611 751.479 404.331 751.009 403.771 750.539 403.211 750.304 402.497 750.304 401.63 750.304 400.847 750.503 399.697 750.901 398.179L751.695 395.054C751.984 393.922 752.174 393.084 752.265 392.542 752.355 392 752.4 391.561 752.4 391.224 752.4 390.393 752.262 389.793 751.984 389.426 751.707 389.059 751.256 388.875 750.63 388.875 750.124 388.875 749.579 389.077 748.995 389.48 748.41 389.884 747.79 390.492 747.134 391.305 746.477 392.118 745.95 392.907 745.553 393.672 745.155 394.436 744.83 395.379 744.577 396.499L742.861 404.322 739.735 404.322 742.373 392.868C742.638 391.711 742.771 390.82 742.771 390.194 742.771 389.712 742.692 389.363 742.536 389.146 742.379 388.929 742.132 388.821 741.795 388.821 741.422 388.821 741.027 388.974 740.612 389.281 740.196 389.589 739.627 390.146 738.904 390.953L737.875 389.941C738.983 388.785 739.904 387.963 740.639 387.475 741.373 386.987 742.205 386.743 743.132 386.743ZM785.505 382.588 787.998 382.588 787.005 387.05 792.497 387.05 792.099 388.875 786.607 388.875 784.999 395.885C784.686 397.246 784.487 398.224 784.403 398.821 784.319 399.417 784.276 399.896 784.276 400.257 784.276 401.75 784.897 402.497 786.137 402.497 786.667 402.497 787.23 402.295 787.827 401.892 788.423 401.488 789.13 400.799 789.949 399.823L790.997 400.907C789.949 402.172 788.941 403.105 787.971 403.708 787.002 404.31 785.987 404.611 784.927 404.611 782.41 404.611 781.151 403.34 781.151 400.799 781.151 399.992 781.253 399.143 781.458 398.251L783.59 388.875 780.555 388.875 780.826 387.628C781.536 387.616 782.075 387.562 782.443 387.466 782.81 387.369 783.117 387.237 783.364 387.068 783.611 386.9 783.837 386.659 784.042 386.346 784.246 386.033 784.445 385.632 784.638 385.144 784.831 384.656 785.12 383.804 785.505 382.588Z" fill-rule="evenodd"/><text fill="#000000" fill-opacity="0" font-family="Arial,Arial_MSFontService,sans-serif" font-size="22.041" x="737.875" y="401.874">𝑛𝑜𝑡</text></g></svg>