<svg width="1280" height="720" xmlns="http://www.w3.org/2000/svg" xmlns:xlink="http://www.w3.org/1999/xlink" overflow="hidden"><defs><clipPath id="clip0"><rect x="0" y="0" width="1280" height="720"/></clipPath></defs><g clip-path="url(#clip0)"><rect x="0" y="0" width="1280" height="720" fill="#FFFFFF"/><text font-family="Cambria Math,Cambria Math_MSFontService,sans-serif" font-weight="400" font-size="32" transform="translate(66.8477 385)">𝑣<tspan font-size="23" x="17.02" y="7">𝑖</tspan></text><path d="M121.903 361.163C124.945 361.965 127.281 363.697 128.911 366.358 130.541 369.02 131.356 372.231 131.356 375.991 131.356 379.762 130.544 382.973 128.919 385.624 127.294 388.275 124.955 390.001 121.903 390.804L121.528 389.6C123.935 388.798 125.724 387.215 126.895 384.85 128.067 382.486 128.653 379.481 128.653 375.835 128.653 372.314 128.07 369.389 126.903 367.061 125.737 364.733 123.929 363.168 121.481 362.366ZM106.427 361.163 106.848 362.366C104.411 363.168 102.606 364.733 101.434 367.061 100.263 369.389 99.6766 372.314 99.6766 375.835 99.6766 379.481 100.263 382.486 101.434 384.85 102.606 387.215 104.395 388.798 106.802 389.6L106.427 390.804C103.375 390.001 101.036 388.275 99.411 385.624 97.786 382.973 96.9735 379.762 96.9735 375.991 96.9735 372.231 97.7886 369.02 99.4188 366.358 101.049 363.697 103.385 361.965 106.427 361.163Z" fill-rule="evenodd"/><text font-family="Cambria Math,Cambria Math_MSFontService,sans-serif" font-weight="400" font-size="32" transform="translate(107.441 385)">𝑡<tspan font-size="32" x="35.6133" y="0">=</tspan><tspan font-size="32" x="68.3333" y="0">𝑐𝑖𝑛𝑒𝑟𝑐𝑖𝑎</tspan><tspan font-size="32" x="193.06" y="0">∗</tspan><tspan font-size="32" x="215.673" y="0">𝑣</tspan><tspan font-size="23" x="232.693" y="7">𝑖</tspan></text><path d="M433.897 361.163C436.938 361.965 439.274 363.697 440.904 366.358 442.535 369.02 443.35 372.231 443.35 375.991 443.35 379.762 442.537 382.973 440.912 385.624 439.287 388.275 436.949 390.001 433.897 390.804L433.522 389.6C435.928 388.798 437.717 387.215 438.889 384.85 440.061 382.486 440.647 379.481 440.647 375.835 440.647 372.314 440.063 369.389 438.897 367.061 437.73 364.733 435.923 363.168 433.475 362.366ZM362.693 361.163 363.115 362.366C360.678 363.168 358.873 364.733 357.701 367.061 356.529 369.389 355.943 372.314 355.943 375.835 355.943 379.481 356.529 382.486 357.701 384.85 358.873 387.215 360.662 388.798 363.068 389.6L362.693 390.804C359.641 390.001 357.303 388.275 355.678 385.624 354.053 382.973 353.24 379.762 353.24 375.991 353.24 372.231 354.055 369.02 355.685 366.358 357.316 363.697 359.652 361.965 362.693 361.163Z" fill-rule="evenodd"/><text font-family="Cambria Math,Cambria Math_MSFontService,sans-serif" font-weight="400" font-size="32" transform="translate(363.708 385)">𝑡<tspan font-size="32" x="20.56" y="0">−</tspan><tspan font-size="32" x="51.5067" y="0">1</tspan><tspan font-size="32" x="89.5667" y="0">+</tspan><tspan font-size="32" x="120.513" y="0">𝑐𝑐𝑜𝑔𝑛𝑖𝑡𝑖𝑣𝑜</tspan><tspan font-size="32" x="279.827" y="0">∗</tspan><tspan font-size="32" x="302.44" y="0">𝑟𝑑1</tspan><tspan font-size="32" x="360.887" y="0">∗</tspan><tspan font-size="32" x="383.5" y="0">𝑣𝑐𝑜𝑔</tspan><tspan font-size="32" x="459.66" y="0">+</tspan><tspan font-size="32" x="490.607" y="0">𝑐𝑠𝑜𝑐𝑖𝑎𝑙</tspan><tspan font-size="32" x="598.067" y="0">∗</tspan><tspan font-size="32" x="620.68" y="0">𝑟𝑑</tspan><tspan font-size="32" x="654.347" y="0">2</tspan><tspan font-size="32" x="679.127" y="0">∗</tspan><tspan font-family="Calibri,Calibri_MSFontService,sans-serif" font-size="32" x="694.627" y="0">vsocial</tspan></text></g></svg>