<svg width="1280" height="720" xmlns="http://www.w3.org/2000/svg" xmlns:xlink="http://www.w3.org/1999/xlink" overflow="hidden"><defs><clipPath id="clip0"><rect x="0" y="0" width="1280" height="720"/></clipPath></defs><g clip-path="url(#clip0)"><rect x="0" y="0" width="1280" height="720" fill="#FFFFFF"/><text font-family="Cambria Math,Cambria Math_MSFontService,sans-serif" font-weight="400" font-size="35" transform="translate(365.521 376)">ğ‘ğ‘œğ‘ <tspan font-size="26" x="52.9867" y="7">ğ‘–</tspan><tspan font-size="35" x="73.7533" y="0">=</tspan></text><path d="M1.72607-10.8179C3.34391-10.8634 4.60286-11.5955 5.50293-13.0139 6.40299-14.4324 6.85303-16.5316 6.85303-19.3115 6.85303-20.5762 6.59953-22.9716 6.09253-26.4978 5.58553-30.024 5.33203-32.9378 5.33203-35.2393 5.33203-41.0384 6.28621-45.5501 8.19458-48.7744 10.1029-51.9987 12.8174-53.833 16.3379-54.2773L16.3379-52.7563C15.153-52.5627 14.0849-52.0898 13.1335-51.3379 12.1822-50.5859 11.3704-49.552 10.6982-48.2361 10.026-46.9202 9.50765-45.3109 9.14307-43.4082 8.77848-41.5055 8.59619-39.3123 8.59619-36.8286 8.59619-34.9715 8.82975-32.1574 9.29688-28.3862 9.764-24.6151 9.99756-22.1484 9.99756-20.9863 9.99756-17.9671 9.45638-15.5204 8.37402-13.6462 7.29167-11.7721 6.21501-10.6242 5.14404-10.2026L5.14404-9.80957C6.21501-9.38802 7.29167-8.2487 8.37402-6.3916 9.45638-4.5345 9.99756-2.09066 9.99756 0.939941 9.99756 1.63493 9.764 4.18132 9.29688 8.5791 8.82975 12.9769 8.59619 15.6942 8.59619 16.731 8.59619 19.2489 8.76424 21.4563 9.10034 23.3533 9.43644 25.2502 9.95199 26.8652 10.647 28.1982 11.3534 29.554 12.1765 30.6051 13.1165 31.3513 14.0564 32.0976 15.1302 32.5675 16.3379 32.7612L16.3379 34.2822C12.9199 34.0202 10.2311 32.2827 8.27148 29.0698 6.31185 25.8569 5.33203 21.5332 5.33203 16.0986 5.33203 14.0592 5.58553 11.0059 6.09253 6.93848 6.59953 2.87109 6.85303 0.31901 6.85303-0.717773 6.85303-3.41797 6.40584-5.49438 5.51147-6.94702 4.61711-8.39966 3.35531-9.14876 1.72607-9.19434Z" transform="translate(474.734 376)"/><text font-family="Cambria Math,Cambria Math_MSFontService,sans-serif" font-weight="400" font-size="35" transform="translate(492.001 353)">(<tspan font-size="35" x="14.3333" y="0">ğ‘ğ‘œğ‘ </tspan><tspan font-size="26" x="67.32" y="7">ğ‘–</tspan><tspan font-size="35" x="78.46" y="0">+</tspan><tspan font-size="35" x="104.293" y="0">1</tspan><tspan font-size="35" x="123.46" y="0">)</tspan><tspan font-size="35" x="137.793" y="0"> </tspan><tspan font-size="35" x="145.46" y="0">%</tspan><tspan font-size="35" x="176.293" y="0"> </tspan><tspan font-size="35" x="183.96" y="0">2</tspan><tspan font-size="35" x="203.127" y="0">,</tspan><tspan font-size="35" x="216.073" y="0">ğ‘–ğ‘“</tspan><tspan font-size="35" x="247.087" y="0"> </tspan><tspan font-size="35" x="254.753" y="0">ğ‘Ÿğ‘ğ‘›ğ‘‘</tspan><tspan font-size="35" x="331.687" y="0">(</tspan><tspan font-size="35" x="346.02" y="0">)</tspan><tspan font-size="35" x="369.98" y="0">&lt;</tspan><tspan font-size="35" x="405.607" y="0">ğ‘ </tspan><tspan font-size="35" x="126.86" y="43">ğ‘ğ‘œğ‘ </tspan><tspan font-size="26" x="179.847" y="50">ğ‘–</tspan><tspan font-size="35" x="190.987" y="43">,</tspan><tspan font-size="35" x="203.933" y="43">ğ‘–ğ‘“</tspan><tspan font-size="35" x="234.947" y="43"> </tspan><tspan font-size="35" x="242.613" y="43">ğ‘›ğ‘œğ‘¡</tspan></text></g></svg>