<svg width="1280" height="720" xmlns="http://www.w3.org/2000/svg" xmlns:xlink="http://www.w3.org/1999/xlink" overflow="hidden"><defs><clipPath id="clip0"><rect x="0" y="0" width="1280" height="720"/></clipPath></defs><g clip-path="url(#clip0)"><rect x="0" y="0" width="1280" height="720" fill="#FFFFFF"/><path d="M439.491 367.408C438.877 367.408 438.272 367.616 437.676 368.032 437.079 368.447 436.426 369.113 435.715 370.028 435.005 370.943 434.451 371.847 434.053 372.738 433.656 373.629 433.343 374.653 433.114 375.809L432.969 376.568C432.849 377.206 432.774 377.694 432.743 378.031 432.713 378.369 432.698 378.7 432.698 379.025 432.698 379.965 432.9 380.648 433.304 381.076 433.707 381.503 434.403 381.717 435.39 381.717 436.004 381.717 436.571 381.596 437.088 381.356 437.606 381.115 438.097 380.765 438.561 380.308 439.025 379.85 439.443 379.296 439.816 378.646 440.19 377.995 440.524 377.24 440.819 376.378 441.114 375.517 441.337 374.632 441.488 373.723 441.638 372.813 441.713 371.961 441.713 371.166 441.713 369.902 441.536 368.959 441.18 368.339 440.825 367.719 440.262 367.408 439.491 367.408ZM458.63 366.74C457.378 366.74 456.285 367.264 455.351 368.312 454.418 369.36 453.683 370.859 453.147 372.81 452.611 374.761 452.343 376.442 452.343 377.851 452.343 379.176 452.617 380.154 453.165 380.787 453.713 381.419 454.541 381.735 455.649 381.735 456.83 381.735 457.878 381.205 458.793 380.145 459.708 379.085 460.431 377.601 460.961 375.692 461.491 373.783 461.756 372.106 461.756 370.66 461.756 369.36 461.503 368.381 460.997 367.725 460.491 367.068 459.702 366.74 458.63 366.74ZM477.275 365.295C478.396 365.295 479.416 365.361 480.338 365.493 481.259 365.626 482.177 365.855 483.093 366.18L482.28 369.974 480.816 369.974C480.684 368.902 480.332 368.089 479.76 367.535 479.187 366.981 478.287 366.704 477.059 366.704 476.107 366.704 475.336 366.948 474.746 367.435 474.156 367.923 473.861 368.565 473.861 369.36 473.861 369.793 473.936 370.176 474.087 370.507 474.237 370.838 474.541 371.202 474.999 371.6 475.457 371.997 476.167 372.485 477.131 373.063 477.89 373.521 478.498 373.939 478.956 374.319 479.413 374.698 479.775 375.075 480.04 375.448 480.305 375.821 480.497 376.216 480.618 376.631 480.738 377.047 480.798 377.55 480.798 378.14 480.798 379.212 480.512 380.13 479.94 380.895 479.368 381.66 478.591 382.229 477.61 382.602 476.628 382.976 475.511 383.162 474.258 383.162 473.259 383.162 472.277 383.087 471.314 382.936 470.35 382.786 469.278 382.53 468.098 382.169L468.965 378.23 470.374 378.23C470.422 379.386 470.747 380.26 471.35 380.85 471.952 381.44 472.909 381.735 474.222 381.735 475.366 381.735 476.261 381.479 476.905 380.967 477.549 380.455 477.872 379.73 477.872 378.79 477.872 378.248 477.781 377.781 477.601 377.39 477.42 376.999 477.125 376.622 476.715 376.261 476.306 375.9 475.655 375.448 474.764 374.906 473.825 374.34 473.093 373.828 472.569 373.37 472.045 372.913 471.651 372.416 471.386 371.88 471.121 371.344 470.988 370.727 470.988 370.028 470.988 369.076 471.244 368.242 471.756 367.526 472.268 366.809 473 366.258 473.951 365.873 474.903 365.487 476.011 365.295 477.275 365.295ZM458.992 365.295C460.919 365.295 462.388 365.822 463.4 366.875 464.412 367.929 464.918 369.438 464.918 371.401 464.918 372.798 464.674 374.292 464.186 375.882 463.698 377.471 463.03 378.808 462.18 379.892 461.331 380.976 460.317 381.792 459.136 382.34 457.956 382.888 456.601 383.162 455.071 383.162 453.204 383.162 451.756 382.638 450.726 381.59 449.697 380.543 449.182 379.037 449.182 377.074 449.182 376.11 449.326 374.996 449.615 373.732 449.989 372.021 450.615 370.528 451.494 369.251 452.373 367.974 453.457 366.996 454.746 366.315 456.035 365.635 457.45 365.295 458.992 365.295ZM431.885 365.277C432.632 365.277 433.225 365.523 433.665 366.017 434.104 366.511 434.324 367.167 434.324 367.986 434.324 368.661 434.186 369.372 433.909 370.118L434.126 370.191C436.354 366.927 438.57 365.295 440.774 365.295 442.087 365.295 443.108 365.794 443.836 366.794 444.565 367.794 444.929 369.203 444.929 371.022 444.929 373.009 444.529 374.963 443.728 376.884 442.927 378.805 441.816 380.329 440.395 381.455 438.973 382.581 437.384 383.144 435.625 383.144 434.023 383.144 432.692 382.795 431.632 382.096L430.801 386.053C430.621 386.908 430.53 387.613 430.53 388.167 430.53 388.697 430.666 389.073 430.937 389.296 431.208 389.519 431.735 389.666 432.518 389.738L432.373 390.624 426.791 390.624 431.145 371.455C431.398 370.347 431.524 369.438 431.524 368.727 431.524 368.245 431.446 367.896 431.289 367.679 431.133 367.463 430.886 367.354 430.548 367.354 430.175 367.354 429.781 367.508 429.365 367.815 428.95 368.122 428.38 368.679 427.658 369.486L426.628 368.474C427.712 367.342 428.63 366.526 429.383 366.026 430.136 365.526 430.97 365.277 431.885 365.277Z" fill-rule="evenodd"/><text fill="#000000" fill-opacity="0" font-family="Arial,Arial_MSFontService,sans-serif" font-size="25.3472" x="426.628" y="387.455">ğ‘ğ‘œğ‘ </text><path d="M489.443 377.147 490.089 377.147 488.137 385.927C488.014 386.445 487.929 386.858 487.88 387.166 487.832 387.474 487.808 387.751 487.808 387.997 487.808 388.331 487.876 388.572 488.012 388.722 488.148 388.871 488.353 388.946 488.625 388.946 488.783 388.946 488.942 388.915 489.1 388.854 489.258 388.792 489.427 388.695 489.607 388.564 489.787 388.432 489.985 388.262 490.201 388.056 490.416 387.849 490.655 387.601 490.919 387.311L491.816 388.181C491.359 388.647 490.943 389.04 490.57 389.361 490.196 389.682 489.842 389.943 489.508 390.146 489.174 390.348 488.847 390.493 488.526 390.581 488.205 390.668 487.865 390.712 487.505 390.712 487.171 390.712 486.87 390.651 486.601 390.528 486.333 390.405 486.103 390.236 485.909 390.02 485.716 389.805 485.567 389.548 485.461 389.249 485.356 388.95 485.303 388.621 485.303 388.26 485.303 387.97 485.338 387.61 485.408 387.179 485.479 386.749 485.569 386.281 485.679 385.775 485.788 385.27 485.909 384.74 486.041 384.187 486.173 383.633 486.303 383.084 486.43 382.539 486.557 381.994 486.672 381.469 486.773 380.963 486.874 380.458 486.946 379.999 486.99 379.585 487.008 379.515 487.017 379.447 487.017 379.381 487.017 379.315 487.017 379.256 487.017 379.203 486.999 378.86 486.878 378.61 486.654 378.452 486.43 378.293 486.032 378.206 485.461 378.188L485.619 377.292ZM488.678 371.834 491.315 371.834 490.669 374.668 488.058 374.668Z" fill-rule="evenodd"/><text fill="#000000" fill-opacity="0" font-family="Arial,Arial_MSFontService,sans-serif" font-size="18.8789" x="485.303" y="388.353">ğ‘–</text><path d="M508.153 374.834 530.411 374.834 530.411 377.236 508.153 377.236ZM508.153 367.336 530.411 367.336 530.411 369.739 508.153 369.739Z" fill-rule="evenodd"/><text fill="#000000" fill-opacity="0" font-family="Arial,Arial_MSFontService,sans-serif" font-size="9.90039" x="508.153" y="375.999">=</text><path d="M560.939 325.47 560.939 327.077C559.687 327.282 558.557 327.782 557.552 328.577 556.546 329.372 555.688 330.465 554.977 331.856 554.267 333.247 553.719 334.948 553.333 336.96 552.948 338.971 552.755 341.29 552.755 343.915 552.755 345.879 553.002 348.853 553.496 352.84 553.99 356.827 554.237 359.434 554.237 360.663 554.237 363.855 553.664 366.441 552.52 368.422 551.376 370.404 550.238 371.617 549.106 372.063L549.106 372.478C550.238 372.924 551.376 374.128 552.52 376.092 553.664 378.055 554.237 380.638 554.237 383.842 554.237 384.577 553.99 387.269 553.496 391.918 553.002 396.567 552.755 399.439 552.755 400.535 552.755 403.197 552.933 405.531 553.288 407.536 553.643 409.542 554.188 411.249 554.923 412.658 555.67 414.091 556.54 415.202 557.534 415.991 558.527 416.78 559.663 417.277 560.939 417.482L560.939 419.09C557.326 418.813 554.483 416.976 552.412 413.579 550.34 410.183 549.304 405.612 549.304 399.867 549.304 397.711 549.572 394.483 550.108 390.183 550.644 385.884 550.912 383.186 550.912 382.09 550.912 379.235 550.44 377.04 549.494 375.504 548.549 373.969 547.215 373.177 545.492 373.129L545.492 371.412C547.203 371.364 548.534 370.59 549.485 369.091 550.437 367.591 550.912 365.372 550.912 362.433 550.912 361.096 550.644 358.564 550.108 354.836 549.572 351.109 549.304 348.028 549.304 345.596 549.304 339.465 550.313 334.695 552.331 331.287 554.348 327.878 557.218 325.939 560.939 325.47Z" fill-rule="evenodd"/><text fill="#000000" fill-opacity="0" font-family="Arial,Arial_MSFontService,sans-serif" font-size="93.6201" x="545.492" y="407.387">á‰Š</text><path d="M573.932 333.179 574.926 333.179C574.853 334.335 574.817 335.937 574.817 337.984L574.817 353.413C574.817 354.112 574.856 354.639 574.935 354.994 575.013 355.349 575.151 355.638 575.35 355.861 575.549 356.084 575.835 356.259 576.208 356.385 576.582 356.512 577.051 356.608 577.617 356.674 578.184 356.74 578.93 356.786 579.858 356.81L579.858 358.128 566.507 358.128 566.507 356.81C567.844 356.749 568.798 356.668 569.37 356.566 569.942 356.463 570.379 356.31 570.68 356.105 570.981 355.9 571.201 355.611 571.339 355.238 571.478 354.864 571.547 354.256 571.547 353.413L571.547 338.761C571.547 338.279 571.463 337.927 571.294 337.704 571.126 337.482 570.879 337.37 570.554 337.37 570.168 337.37 569.62 337.569 568.909 337.966 568.199 338.364 567.32 338.912 566.272 339.61L565.477 338.219Z" fill-rule="evenodd"/><text fill="#000000" fill-opacity="0" font-family="Arial,Arial_MSFontService,sans-serif" font-size="24.9497" x="565.477" y="355.01">1</text><path d="M585.349 353.937 588.51 353.937C588.679 354.78 588.763 355.611 588.763 356.43 588.763 357.273 588.619 358.044 588.33 358.743 588.041 359.441 587.58 360.137 586.948 360.829 586.315 361.522 585.445 362.284 584.337 363.115L583.361 362.013C583.976 361.435 584.421 360.914 584.698 360.45 584.975 359.986 585.174 359.459 585.294 358.869 585.415 358.279 585.475 357.538 585.475 356.647 585.475 355.732 585.433 354.828 585.349 353.937Z" fill-rule="evenodd"/><text fill="#000000" fill-opacity="0" font-family="Arial,Arial_MSFontService,sans-serif" font-size="9.17773" x="583.361" y="361.968">,</text><path d="M604.312 340.694 605.378 340.694 602.776 352.293C602.511 353.473 602.379 354.365 602.379 354.967 602.379 355.449 602.457 355.798 602.614 356.015 602.77 356.231 603.017 356.34 603.354 356.34 603.716 356.34 604.101 356.192 604.511 355.897 604.92 355.602 605.498 355.039 606.245 354.208L607.275 355.22C606.094 356.46 605.137 357.303 604.402 357.749 603.668 358.195 602.843 358.418 601.927 358.418 601.144 358.418 600.518 358.131 600.048 357.559 599.579 356.987 599.344 356.256 599.344 355.364 599.344 354.449 599.512 353.281 599.85 351.859L601.205 345.952C601.482 344.747 601.62 343.844 601.62 343.242 601.62 342.7 601.491 342.332 601.232 342.14 600.973 341.947 600.464 341.839 599.705 341.814L599.904 340.857ZM603.824 333.775 607.022 333.775 606.191 337.28 602.993 337.28ZM625.833 332.185C627.013 332.185 628.031 332.281 628.886 332.474L628.182 335.545 626.592 335.545C626.423 334.859 626.203 334.365 625.932 334.064 625.661 333.763 625.261 333.612 624.731 333.612 624.044 333.612 623.463 333.802 622.987 334.181 622.512 334.561 622.105 335.124 621.768 335.871 621.431 336.617 621.118 337.623 620.829 338.888L620.377 340.857 625.02 340.857 624.622 342.682 619.961 342.682 616.601 358.436C616.047 361.049 615.198 362.997 614.054 364.28 612.909 365.563 611.47 366.204 609.736 366.204 609.23 366.204 608.832 366.174 608.543 366.114L608.851 364.524C608.971 364.56 609.254 364.578 609.7 364.578 610.242 364.578 610.705 364.44 611.091 364.163 611.476 363.886 611.834 363.404 612.166 362.717 612.497 362.031 612.801 361.079 613.078 359.863L616.962 342.682 613.909 342.682 614.18 341.435C614.987 341.387 615.568 341.321 615.924 341.236 616.279 341.152 616.556 341.026 616.755 340.857 616.953 340.688 617.122 340.469 617.26 340.198 617.399 339.927 617.577 339.43 617.793 338.707 618.432 336.539 619.416 334.91 620.747 333.82 622.078 332.73 623.773 332.185 625.833 332.185Z" fill-rule="evenodd"/><text fill="#000000" fill-opacity="0" font-family="Arial,Arial_MSFontService,sans-serif" font-size="34.019" x="599.344" y="361.952">ğ‘–ğ‘“</text><path d="M709.952 341.977C708.724 341.977 707.622 342.474 706.646 343.468 705.67 344.461 704.903 345.801 704.343 347.487 703.782 349.174 703.502 350.854 703.502 352.528 703.502 353.78 703.674 354.717 704.017 355.337 704.361 355.957 704.936 356.268 705.743 356.268 706.116 356.268 706.495 356.186 706.881 356.024 707.266 355.861 707.667 355.599 708.082 355.238 708.498 354.876 708.907 354.437 709.311 353.919 709.714 353.401 710.085 352.88 710.422 352.356 710.759 351.832 711.072 351.212 711.361 350.495 711.65 349.779 711.897 348.915 712.102 347.903L712.265 347.126C712.445 346.259 712.536 345.44 712.536 344.669 712.536 343.73 712.337 343.046 711.939 342.618 711.542 342.191 710.88 341.977 709.952 341.977ZM667.988 341.977C666.748 341.977 665.634 342.477 664.646 343.477 663.658 344.476 662.888 345.816 662.333 347.496 661.779 349.177 661.502 350.854 661.502 352.528 661.502 353.78 661.674 354.717 662.017 355.337 662.361 355.957 662.936 356.268 663.743 356.268 664.538 356.268 665.317 355.924 666.082 355.238 666.847 354.551 667.636 353.573 668.449 352.302 669.262 351.031 669.837 349.565 670.174 347.903L670.337 347.126C670.445 346.632 670.518 346.205 670.554 345.843 670.59 345.482 670.608 345.091 670.608 344.669 670.608 343.742 670.409 343.061 670.012 342.627 669.614 342.194 668.94 341.977 667.988 341.977ZM683.099 340.55C683.857 340.55 684.457 340.8 684.896 341.3 685.336 341.799 685.556 342.453 685.556 343.26 685.556 343.898 685.411 344.609 685.122 345.392L685.339 345.464C686.519 343.802 687.642 342.57 688.708 341.769 689.774 340.968 690.873 340.568 692.005 340.568 693.125 340.568 693.987 340.89 694.589 341.534 695.191 342.179 695.492 343.073 695.492 344.217 695.492 344.976 695.318 346.054 694.968 347.451L693.794 352.185C693.469 353.497 693.306 354.425 693.306 354.967 693.306 355.449 693.384 355.798 693.541 356.015 693.698 356.231 693.945 356.34 694.282 356.34 694.643 356.34 695.029 356.192 695.438 355.897 695.847 355.602 696.426 355.039 697.172 354.208L698.202 355.22C697.166 356.328 696.263 357.138 695.492 357.65 694.721 358.162 693.842 358.418 692.854 358.418 692.072 358.418 691.445 358.137 690.976 357.577 690.506 357.017 690.271 356.304 690.271 355.437 690.271 354.654 690.47 353.503 690.867 351.986L691.662 348.86C691.951 347.728 692.141 346.891 692.231 346.349 692.322 345.807 692.367 345.368 692.367 345.03 692.367 344.199 692.228 343.6 691.951 343.233 691.674 342.865 691.222 342.682 690.596 342.682 690.09 342.682 689.545 342.883 688.961 343.287 688.377 343.69 687.757 344.299 687.1 345.112 686.444 345.925 685.917 346.714 685.52 347.478 685.122 348.243 684.797 349.186 684.544 350.306L682.828 358.128 679.702 358.128 682.34 346.674C682.605 345.518 682.737 344.627 682.737 344.001 682.737 343.519 682.659 343.169 682.502 342.953 682.346 342.736 682.099 342.627 681.762 342.627 681.388 342.627 680.994 342.781 680.578 343.088 680.163 343.395 679.594 343.952 678.871 344.759L677.841 343.748C678.949 342.591 679.871 341.769 680.605 341.282 681.34 340.794 682.171 340.55 683.099 340.55ZM667.627 340.55C668.41 340.55 669.142 340.637 669.822 340.812 670.503 340.986 671.204 341.297 671.927 341.742L673.589 340.55 674.745 340.839 672.089 352.293C671.824 353.437 671.692 354.328 671.692 354.967 671.692 355.449 671.77 355.798 671.927 356.015 672.083 356.231 672.33 356.34 672.667 356.34 673.029 356.34 673.414 356.192 673.824 355.897 674.233 355.602 674.811 355.039 675.558 354.208L676.588 355.22C675.504 356.376 674.58 357.198 673.815 357.686 673.05 358.174 672.222 358.418 671.331 358.418 670.584 358.418 669.988 358.171 669.542 357.677 669.096 357.183 668.874 356.527 668.874 355.708 668.874 355.045 669.012 354.341 669.289 353.594L669.054 353.522C667.898 355.208 666.802 356.442 665.766 357.225 664.73 358.008 663.634 358.399 662.478 358.399 661.153 358.399 660.126 357.9 659.398 356.9 658.669 355.9 658.305 354.497 658.305 352.69 658.305 350.619 658.711 348.629 659.524 346.72 660.337 344.81 661.454 343.305 662.875 342.203 664.297 341.101 665.881 340.55 667.627 340.55ZM644.081 340.55C644.839 340.55 645.439 340.8 645.878 341.3 646.318 341.799 646.538 342.453 646.538 343.26 646.538 343.862 646.423 344.482 646.194 345.121L646.429 345.211C647.61 343.609 648.745 342.435 649.835 341.688 650.925 340.941 652.03 340.568 653.15 340.568 654.029 340.568 654.764 340.634 655.354 340.767L654.487 344.814 652.626 344.814C652.554 344.308 652.451 343.916 652.319 343.639 652.186 343.362 652.03 343.169 651.849 343.061 651.668 342.953 651.44 342.898 651.163 342.898 650.729 342.898 650.256 343.085 649.744 343.459 649.232 343.832 648.657 344.416 648.019 345.211 647.381 346.006 646.872 346.771 646.492 347.505 646.113 348.24 645.797 349.174 645.544 350.306L643.828 358.128 640.702 358.128 643.322 346.674C643.49 345.952 643.599 345.392 643.647 344.994 643.695 344.597 643.719 344.266 643.719 344.001 643.719 343.519 643.641 343.169 643.484 342.953 643.328 342.736 643.081 342.627 642.744 342.627 642.37 342.627 641.976 342.781 641.56 343.088 641.145 343.395 640.576 343.952 639.853 344.759L638.823 343.748C639.931 342.591 640.859 341.769 641.605 341.282 642.352 340.794 643.177 340.55 644.081 340.55ZM717.522 332.293 718.588 332.293 714.089 352.293C713.824 353.473 713.692 354.365 713.692 354.967 713.692 355.449 713.77 355.798 713.927 356.015 714.083 356.231 714.33 356.34 714.667 356.34 715.029 356.34 715.414 356.192 715.824 355.897 716.233 355.602 716.811 355.039 717.558 354.208L718.588 355.22C717.48 356.388 716.546 357.213 715.788 357.695 715.029 358.177 714.21 358.418 713.331 358.418 712.584 358.418 711.988 358.171 711.542 357.677 711.096 357.183 710.874 356.527 710.874 355.708 710.874 355.045 711.012 354.341 711.289 353.594L711.054 353.522C709.898 355.208 708.802 356.442 707.766 357.225 706.73 358.008 705.634 358.399 704.478 358.399 703.153 358.399 702.126 357.9 701.398 356.9 700.669 355.9 700.305 354.497 700.305 352.69 700.305 350.619 700.711 348.629 701.524 346.72 702.337 344.81 703.454 343.305 704.875 342.203 706.297 341.101 707.881 340.55 709.627 340.55 710.362 340.55 711.039 340.625 711.659 340.776 712.28 340.926 712.915 341.188 713.565 341.562L714.505 337.388C714.601 336.991 714.686 336.551 714.758 336.069 714.83 335.588 714.866 335.166 714.866 334.805 714.866 334.443 714.8 334.169 714.667 333.983 714.535 333.796 714.345 333.661 714.098 333.576 713.852 333.492 713.409 333.432 712.771 333.396L712.987 332.456Z" fill-rule="evenodd"/><text fill="#000000" fill-opacity="0" font-family="Arial,Arial_MSFontService,sans-serif" font-size="26.124" x="638.823" y="355.152">ğ‘Ÿğ‘ğ‘›ğ‘‘</text><path d="M735.61 332.022 736.098 333.414C733.279 334.341 731.193 336.151 729.838 338.843 728.483 341.534 727.805 344.916 727.805 348.987 727.805 353.202 728.483 356.677 729.838 359.411 731.193 362.145 733.261 363.976 736.043 364.903L735.61 366.294C732.081 365.367 729.377 363.371 727.498 360.305 725.619 357.24 724.68 353.528 724.68 349.168 724.68 344.82 725.622 341.107 727.507 338.03 729.392 334.952 732.093 332.95 735.61 332.022Z" fill-rule="evenodd"/><text fill="#000000" fill-opacity="0" font-family="Arial,Arial_MSFontService,sans-serif" font-size="34.272" x="724.68" y="362.01">(</text><path d="M738.102 332.022C741.619 332.95 744.32 334.952 746.205 338.03 748.09 341.107 749.032 344.82 749.032 349.168 749.032 353.528 748.093 357.24 746.214 360.305 744.335 363.371 741.631 365.367 738.102 366.294L737.668 364.903C740.451 363.976 742.519 362.145 743.874 359.411 745.229 356.677 745.907 353.202 745.907 348.987 745.907 344.916 745.232 341.534 743.883 338.843 742.534 336.151 740.445 334.341 737.614 333.414Z" fill-rule="evenodd"/><text fill="#000000" fill-opacity="0" font-family="Arial,Arial_MSFontService,sans-serif" font-size="34.272" x="737.614" y="362.01">)</text><path d="M787.823 336.34 787.823 339.05 768.203 347.56 787.823 356.069 787.823 358.779 765.493 348.824 765.493 346.295Z" fill-rule="evenodd"/><text fill="#000000" fill-opacity="0" font-family="Arial,Arial_MSFontService,sans-serif" font-size="22.4385" x="765.493" y="355.974">&lt;</text><path d="M843.995 341.977C842.767 341.977 841.665 342.474 840.689 343.468 839.713 344.461 838.946 345.801 838.386 347.487 837.826 349.174 837.545 350.854 837.545 352.528 837.545 353.78 837.726 354.717 838.087 355.337 838.449 355.957 839.015 356.268 839.786 356.268 840.4 356.268 841.011 356.057 841.619 355.635 842.228 355.214 842.878 354.545 843.571 353.63 844.263 352.715 844.802 351.841 845.188 351.01 845.573 350.179 845.901 349.143 846.172 347.903 846.443 346.662 846.579 345.584 846.579 344.669 846.579 343.73 846.38 343.046 845.982 342.618 845.585 342.191 844.923 341.977 843.995 341.977ZM825.672 340.694 826.738 340.694 824.136 352.293C823.871 353.473 823.739 354.365 823.739 354.967 823.739 355.449 823.817 355.798 823.974 356.015 824.13 356.231 824.377 356.34 824.714 356.34 825.076 356.34 825.461 356.192 825.871 355.897 826.28 355.602 826.858 355.039 827.605 354.208L828.635 355.22C827.454 356.46 826.497 357.303 825.762 357.749 825.028 358.195 824.203 358.418 823.287 358.418 822.504 358.418 821.878 358.131 821.408 357.559 820.939 356.987 820.704 356.256 820.704 355.364 820.704 354.449 820.872 353.281 821.21 351.859L822.565 345.952C822.842 344.747 822.98 343.844 822.98 343.242 822.98 342.7 822.851 342.332 822.592 342.14 822.333 341.947 821.824 341.839 821.065 341.814L821.264 340.857ZM811.255 340.568C812.376 340.568 813.396 340.634 814.318 340.767 815.239 340.899 816.157 341.128 817.073 341.453L816.26 345.247 814.796 345.247C814.664 344.175 814.312 343.362 813.74 342.808 813.167 342.254 812.267 341.977 811.039 341.977 810.087 341.977 809.316 342.221 808.726 342.709 808.136 343.197 807.841 343.838 807.841 344.633 807.841 345.066 807.916 345.449 808.067 345.78 808.217 346.111 808.521 346.476 808.979 346.873 809.437 347.271 810.147 347.758 811.111 348.336 811.87 348.794 812.478 349.213 812.936 349.592 813.393 349.971 813.755 350.348 814.02 350.721 814.285 351.095 814.477 351.489 814.598 351.905 814.718 352.32 814.778 352.823 814.778 353.413 814.778 354.485 814.492 355.403 813.92 356.168 813.348 356.933 812.571 357.502 811.59 357.876 810.608 358.249 809.491 358.436 808.238 358.436 807.239 358.436 806.257 358.36 805.294 358.21 804.33 358.059 803.258 357.803 802.078 357.442L802.945 353.503 804.354 353.503C804.402 354.66 804.727 355.533 805.33 356.123 805.932 356.713 806.889 357.008 808.202 357.008 809.346 357.008 810.241 356.752 810.885 356.241 811.529 355.729 811.852 355.003 811.852 354.064 811.852 353.522 811.761 353.055 811.581 352.663 811.4 352.272 811.105 351.896 810.695 351.534 810.286 351.173 809.635 350.721 808.744 350.179 807.805 349.613 807.073 349.101 806.549 348.644 806.025 348.186 805.631 347.689 805.366 347.153 805.101 346.617 804.968 346 804.968 345.301 804.968 344.35 805.224 343.516 805.736 342.799 806.248 342.082 806.98 341.531 807.931 341.146 808.883 340.761 809.991 340.568 811.255 340.568ZM843.706 340.55C844.465 340.55 845.182 340.64 845.856 340.821 846.531 341.001 847.211 341.309 847.898 341.742L849.56 340.55 850.716 340.839 848.855 349.258C848.723 349.848 848.421 351.335 847.952 353.72 847.458 356.25 847.057 358.038 846.75 359.086 846.443 360.134 846.061 361.088 845.603 361.949 845.145 362.811 844.555 363.56 843.833 364.199 843.11 364.837 842.234 365.331 841.204 365.68 840.174 366.029 838.955 366.204 837.545 366.204 832.993 366.204 830.716 364.879 830.716 362.23 830.716 361.555 830.921 360.941 831.331 360.387 831.74 359.833 832.397 359.249 833.3 358.634L834.601 359.682C834.372 359.959 834.179 360.233 834.023 360.504 833.866 360.775 833.755 361.037 833.688 361.29 833.622 361.543 833.589 361.844 833.589 362.193 833.589 363.097 833.914 363.756 834.565 364.172 835.215 364.587 836.197 364.795 837.509 364.795 838.991 364.795 840.18 364.461 841.077 363.792 841.975 363.124 842.743 362.049 843.381 360.567 844.019 359.086 844.64 356.846 845.242 353.847L844.989 353.793C843.821 355.394 842.737 356.563 841.737 357.297 840.737 358.032 839.659 358.399 838.503 358.399 837.19 358.399 836.169 357.906 835.441 356.918 834.712 355.93 834.348 354.521 834.348 352.69 834.348 350.631 834.751 348.653 835.558 346.756 836.365 344.859 837.485 343.35 838.919 342.23 840.352 341.11 841.948 340.55 843.706 340.55ZM825.184 333.775 828.382 333.775 827.551 337.28 824.353 337.28Z" fill-rule="evenodd"/><text fill="#000000" fill-opacity="0" font-family="Arial,Arial_MSFontService,sans-serif" font-size="32.4292" x="802.078" y="362.15">ğ‘ ğ‘–ğ‘”</text><path d="M651.665 381.034C650.834 381.034 650.138 381.281 649.578 381.775 649.018 382.269 648.566 382.98 648.223 383.907 647.88 384.834 647.636 385.964 647.491 387.294 647.347 388.625 647.275 390.128 647.275 391.802 647.275 395.728 647.639 398.61 648.368 400.447 649.096 402.284 650.225 403.202 651.755 403.202 653.212 403.202 654.293 402.338 654.998 400.609 655.703 398.881 656.055 396.204 656.055 392.579 656.055 389.809 655.874 387.565 655.513 385.849 655.152 384.133 654.649 382.901 654.004 382.155 653.36 381.408 652.58 381.034 651.665 381.034ZM651.755 379.499C654.393 379.499 656.356 380.516 657.645 382.552 658.933 384.587 659.578 387.665 659.578 391.784 659.578 396.048 658.888 399.272 657.509 401.458 656.13 403.645 654.116 404.738 651.466 404.738 648.864 404.738 646.928 403.714 645.658 401.666 644.387 399.619 643.752 396.511 643.752 392.344 643.752 390.128 643.947 388.213 644.339 386.599 644.73 384.985 645.278 383.651 645.983 382.597 646.687 381.543 647.534 380.763 648.521 380.258 649.509 379.752 650.587 379.499 651.755 379.499Z" fill-rule="evenodd"/><text fill="#000000" fill-opacity="0" font-family="Arial,Arial_MSFontService,sans-serif" font-size="25.2388" x="643.752" y="401.583">0</text><path d="M664.509 400.257 667.67 400.257C667.839 401.1 667.923 401.931 667.923 402.75 667.923 403.593 667.779 404.364 667.49 405.063 667.201 405.761 666.74 406.457 666.107 407.149 665.475 407.842 664.605 408.604 663.497 409.435L662.521 408.333C663.136 407.755 663.581 407.234 663.858 406.77 664.135 406.306 664.334 405.779 664.454 405.189 664.575 404.599 664.635 403.858 664.635 402.967 664.635 402.052 664.593 401.148 664.509 400.257Z" fill-rule="evenodd"/><text fill="#000000" fill-opacity="0" font-family="Arial,Arial_MSFontService,sans-serif" font-size="9.17773" x="662.521" y="408.288">,</text><path d="M683.472 387.014 684.538 387.014 681.936 398.613C681.671 399.793 681.539 400.685 681.539 401.287 681.539 401.769 681.617 402.118 681.774 402.335 681.93 402.551 682.177 402.66 682.514 402.66 682.876 402.66 683.261 402.512 683.671 402.217 684.08 401.922 684.658 401.359 685.405 400.528L686.435 401.54C685.254 402.78 684.297 403.623 683.562 404.069 682.828 404.515 682.003 404.738 681.087 404.738 680.304 404.738 679.678 404.451 679.208 403.879 678.739 403.307 678.504 402.576 678.504 401.684 678.504 400.769 678.672 399.601 679.01 398.179L680.365 392.272C680.642 391.067 680.78 390.164 680.78 389.562 680.78 389.02 680.651 388.652 680.392 388.46 680.133 388.267 679.624 388.159 678.865 388.134L679.064 387.177ZM682.984 380.095 686.182 380.095 685.351 383.6 682.153 383.6ZM704.993 378.505C706.173 378.505 707.191 378.601 708.046 378.794L707.342 381.865 705.752 381.865C705.583 381.179 705.363 380.685 705.092 380.384 704.821 380.083 704.421 379.932 703.891 379.932 703.204 379.932 702.623 380.122 702.147 380.501 701.672 380.881 701.265 381.444 700.928 382.191 700.591 382.937 700.278 383.943 699.989 385.208L699.537 387.177 704.18 387.177 703.782 389.002 699.121 389.002 695.761 404.756C695.207 407.369 694.358 409.317 693.214 410.6 692.069 411.883 690.63 412.524 688.896 412.524 688.39 412.524 687.992 412.494 687.703 412.434L688.01 410.844C688.131 410.88 688.414 410.898 688.86 410.898 689.402 410.898 689.865 410.76 690.251 410.483 690.636 410.206 690.994 409.724 691.326 409.037 691.657 408.351 691.961 407.399 692.238 406.183L696.122 389.002 693.069 389.002 693.34 387.755C694.147 387.707 694.728 387.641 695.083 387.556 695.439 387.472 695.716 387.346 695.915 387.177 696.113 387.008 696.282 386.789 696.42 386.518 696.559 386.247 696.737 385.75 696.953 385.027 697.592 382.859 698.576 381.23 699.907 380.14 701.238 379.05 702.933 378.505 704.993 378.505Z" fill-rule="evenodd"/><text fill="#000000" fill-opacity="0" font-family="Arial,Arial_MSFontService,sans-serif" font-size="34.019" x="678.504" y="408.272">ğ‘–ğ‘“</text><path d="M751.004 388.333C749.751 388.333 748.658 388.857 747.725 389.905 746.791 390.953 746.057 392.452 745.521 394.404 744.985 396.355 744.717 398.035 744.717 399.444 744.717 400.769 744.991 401.748 745.539 402.38 746.087 403.012 746.915 403.328 748.023 403.328 749.203 403.328 750.251 402.798 751.166 401.738 752.082 400.679 752.804 399.194 753.334 397.285 753.864 395.376 754.129 393.699 754.129 392.254 754.129 390.953 753.876 389.974 753.37 389.318 752.865 388.661 752.076 388.333 751.004 388.333ZM751.365 386.888C753.292 386.888 754.762 387.415 755.773 388.469 756.785 389.523 757.291 391.031 757.291 392.994 757.291 394.391 757.047 395.885 756.559 397.475 756.071 399.065 755.403 400.402 754.554 401.486 753.705 402.57 752.69 403.386 751.51 403.934 750.329 404.482 748.974 404.756 747.445 404.756 745.578 404.756 744.13 404.232 743.1 403.184 742.07 402.136 741.555 400.63 741.555 398.667 741.555 397.704 741.7 396.59 741.989 395.325 742.362 393.615 742.988 392.121 743.868 390.844 744.747 389.568 745.831 388.589 747.12 387.909 748.408 387.228 749.823 386.888 751.365 386.888ZM723.259 386.87C724.017 386.87 724.617 387.12 725.056 387.62 725.496 388.119 725.716 388.773 725.716 389.58 725.716 390.218 725.571 390.929 725.282 391.712L725.499 391.784C726.679 390.122 727.802 388.89 728.868 388.089 729.934 387.288 731.033 386.888 732.165 386.888 733.286 386.888 734.147 387.21 734.749 387.854 735.351 388.499 735.652 389.393 735.652 390.537 735.652 391.296 735.478 392.374 735.128 393.771L733.954 398.505C733.629 399.817 733.466 400.745 733.466 401.287 733.466 401.769 733.544 402.118 733.701 402.335 733.858 402.551 734.105 402.66 734.442 402.66 734.803 402.66 735.189 402.512 735.598 402.217 736.008 401.922 736.586 401.359 737.332 400.528L738.362 401.54C737.326 402.648 736.423 403.458 735.652 403.97 734.881 404.482 734.002 404.738 733.015 404.738 732.232 404.738 731.605 404.457 731.136 403.897 730.666 403.337 730.431 402.624 730.431 401.757 730.431 400.974 730.63 399.823 731.027 398.306L731.822 395.18C732.111 394.048 732.301 393.211 732.391 392.669 732.482 392.127 732.527 391.688 732.527 391.35 732.527 390.519 732.388 389.92 732.111 389.553 731.834 389.185 731.383 389.002 730.756 389.002 730.25 389.002 729.705 389.203 729.121 389.607 728.537 390.01 727.917 390.619 727.26 391.432 726.604 392.245 726.077 393.034 725.68 393.798 725.282 394.563 724.957 395.506 724.704 396.626L722.988 404.448 719.862 404.448 722.5 392.994C722.765 391.838 722.897 390.947 722.897 390.321 722.897 389.839 722.819 389.489 722.662 389.273 722.506 389.056 722.259 388.947 721.922 388.947 721.548 388.947 721.154 389.101 720.738 389.408 720.323 389.715 719.754 390.272 719.031 391.079L718.001 390.068C719.109 388.911 720.031 388.089 720.766 387.602 721.5 387.114 722.331 386.87 723.259 386.87ZM765.632 382.715 768.125 382.715 767.131 387.177 772.623 387.177 772.226 389.002 766.734 389.002 765.126 396.011C764.813 397.372 764.614 398.351 764.53 398.947 764.445 399.543 764.403 400.022 764.403 400.384 764.403 401.877 765.023 402.624 766.264 402.624 766.794 402.624 767.357 402.422 767.953 402.019 768.549 401.615 769.257 400.926 770.076 399.95L771.124 401.034C770.076 402.299 769.067 403.232 768.098 403.834 767.128 404.436 766.113 404.738 765.054 404.738 762.536 404.738 761.278 403.467 761.278 400.926 761.278 400.119 761.38 399.269 761.585 398.378L763.717 389.002 760.682 389.002 760.953 387.755C761.663 387.743 762.202 387.689 762.569 387.592 762.937 387.496 763.244 387.364 763.491 387.195 763.738 387.026 763.964 386.786 764.168 386.472 764.373 386.159 764.572 385.759 764.765 385.271 764.957 384.783 765.246 383.931 765.632 382.715Z" fill-rule="evenodd"/><text fill="#000000" fill-opacity="0" font-family="Arial,Arial_MSFontService,sans-serif" font-size="22.041" x="718.001" y="402">ğ‘›ğ‘œğ‘¡</text></g></svg>