<svg width="1280" height="720" xmlns="http://www.w3.org/2000/svg" xmlns:xlink="http://www.w3.org/1999/xlink" overflow="hidden"><defs><clipPath id="clip0"><rect x="0" y="0" width="1280" height="720"/></clipPath></defs><g clip-path="url(#clip0)"><rect x="0" y="0" width="1280" height="720" fill="#FFFFFF"/><text font-family="Cambria Math,Cambria Math_MSFontService,sans-serif" font-weight="400" font-size="32" transform="translate(474.095 387)">𝑣<tspan font-size="23" x="17.02" y="7">𝑖</tspan><tspan font-size="32" x="36.2" y="0">=</tspan><tspan font-size="32" x="64.4734" y="0"> </tspan><tspan font-size="23" x="75.92" y="-19">(</tspan><tspan font-size="23" x="85.5867" y="-19">𝑟𝑎𝑛𝑑</tspan></text><path d="M649.512 351.133C651.698 351.71 653.377 352.954 654.549 354.867 655.721 356.78 656.307 359.088 656.307 361.791 656.307 364.501 655.723 366.809 654.555 368.714 653.387 370.62 651.706 371.861 649.512 372.437L649.243 371.572C650.972 370.996 652.258 369.858 653.1 368.158 653.943 366.459 654.364 364.299 654.364 361.678 654.364 359.148 653.944 357.046 653.106 355.373 652.267 353.699 650.968 352.574 649.209 351.998ZM626.405 351.133 626.708 351.998C624.956 352.574 623.659 353.699 622.817 355.373 621.974 357.046 621.553 359.148 621.553 361.678 621.553 364.299 621.974 366.459 622.817 368.158 623.659 369.858 624.945 370.996 626.674 371.572L626.405 372.437C624.211 371.861 622.53 370.62 621.362 368.714 620.194 366.809 619.61 364.501 619.61 361.791 619.61 359.088 620.196 356.78 621.368 354.867 622.54 352.954 624.219 351.71 626.405 351.133Z" fill-rule="evenodd"/><text font-family="Cambria Math,Cambria Math_MSFontService,sans-serif" font-weight="400" font-size="23" transform="translate(658.475 368)">%200<tspan font-size="23" x="61.3333" y="0"> </tspan><tspan font-size="23" x="66.5" y="0">−</tspan>100)<tspan font-size="23" x="-7.64667" y="35">100</tspan></text><path d="M550.095 377.121 630.762 377.121 711.429 377.121 792.095 377.121 792.095 379.121 711.429 379.121 630.762 379.121 550.095 379.121Z" fill-rule="evenodd"/></g></svg>